<?xml version="1.0" encoding="UTF-8" standalone="no"?>
<!-- Created with Inkscape (http://www.inkscape.org/) -->

<svg
   width="210mm"
   height="297mm"
   viewBox="0 0 210 297"
   version="1.1"
   id="svg5"
   inkscape:version="1.1.2 (0a00cf5339, 2022-02-04)"
   sodipodi:docname="logo.svg"
   xmlns:inkscape="http://www.inkscape.org/namespaces/inkscape"
   xmlns:sodipodi="http://sodipodi.sourceforge.net/DTD/sodipodi-0.dtd"
   xmlns="http://www.w3.org/2000/svg"
   xmlns:svg="http://www.w3.org/2000/svg">
  <sodipodi:namedview
     id="namedview7"
     pagecolor="#ffffff"
     bordercolor="#666666"
     borderopacity="1.0"
     inkscape:pageshadow="2"
     inkscape:pageopacity="0.0"
     inkscape:pagecheckerboard="0"
     inkscape:document-units="mm"
     showgrid="false"
     inkscape:zoom="0.64052329"
     inkscape:cx="437.14258"
     inkscape:cy="323.17326"
     inkscape:window-width="1482"
     inkscape:window-height="925"
     inkscape:window-x="98"
     inkscape:window-y="112"
     inkscape:window-maximized="0"
     inkscape:current-layer="layer1" />
  <defs
     id="defs2" />
  <g
     inkscape:label="Layer 1"
     inkscape:groupmode="layer"
     id="layer1">
    <g
       id="g920"
       transform="translate(7.7228284,-142.27969)">
      <path
         style="fill:#9e9e9f;stroke-width:0.264583"
         d="m 12.173471,236.69123 v -85.725 h 85.725 85.724999 v 85.725 85.725 h -85.724999 -85.725 z m 113.241669,66.675 c 0,-0.29398 -0.17639,-0.52917 -0.39688,-0.52917 -0.47841,0 -0.51149,0.30872 -0.0794,0.74084 0.42698,0.42698 0.47625,0.40508 0.47625,-0.21167 z m 6.21771,0.26458 c 0.0899,-0.14552 -0.0221,-0.26458 -0.24897,-0.26458 -0.22687,0 -0.41249,0.11906 -0.41249,0.26458 0,0.14552 0.11203,0.26459 0.24897,0.26459 0.13693,0 0.32255,-0.11907 0.41249,-0.26459 z M 37.044304,302.5881 c 0,-0.13694 -0.119062,-0.32256 -0.264583,-0.41249 -0.145521,-0.0899 -0.264583,0.0221 -0.264583,0.24896 0,0.22687 0.119062,0.41249 0.264583,0.41249 0.145521,0 0.264583,-0.11203 0.264583,-0.24896 z m 2.742097,-0.14639 c -0.08344,-0.21745 -0.260242,-0.32828 -0.392888,-0.2463 -0.277437,0.17146 -0.05472,0.64165 0.303935,0.64165 0.132366,0 0.172395,-0.17791 0.08895,-0.39535 z m 59.434987,-0.0171 c 0,-0.22687 -0.119063,-0.3389 -0.264584,-0.24896 -0.14552,0.0899 -0.264583,0.27555 -0.264583,0.41249 0,0.13693 0.119063,0.24896 0.264583,0.24896 0.145521,0 0.264584,-0.18562 0.264584,-0.41249 z m 2.910412,0.14791 c 0,-0.14552 -0.11906,-0.26458 -0.26458,-0.26458 -0.14552,0 -0.26458,0.11906 -0.26458,0.26458 0,0.14552 0.11906,0.26458 0.26458,0.26458 0.14552,0 0.26458,-0.11906 0.26458,-0.26458 z m 39.95209,-0.52917 c 0,-0.14552 -0.12609,-0.26458 -0.2802,-0.26458 -0.15411,0 -0.20661,0.11906 -0.11668,0.26458 0.0899,0.14552 0.21603,0.26459 0.2802,0.26459 0.0642,0 0.11668,-0.11907 0.11668,-0.26459 z m -88.514428,-0.51088 c 0.08373,-0.13547 0.03122,-0.32109 -0.116676,-0.41249 -0.147894,-0.0914 -0.268898,0.0194 -0.268898,0.2463 0,0.46475 0.158766,0.53318 0.385574,0.16619 z m 3.499332,-0.33248 c -0.08446,-0.21106 -0.147156,-0.14837 -0.159851,0.15986 -0.01148,0.27891 0.05104,0.43518 0.138965,0.34726 0.08792,-0.0879 0.09732,-0.31612 0.02088,-0.50712 z m 2.38125,0 c -0.08446,-0.21106 -0.147156,-0.14837 -0.159851,0.15986 -0.01148,0.27891 0.05104,0.43518 0.138965,0.34726 0.08792,-0.0879 0.09732,-0.31612 0.02087,-0.50712 z m 13.49375,0 c -0.08446,-0.21106 -0.147156,-0.14837 -0.159851,0.15986 -0.01148,0.27891 0.05104,0.43518 0.138965,0.34726 0.08792,-0.0879 0.09732,-0.31612 0.02087,-0.50712 z m 3.704167,0 c -0.08446,-0.21106 -0.147156,-0.14837 -0.159851,0.15986 -0.01148,0.27891 0.05104,0.43518 0.138964,0.34726 0.08792,-0.0879 0.09732,-0.31612 0.02088,-0.50712 z m 32.219419,0.33248 c 0.0837,-0.13547 0.0312,-0.32109 -0.11668,-0.41249 -0.14789,-0.0914 -0.2689,0.0194 -0.2689,0.2463 0,0.46475 0.15877,0.53318 0.38558,0.16619 z m 49.88526,-0.0183 c 0,-0.14552 -0.11906,-0.26459 -0.26459,-0.26459 -0.14552,0 -0.26458,0.11907 -0.26458,0.26459 0,0.14552 0.11906,0.26458 0.26458,0.26458 0.14553,0 0.26459,-0.11906 0.26459,-0.26458 z m -36.57314,-1.9017 c -0.16353,-0.49059 -0.73311,-0.57196 -0.73311,-0.10473 0,0.23041 0.18851,0.41893 0.41892,0.41893 0.23041,0 0.3718,-0.14139 0.31419,-0.3142 z M 38.367221,299.1329 c 0,-0.14552 -0.0525,-0.26459 -0.116677,-0.26459 -0.06417,0 -0.190261,0.11907 -0.280198,0.26459 -0.08994,0.14552 -0.03743,0.26458 0.116677,0.26458 0.154109,0 0.280198,-0.11906 0.280198,-0.26458 z m 4.7625,0 c 0,-0.14552 -0.119063,-0.26459 -0.264583,-0.26459 -0.145521,0 -0.264584,0.11907 -0.264584,0.26459 0,0.14552 0.119063,0.26458 0.264584,0.26458 0.14552,0 0.264583,-0.11906 0.264583,-0.26458 z m 6.879167,0 c 0,-0.14552 -0.119063,-0.26459 -0.264584,-0.26459 -0.145521,0 -0.264583,0.11907 -0.264583,0.26459 0,0.14552 0.119062,0.26458 0.264583,0.26458 0.145521,0 0.264584,-0.11906 0.264584,-0.26458 z m 46.0375,0 c 0,-0.14552 -0.119063,-0.26459 -0.264584,-0.26459 -0.145521,0 -0.264583,0.11907 -0.264583,0.26459 0,0.14552 0.119062,0.26458 0.264583,0.26458 0.145521,0 0.264584,-0.11906 0.264584,-0.26458 z m 4.762502,0.1479 c 0,-0.27926 -0.50777,-0.39658 -0.65879,-0.15222 -0.0914,0.1479 0.0194,0.2689 0.2463,0.2689 0.22687,0 0.41249,-0.0525 0.41249,-0.11668 z m 4.49791,-0.1479 c 0,-0.14552 -0.11906,-0.26459 -0.26458,-0.26459 -0.14552,0 -0.26458,0.11907 -0.26458,0.26459 0,0.14552 0.11906,0.26458 0.26458,0.26458 0.14552,0 0.26458,-0.11906 0.26458,-0.26458 z m 48.41875,0 c 0,-0.14552 -0.11906,-0.26459 -0.26458,-0.26459 -0.14552,0 -0.26458,0.11907 -0.26458,0.26459 0,0.14552 0.11906,0.26458 0.26458,0.26458 0.14552,0 0.26458,-0.11906 0.26458,-0.26458 z M 28.424821,293.06751 c 0.962618,-0.90539 0.97322,-2.82919 0.02052,-3.7242 -0.79363,-0.74557 -0.82551,-1.09243 -0.156087,-1.69825 1.142905,-1.03432 0.861825,-3.0187 -0.5295,-3.73818 -0.518449,-0.2681 -1.627846,-0.3844 -3.666899,-0.3844 h -2.923556 v 4.98299 c 0,2.74064 0.08868,5.07166 0.197068,5.18005 0.108387,0.10839 1.587433,0.158 3.286767,0.11024 2.844041,-0.0799 3.143923,-0.13782 3.771682,-0.72825 z m -5.469579,-0.55292 c -0.549595,-0.34085 -0.655415,-2.60847 -0.145521,-3.11836 0.178279,-0.17828 1.032765,-0.3175 1.948694,-0.3175 1.249603,0 1.794277,0.12828 2.328333,0.54837 0.843162,0.66323 0.926496,1.80788 0.180753,2.48277 -0.61954,0.56068 -3.60847,0.8412 -4.312259,0.40472 z m -0.145521,-4.81169 c -0.174625,-0.17463 -0.3175,-0.80566 -0.3175,-1.40229 0,-0.59664 0.142875,-1.22767 0.3175,-1.4023 0.416972,-0.41697 3.072513,-0.40123 3.915833,0.0232 0.941089,0.47365 1.07317,2.0794 0.220185,2.67685 -0.724539,0.5075 -3.658897,0.58165 -4.136018,0.10453 z m 16.270729,5.62081 c 1.629278,-0.99344 1.800313,-1.5459 1.800313,-5.81521 0,-3.55179 -0.03784,-3.85159 -0.497462,-3.94115 -0.273606,-0.0533 -0.599204,0.0636 -0.723553,0.25983 -0.124349,0.19621 -0.227915,1.88263 -0.230143,3.74759 -0.0021,1.86496 -0.126643,3.6199 -0.276476,3.89987 -0.603098,1.12689 -2.682345,1.63836 -4.07704,1.00289 -1.315162,-0.59922 -1.561361,-1.37683 -1.687849,-5.33093 -0.11321,-3.53902 -0.134164,-3.64944 -0.677774,-3.57187 -0.542169,0.0774 -0.560953,0.20891 -0.560953,3.92849 0,3.26387 0.07252,3.95907 0.477396,4.57669 0.811354,1.23769 1.964242,1.75934 3.888229,1.75934 1.238971,0 1.956182,-0.14413 2.565312,-0.51554 z m 12.070311,0.21987 c 0.700979,-0.36102 1.768543,-1.3101 1.768543,-1.57225 0,-0.51633 -0.930195,-0.43771 -1.797992,0.15197 -1.792083,1.21776 -4.157863,0.66355 -5.36254,-1.25621 -0.434081,-0.69175 -0.522296,-1.19587 -0.445987,-2.54858 0.08952,-1.58688 0.159943,-1.74673 1.194744,-2.71198 0.96701,-0.90202 1.255935,-1.02572 2.395858,-1.02572 0.955585,0 1.559433,0.17861 2.297729,0.67963 0.887344,0.60217 1.046435,0.63469 1.395823,0.2853 0.349385,-0.34939 0.310398,-0.47212 -0.342059,-1.07679 -1.552302,-1.43863 -4.160353,-1.51245 -6.26559,-0.17734 -2.582677,1.63788 -3.038631,5.47606 -0.935125,7.87182 0.464114,0.5286 1.203243,1.11768 1.642512,1.30908 0.986708,0.42994 3.674042,0.47282 4.454084,0.0711 z m 5.949809,-1.54429 c 0.144712,-3.08392 0.9954,-3.19089 3.146465,-0.39567 1.445371,1.87821 2.334241,2.51123 2.972387,2.11683 0.159899,-0.0988 -0.557331,-1.17745 -1.704752,-2.56376 -1.08943,-1.31625 -1.98029,-2.59014 -1.97969,-2.83088 5.3e-4,-0.24074 0.774018,-1.33067 1.718699,-2.42208 0.944682,-1.09141 1.718096,-2.07367 1.718699,-2.18281 5.29e-4,-0.10914 -0.28848,-0.19844 -0.642405,-0.19844 -0.484667,0 -1.14612,0.59242 -2.679838,2.40016 -1.119987,1.32009 -2.134563,2.30194 -2.254615,2.18189 -0.120052,-0.12005 -0.253577,-1.17036 -0.296725,-2.33402 -0.07636,-2.05948 -0.09604,-2.11574 -0.739907,-2.11574 h -0.661459 l -0.07249,4.75361 c -0.03986,2.61448 -0.01064,4.91478 0.06496,5.11178 0.0756,0.197 0.405871,0.32007 0.733944,0.27348 0.53867,-0.0765 0.604271,-0.25044 0.676719,-1.79435 z m 15.877101,1.24663 c 0.079,-0.41209 -0.16265,-0.46302 -2.196986,-0.46302 -2.972827,0 -3.309297,-0.18597 -3.309297,-1.829 0,-0.72952 0.148346,-1.40433 0.344506,-1.56713 0.189478,-0.15725 1.409869,-0.32066 2.711979,-0.36312 1.893715,-0.0618 2.367473,-0.15663 2.367473,-0.47409 0,-0.31745 -0.473758,-0.41232 -2.367473,-0.47408 -1.30211,-0.0425 -2.522501,-0.20587 -2.711979,-0.36313 -0.43266,-0.35908 -0.452141,-2.3889 -0.02701,-2.81404 0.201424,-0.20142 1.217083,-0.3175 2.778125,-0.3175 2.284235,0 2.460625,-0.0379 2.460625,-0.52916 0,-0.50203 -0.17639,-0.52917 -3.439584,-0.52917 h -3.439583 v 4.98299 c 0,2.74064 0.08285,5.06583 0.184116,5.1671 0.101264,0.10126 1.617861,0.15087 3.370217,0.11024 2.78955,-0.0647 3.197148,-0.1315 3.274867,-0.53689 z m 7.461319,-1.78594 0.135308,-2.24896 1.782921,-2.70427 c 0.980604,-1.48735 1.782919,-2.76727 1.782919,-2.84427 0,-0.077 -0.303004,-0.14 -0.673344,-0.14 -0.553019,0 -0.914093,0.37824 -2.020599,2.11667 -0.740992,1.16416 -1.508895,2.11666 -1.706451,2.11666 -0.197557,0 -0.984928,-0.94982 -1.749714,-2.1107 -1.047908,-1.59066 -1.537194,-2.11218 -1.98583,-2.11667 -0.327422,-0.003 -0.595312,0.11007 -0.595312,0.25188 0,0.14181 0.833437,1.52239 1.852083,3.06795 l 1.852083,2.81012 v 2.10982 c 0,2.03663 0.02066,2.10689 0.595313,2.02528 0.551354,-0.0783 0.605303,-0.25061 0.730623,-2.33351 z m 13.093856,1.85208 c 0,-0.31358 -0.499769,-0.42464 -2.38125,-0.52916 -1.309687,-0.0728 -2.530078,-0.22862 -2.711979,-0.34635 -0.510474,-0.33038 -0.437293,-2.99573 0.08779,-3.19722 0.230182,-0.0883 1.420807,-0.1606 2.645833,-0.1606 2.050929,0 2.227318,-0.0419 2.227318,-0.52917 0,-0.48726 -0.176389,-0.52916 -2.227318,-0.52916 -3.01398,0 -3.064348,-0.0287 -3.064348,-1.74306 0,-1.6645 -0.01283,-1.65766 3.307291,-1.76218 1.675477,-0.0528 2.116667,-0.14936 2.116667,-0.46351 0,-0.32816 -0.584126,-0.4097 -3.373437,-0.47093 l -3.373438,-0.074 v 5.17518 5.17519 l 3.373438,-0.074 c 2.789311,-0.0612 3.373437,-0.14277 3.373437,-0.47093 z m 14.448644,-4.23333 c 2.40286,-6.11026 2.26907,-5.55625 1.34188,-5.55625 -0.76648,0 -0.81119,0.0795 -2.31333,4.11148 -1.12324,3.01498 -1.63786,4.09104 -1.92965,4.03485 -0.24625,-0.0474 -0.96609,-1.5893 -1.88862,-4.04534 -1.37758,-3.66754 -1.54463,-3.97505 -2.20138,-4.05242 -0.41467,-0.0489 -0.71067,0.0455 -0.71067,0.22649 0,0.40999 3.46407,9.28328 3.7971,9.72634 0.14909,0.19835 0.64521,0.31042 1.17125,0.26458 l 0.9126,-0.0795 z m 11.29824,4.16719 c 0.079,-0.4121 -0.16262,-0.46302 -2.19696,-0.46302 -2.96434,0 -3.3093,-0.18852 -3.3093,-1.80848 0,-0.69338 0.14288,-1.40357 0.3175,-1.57819 0.19884,-0.19884 1.18769,-0.3175 2.64583,-0.3175 2.15195,0 2.32834,-0.0401 2.32834,-0.52917 0,-0.48907 -0.17639,-0.52916 -2.32834,-0.52916 -1.45814,0 -2.44699,-0.11866 -2.64583,-0.3175 -0.41125,-0.41125 -0.41125,-2.39334 0,-2.80459 0.20178,-0.20178 1.22139,-0.3175 2.79753,-0.3175 2.21936,0 2.47069,-0.0487 2.39123,-0.46302 -0.0781,-0.40733 -0.49414,-0.47192 -3.45898,-0.53707 l -3.3702,-0.074 v 5.17518 5.17519 l 3.3702,-0.074 c 2.96484,-0.0651 3.38087,-0.12974 3.45898,-0.53707 z m 4.22952,-1.33422 c 0.0681,-1.55959 0.15616,-1.83262 0.66584,-2.06484 0.98943,-0.45082 1.75414,0.0762 2.93969,2.0258 0.87798,1.44386 1.26803,1.85417 1.82515,1.92 0.3897,0.046 0.70434,-0.0135 0.6992,-0.13229 -0.005,-0.11881 -0.4753,-0.98122 -1.04481,-1.91646 l -1.03547,-1.70045 1.2122,-1.12886 c 1.19153,-1.1096 1.20998,-1.15207 1.08139,-2.49029 -0.0971,-1.01068 -0.31203,-1.54283 -0.83417,-2.06549 -0.66685,-0.66752 -0.86095,-0.70866 -3.74074,-0.79296 l -3.03739,-0.0889 v 5.20055 5.20054 l 0.59531,-0.0845 c 0.54137,-0.0769 0.60242,-0.24741 0.6738,-1.88179 z m 0.23019,-3.53853 c -0.30608,-0.30608 -0.19088,-3.14286 0.14111,-3.47486 0.4014,-0.40139 2.62249,-0.41323 3.48863,-0.0186 1.34243,0.61166 1.46173,2.71001 0.19268,3.38918 -0.57364,0.307 -3.5388,0.3879 -3.82242,0.10428 z m 12.7882,1.13483 c 0,-3.18981 0.089,-4.40712 0.33744,-4.61328 0.1856,-0.15403 0.92974,-0.31744 1.65365,-0.36313 0.95665,-0.0604 1.3162,-0.19148 1.3162,-0.47994 0,-0.33153 -0.64255,-0.40893 -3.9026,-0.4701 -3.76746,-0.0707 -3.90261,-0.0546 -3.90261,0.46302 0,0.46412 0.17081,0.53624 1.27,0.53624 0.6985,0 1.41288,0.14288 1.5875,0.3175 0.21987,0.21987 0.3175,1.58946 0.3175,4.45382 0,2.27498 0.0794,4.2157 0.17639,4.31271 0.097,0.097 0.39467,0.17639 0.66146,0.17639 0.45062,0 0.48507,-0.3077 0.48507,-4.33323 z m 7.14375,-0.84455 v -5.17777 l -0.59531,0.0845 c -0.58901,0.0836 -0.59608,0.13495 -0.6678,4.83816 -0.0399,2.61448 -0.0138,4.90643 0.0578,5.09323 0.0717,0.18679 0.37219,0.33962 0.6678,0.33962 0.52193,0 0.53747,-0.14972 0.53747,-5.17778 z m 10.40229,4.88013 c 1.13902,-0.58663 1.78518,-1.34787 1.46826,-1.72974 -0.40525,-0.48829 -0.58911,-0.4532 -1.73849,0.33185 -1.70802,1.16661 -4.11016,0.5948 -5.2051,-1.23904 -1.13768,-1.90543 -0.5517,-4.71662 1.2066,-5.78862 1.25585,-0.76567 3.04509,-0.71689 4.17089,0.11369 0.70096,0.51716 0.98848,0.59406 1.39919,0.37426 0.50621,-0.27092 0.50462,-0.28977 -0.077,-0.90884 -0.32665,-0.34769 -1.12595,-0.83537 -1.77622,-1.08371 -2.32318,-0.88723 -5.40185,0.38392 -6.43386,2.65646 -1.12595,2.47942 -0.32997,5.43606 1.83271,6.8076 1.00281,0.63596 1.48627,0.76374 2.88968,0.76374 0.92697,0 1.94545,-0.13394 2.26331,-0.29765 z m 5.34042,-0.69525 0.52916,-0.99148 2.43789,-0.0759 2.43789,-0.0759 0.68476,1.08473 c 0.51806,0.82065 0.82633,1.06306 1.26628,0.99571 0.34756,-0.0532 0.54812,-0.24617 0.4985,-0.47962 -0.0456,-0.21482 -0.91876,-2.50395 -1.94023,-5.08695 l -1.85723,-4.69635 h -1.01481 -1.01482 l -1.87359,4.78131 c -1.03048,2.62973 -1.8736,4.95145 -1.8736,5.15938 0,0.21589 0.25537,0.37775 0.59532,0.37735 0.41694,-5.3e-4 0.75386,-0.29779 1.12448,-0.99219 z m 1.24512,-2.51331 c -0.38193,-0.46019 1.24432,-4.82817 1.79758,-4.82817 0.59583,0 2.23748,4.29813 1.82944,4.78979 -0.39427,0.47507 -3.23961,0.50518 -3.62702,0.0384 z m 15.24142,2.9109 c 0.0778,-0.40602 -0.14382,-0.46302 -1.80016,-0.46302 -3.02325,0 -2.91243,0.18661 -2.91243,-4.9041 v -4.35632 h -0.66145 -0.66146 v 5.16804 5.16804 l 2.97339,-0.0748 c 2.58648,-0.0651 2.98494,-0.13506 3.06211,-0.53783 z m -86.865711,-48.9539 2.116667,-0.85392 0.132292,-6.08541 0.132291,-6.08542 1.719792,-0.19613 c 0.945885,-0.10787 3.029479,-0.54271 4.630208,-0.9663 1.929337,-0.51055 3.015501,-0.6841 3.222151,-0.51484 0.17146,0.14043 0.86196,2.5398 1.53444,5.33193 1.93408,8.03016 1.87204,7.85472 2.77777,7.85472 0.83145,0 4.72044,-1.15458 5.86118,-1.74009 0.38255,-0.19636 0.76344,-0.53395 0.84643,-0.75022 0.17388,-0.45313 -0.60857,-3.81085 -2.48215,-10.65157 -1.13607,-4.148 -1.27326,-4.90285 -1.00001,-5.50257 0.42206,-0.92631 6.35902,-3.95556 7.29301,-3.72114 1.38931,0.34869 4.03989,-0.92101 4.03989,-1.93522 0,-0.21784 -0.19304,-0.60937 -0.42897,-0.87007 -0.23593,-0.2607 -0.3659,-0.63834 -0.28882,-0.8392 0.0771,-0.20086 1.78816,-1.05688 3.8024,-1.90227 8.44381,-3.54393 17.9899,-7.98676 17.72656,-8.25009 -0.0795,-0.0795 -1.72861,0.5985 -3.66479,1.50656 -7.05096,3.30687 -17.25612,7.66838 -17.94263,7.66838 -0.25504,0 -0.64241,-0.52253 -0.98034,-1.32241 -0.59873,-1.41715 -1.03425,-1.73677 -2.02697,-1.48762 -0.88938,0.22322 -1.31801,1.42575 -1.09254,3.0651 l 0.18426,1.33977 -1.26241,0.55843 c -1.11511,0.49326 -2.63852,0.64655 -13.05606,1.31369 -6.486509,0.4154 -12.519339,0.75777 -13.406289,0.76082 -1.874578,0.006 -2.188628,-0.23853 -2.847731,-2.22148 -0.23784,-0.71554 -0.629928,-1.51921 -0.87131,-1.78593 -0.646885,-0.7148 -1.840667,-0.6246 -2.367116,0.17886 -0.38472,0.58716 -0.397357,0.9055 -0.109411,2.7565 0.179049,1.15097 0.248627,2.21713 0.15462,2.36924 -0.318688,0.51565 0.853482,1.35398 1.898899,1.35809 1.073285,0.004 2.211102,0.46883 2.376432,0.97037 0.114001,0.34583 -6.484512,4.37994 -6.927916,4.23549 -0.15244,-0.0497 -0.515287,-0.74903 -0.806329,-1.55415 -0.291041,-0.80513 -0.692573,-1.65936 -0.892291,-1.89828 -0.734092,-0.8782 -1.931509,-0.29552 -1.950056,0.94891 -0.01894,1.27115 0.411819,4.58373 0.632701,4.86543 0.387509,0.49421 -0.269907,0.79626 -3.87577,1.78074 -11.214799,3.06187 -21.188765,5.21696 -31.220834,6.74592 -0.87518,0.13338 -1.231339,0.25564 -0.79375,0.27246 1.284912,0.0494 7.799549,-0.96495 13.49375,-2.10102 6.519604,-1.30073 14.993575,-3.38415 23.01875,-5.65941 3.346979,-0.94891 6.58468,-1.72663 7.194894,-1.72825 1.614795,-0.004 1.931874,0.57824 1.938682,3.56166 0.0063,2.77049 0.44046,9.87775 0.682024,11.16541 0.09084,0.48422 0.300744,0.87771 0.46645,0.87442 0.165706,-0.003 1.253784,-0.39024 2.41795,-0.85989 z m -2.087126,-1.31694 c -0.249536,-0.90324 -0.53286,-11.37997 -0.329647,-12.18964 0.2193,-0.87376 1.212226,-0.95731 2.444772,-0.20573 1.009581,0.61563 1.070602,0.95041 1.317675,7.22933 l 0.184539,4.68968 -1.250064,0.53584 c -1.614397,0.69201 -2.163471,0.67821 -2.367275,-0.0595 z m 18.000987,-1.45847 c -0.0686,-0.11094 -0.79475,-2.76008 -1.61376,-5.88698 -0.81901,-3.1269 -1.55214,-5.8945 -1.62919,-6.15021 -0.0873,-0.2899 0.14129,-0.7463 0.60729,-1.21231 0.60296,-0.60296 1.07067,-0.78115 2.42058,-0.92225 0.92027,-0.0962 1.87846,-0.065 2.1293,0.0692 1.06335,0.56908 2.53095,4.34418 3.74273,9.62745 0.50845,2.2168 0.54204,2.65184 0.22831,2.95666 -0.34497,0.33515 -4.72022,1.72013 -5.43405,1.72013 -0.1796,0 -0.38265,-0.0908 -0.45121,-0.2017 z M 34.7292,239.41492 c -0.327422,-0.0631 -0.863203,-0.0631 -1.190625,0 -0.327422,0.0631 -0.05953,0.11466 0.595313,0.11466 0.654843,0 0.922734,-0.0516 0.595312,-0.11466 z m 3.439584,-0.26458 c -0.327422,-0.0631 -0.863204,-0.0631 -1.190626,0 -0.327421,0.0631 -0.05953,0.11466 0.595313,0.11466 0.654844,0 0.922734,-0.0516 0.595313,-0.11466 z M 150.48441,201.71646 c 1.78263,-1.00824 3.24114,-1.87959 3.24114,-1.93633 0,-0.0567 -1.45851,0.67005 -3.24114,1.61508 -1.78263,0.94504 -4.22341,2.21556 -5.42396,2.82339 -1.20055,0.60783 -2.18281,1.199 -2.18281,1.31371 0,0.26615 3.44501,-1.462 7.60677,-3.81585 z m 5.09323,-3.01156 c 0,-0.0728 -0.23813,-0.005 -0.52917,0.15091 -0.29104,0.15576 -0.52917,0.34274 -0.52917,0.4155 0,0.0728 0.23813,0.005 0.52917,-0.15091 0.29104,-0.15576 0.52917,-0.34274 0.52917,-0.4155 z"
         id="path926" />
      <path
         style="fill:#93130f;stroke-width:0.264583"
         d="m 12.438054,236.69123 v -85.725 h 85.592709 85.592707 v 85.725 85.725 H 98.030763 12.438054 Z m 27.370236,64.62539 c -0.91834,-2.26956 -1.121656,-2.5806 -1.686881,-2.5806 -0.563597,0 -0.767097,0.30698 -1.653646,2.49452 -0.556027,1.37199 -1.010959,2.59238 -1.010959,2.71198 0,0.43553 0.939892,0.20329 1.261514,-0.31171 0.248693,-0.39822 0.617016,-0.52916 1.488424,-0.52916 0.955848,0 1.236833,0.12038 1.60989,0.68974 0.329541,0.50294 0.531006,0.61067 0.743895,0.39778 0.212886,-0.21288 0.0092,-0.99085 -0.752237,-2.87255 z m -2.348327,0.75709 c -0.195136,-0.31574 0.366739,-1.88248 0.675106,-1.88248 0.330223,0 0.816894,1.32563 0.64813,1.76542 -0.151244,0.39413 -1.100115,0.47807 -1.323236,0.11706 z m 25.134916,2.05669 c 0.274989,-0.44494 -0.415497,-0.7556 -1.689502,-0.76012 -1.08898,-0.004 -1.138164,-0.0379 -1.058334,-0.73165 0.07667,-0.66632 0.189577,-0.7344 1.34049,-0.80825 0.858052,-0.0551 1.256771,-0.19736 1.256771,-0.44853 0,-0.25116 -0.398719,-0.39346 -1.256771,-0.44852 -1.150913,-0.0738 -1.263821,-0.14193 -1.34049,-0.80825 -0.08125,-0.70614 -0.04548,-0.7276 1.212673,-0.7276 1.445712,0 1.786292,-0.17743 1.349896,-0.70326 -0.370861,-0.44686 -2.914179,-0.47537 -3.351974,-0.0376 -0.448562,0.44856 -0.436825,5.41109 0.01323,5.59269 0.649647,0.26213 3.344712,0.17117 3.524012,-0.11894 z m 7.799088,-0.43344 c 1.589762,-1.42058 1.238226,-4.10253 -0.656143,-5.00589 -2.00574,-0.95647 -4.11852,0.44788 -4.11852,2.73754 0,1.00827 0.141701,1.33849 0.899584,2.09637 1.191003,1.191 2.661647,1.25627 3.875079,0.17198 z m -3.000176,-0.59956 c -0.548251,-0.43125 -0.716153,-0.79315 -0.716153,-1.54358 0,-1.3957 0.611941,-2.15634 1.734793,-2.15634 1.187985,0 1.969373,0.77571 1.969373,1.95506 0,1.77997 -1.689295,2.76643 -2.988013,1.74486 z m 17.55226,0.59956 c 1.589762,-1.42058 1.238226,-4.10253 -0.656143,-5.00589 -2.00574,-0.95647 -4.11852,0.44788 -4.11852,2.73754 0,1.00827 0.1417,1.33849 0.899583,2.09637 1.191003,1.191 2.661647,1.25627 3.87508,0.17198 z m -3.01919,-0.61452 c -0.558781,-0.43954 -0.69714,-0.77272 -0.69714,-1.67878 0,-1.35292 0.588325,-2.00618 1.806771,-2.00618 1.802553,0 2.584958,2.24691 1.247963,3.5839 -0.793388,0.79339 -1.442093,0.8212 -2.357594,0.10106 z m 10.679943,0.81296 c 1.112375,-1.11238 0.537374,-2.42482 -1.334783,-3.04665 -0.981181,-0.3259 -1.31568,-0.56199 -1.249638,-0.882 0.07187,-0.34823 0.37033,-0.42527 1.469594,-0.37934 1.487371,0.0622 1.721279,-0.18505 0.791372,-0.83639 -0.696564,-0.48789 -1.60623,-0.5286 -2.405918,-0.10768 -1.693817,0.89156 -1.167833,2.56794 0.992913,3.16455 0.53458,0.14761 1.044257,0.45677 1.132618,0.68703 0.21283,0.55463 -0.696452,1.20992 -1.380533,0.99491 -1.375349,-0.43228 -1.719791,-0.44482 -1.719791,-0.0626 0,0.98934 2.825826,1.34649 3.704166,0.46815 z m 19.200576,0.235 c 0.27499,-0.44494 -0.4155,-0.7556 -1.6895,-0.76012 -1.08898,-0.004 -1.13817,-0.0379 -1.05834,-0.73165 0.0767,-0.66632 0.18958,-0.7344 1.34049,-0.80825 0.85806,-0.0551 1.25677,-0.19736 1.25677,-0.44853 0,-0.25116 -0.39871,-0.39346 -1.25677,-0.44852 -1.14266,-0.0733 -1.25677,-0.1407 -1.25677,-0.7421 0,-0.59529 0.11911,-0.66975 1.19063,-0.74431 2.33691,-0.16261 1.98993,-1.09644 -0.41011,-1.10372 -0.73488,-0.002 -1.47902,0.13882 -1.65364,0.31345 -0.43073,0.43073 -0.43073,5.01968 0,5.45041 0.39981,0.39982 3.29277,0.4189 3.53724,0.0233 z m 7.40207,-0.35527 c 0.5882,-0.58819 0.64944,-0.86264 0.64944,-2.91042 0,-1.83337 -0.0751,-2.26098 -0.39688,-2.26098 -0.30755,0 -0.39687,0.34839 -0.39687,1.54802 0,2.65108 -0.71473,3.79173 -2.10032,3.35196 -0.64345,-0.20422 -1.13911,-1.66092 -1.06231,-3.12203 0.0831,-1.58124 0.0378,-1.77795 -0.40925,-1.77795 -0.32181,0 -0.39687,0.42761 -0.39687,2.26098 0,2.04778 0.0612,2.32223 0.64943,2.91042 0.47785,0.47786 0.9354,0.64943 1.73182,0.64943 0.79642,0 1.25396,-0.17157 1.73181,-0.64943 z m 6.67781,-2.49937 c -0.0607,-2.04771 -0.15214,-2.53974 -0.47212,-2.53974 -0.30253,0 -0.41571,0.39731 -0.47611,1.67133 -0.0436,0.91924 -0.18177,1.63361 -0.3071,1.5875 -0.12533,-0.0461 -0.7797,-0.83566 -1.45416,-1.75456 -1.77919,-2.42404 -2.12826,-2.23622 -2.12826,1.14519 0,2.17224 0.0706,2.64221 0.39688,2.64221 0.30204,0 0.4157,-0.39514 0.47564,-1.65365 0.0433,-0.9095 0.17197,-1.65364 0.28588,-1.65364 0.11391,0 0.60363,0.56554 1.08828,1.25677 1.46458,2.08886 1.88919,2.48328 2.30335,2.13956 0.27187,-0.22563 0.34408,-0.93863 0.28772,-2.84097 z m 5.98764,2.55349 c 0.59829,-0.92141 2.11118,-4.94485 1.92818,-5.12785 -0.41203,-0.41203 -0.97571,0.27779 -1.63337,1.99886 -0.39348,1.02972 -0.80526,1.87222 -0.91507,1.87222 -0.10981,0 -0.53023,-0.84259 -0.93427,-1.87242 -0.68061,-1.73476 -1.24186,-2.40832 -1.65909,-1.99108 -0.1795,0.1795 1.31427,4.10015 1.95083,5.12027 0.20431,0.32742 0.48505,0.59531 0.62386,0.59531 0.13881,0 0.42633,-0.26789 0.63893,-0.59531 z m 6.38341,0.31313 c 0.26826,-0.43405 -0.0549,-0.60929 -1.41106,-0.76522 -1.11412,-0.1281 -1.24565,-0.21307 -1.24565,-0.80468 0,-0.59806 0.12484,-0.67414 1.30239,-0.79375 1.68547,-0.1712 1.97601,-0.79214 0.3733,-0.7978 -1.37528,-0.005 -1.89269,-0.28435 -1.76558,-0.9537 0.0731,-0.38486 0.39339,-0.5274 1.4151,-0.62975 0.9387,-0.094 1.32062,-0.24707 1.32062,-0.52917 0,-0.43519 -1.8379,-0.6897 -2.95534,-0.40924 -0.59581,0.14954 -0.61654,0.24649 -0.61654,2.88373 0,1.50094 0.0794,2.80836 0.17639,2.90537 0.29017,0.29017 3.21785,0.19924 3.40637,-0.10579 z m 4.79035,-1.04641 c -0.45496,-0.7702 -0.45264,-0.81525 0.0768,-1.4883 0.68017,-0.86468 0.70176,-1.98716 0.0496,-2.57737 -0.58815,-0.53226 -2.11269,-0.82416 -3.06116,-0.58611 -0.67093,0.16839 -0.67583,0.18969 -0.67583,2.94271 0,2.28857 0.0693,2.77308 0.39688,2.77308 0.26083,0 0.39687,-0.26098 0.39687,-0.76135 0,-0.8154 0.51435,-1.44253 0.93643,-1.14175 0.14146,0.10082 0.59769,0.63987 1.01384,1.19788 0.54794,0.73472 0.83651,0.9347 1.0462,0.72501 0.20969,-0.2097 0.16015,-0.50864 -0.17961,-1.0838 z m -2.67273,-2.3383 c -0.34951,-1.10118 0.54223,-1.68938 1.81861,-1.19959 0.49516,0.19001 0.54925,0.92575 0.10101,1.37398 -0.50457,0.50458 -1.73974,0.39237 -1.91962,-0.17439 z m 7.74348,3.12742 c 1.17027,-1.09027 0.61359,-2.40577 -1.28489,-3.03634 -0.98118,-0.3259 -1.31568,-0.56199 -1.24964,-0.882 0.0719,-0.34823 0.37033,-0.42527 1.4696,-0.37934 1.48737,0.0622 1.72128,-0.18505 0.79137,-0.83639 -0.69656,-0.48789 -1.60623,-0.5286 -2.40592,-0.10768 -1.69382,0.89156 -1.16783,2.56794 0.99291,3.16455 0.53458,0.14761 1.04426,0.45677 1.13262,0.68703 0.21283,0.55463 -0.69645,1.20992 -1.38053,0.99491 -1.37535,-0.43228 -1.71979,-0.44482 -1.71979,-0.0626 0,0.99209 2.71561,1.33233 3.65427,0.45784 z M 43.233705,303.74146 c 0.08833,-0.23018 0.160599,-1.30174 0.160599,-2.38125 0,-1.90453 0.01916,-1.96273 0.645843,-1.96273 0.355214,0 0.727657,-0.13237 0.827648,-0.29416 0.319696,-0.51728 -0.499501,-0.77025 -2.267241,-0.70011 -1.297366,0.0515 -1.719791,0.16278 -1.719791,0.45318 0,0.21172 0.297656,0.45491 0.661458,0.54043 0.63523,0.14932 0.66449,0.24684 0.737904,2.45932 0.05719,1.72349 0.166698,2.30384 0.434713,2.30384 0.197049,0 0.430538,-0.18833 0.518867,-0.41852 z m 7.095612,-1.88532 c 0.07341,-2.21248 0.102674,-2.31 0.737904,-2.45932 0.363802,-0.0855 0.661458,-0.32871 0.661458,-0.54043 0,-0.2904 -0.422425,-0.40171 -1.719791,-0.45318 -1.76774,-0.0701 -2.586937,0.18283 -2.267241,0.70011 0.09999,0.16179 0.472434,0.29416 0.827648,0.29416 0.633069,0 0.645843,0.0436 0.645843,2.20486 0,2.24119 0.08602,2.55764 0.695253,2.55764 0.248174,0 0.363527,-0.63438 0.418926,-2.30384 z m 3.43467,1.17936 0.08136,-1.12448 1.373201,-0.0794 1.3732,-0.0794 0.08201,1.13547 c 0.06002,0.83096 0.206182,1.15903 0.545029,1.2233 0.417478,0.0792 0.46302,-0.18924 0.46302,-2.7291 0,-2.53996 -0.04552,-2.80826 -0.46302,-2.72881 -0.319697,0.0608 -0.503971,0.41491 -0.595313,1.14388 l -0.132292,1.05577 h -1.322916 -1.322917 l -0.132292,-1.05834 c -0.08819,-0.70555 -0.264583,-1.05833 -0.529166,-1.05833 -0.317357,0 -0.412324,0.47292 -0.47398,2.36031 -0.08491,2.59912 0.0034,3.06365 0.582755,3.06365 0.269632,0 0.415071,-0.34699 0.471324,-1.12448 z m 19.528234,-0.0687 0.132292,-1.05577 h 1.322916 1.322917 l 0.132292,1.05577 c 0.09251,0.73827 0.274394,1.08282 0.604803,1.14571 0.432779,0.0824 0.466151,-0.1399 0.396875,-2.64327 -0.06142,-2.21951 -0.150228,-2.73321 -0.472512,-2.73321 -0.264583,0 -0.440973,0.35278 -0.529166,1.05833 l -0.132292,1.05834 h -1.322917 -1.322916 l -0.132292,-1.05834 c -0.08819,-0.70555 -0.264583,-1.05833 -0.529167,-1.05833 -0.322283,0 -0.411091,0.5137 -0.472511,2.73321 -0.06928,2.50337 -0.0359,2.72564 0.396875,2.64327 0.330409,-0.0629 0.512297,-0.40744 0.604803,-1.14571 z m 5.953125,-1.58494 c 0,-2.30258 -0.05896,-2.64994 -0.463021,-2.72775 -0.417563,-0.0804 -0.463021,0.18739 -0.463021,2.72775 0,2.54037 0.04546,2.80818 0.463021,2.72776 0.404059,-0.0778 0.463021,-0.42517 0.463021,-2.72776 z m 17.065625,0.41445 v -2.36367 l 0.727604,-0.0837 c 0.433163,-0.0498 0.727604,-0.24433 0.727604,-0.4806 0,-0.30507 -0.397801,-0.41265 -1.719791,-0.4651 -1.76774,-0.0701 -2.586937,0.18283 -2.267241,0.70011 0.09999,0.16179 0.472434,0.29416 0.827648,0.29416 0.633069,0 0.645843,0.0436 0.645843,2.20486 0,2.24946 0.08502,2.55764 0.705556,2.55764 0.267655,0 0.352777,-0.57034 0.352777,-2.36368 z m 2.645833,1.83451 c 0.21816,-0.40763 0.55399,-0.52916 1.462276,-0.52916 0.89253,0 1.25939,0.1286 1.50954,0.52916 0.29392,0.47063 1.26152,0.7622 1.26152,0.38014 0,-0.082 -0.4875,-1.3237 -1.08334,-2.75941 -1.05025,-2.53067 -1.4424,-3.05331 -2.01796,-2.68948 -0.326279,0.20626 -2.190369,4.63519 -2.190369,5.20414 0,0.57461 0.728213,0.48145 1.058333,-0.13539 z m 0.882957,-1.73666 c -0.172974,-0.45076 0.298259,-1.70292 0.640859,-1.70292 0.11674,0 0.35599,0.38081 0.53167,0.84624 0.25171,0.66684 0.24999,0.89034 -0.008,1.05428 -0.52047,0.33057 -0.99245,0.25047 -1.164389,-0.1976 z m 5.731629,-0.0979 v -2.36367 l 0.7276,-0.0837 c 0.43316,-0.0498 0.72761,-0.24433 0.72761,-0.4806 0,-0.30507 -0.39781,-0.41265 -1.7198,-0.4651 -1.76774,-0.0701 -2.58693,0.18283 -2.26724,0.70011 0.1,0.16179 0.47244,0.29416 0.82765,0.29416 0.63307,0 0.64584,0.0436 0.64584,2.20486 0,2.24946 0.085,2.55764 0.70556,2.55764 0.26766,0 0.35278,-0.57034 0.35278,-2.36368 z m 22.32898,1.94516 c 0.0883,-0.23018 0.1606,-1.292 0.1606,-2.35961 0,-2.17252 -0.15036,-2.77812 -0.68977,-2.77812 -0.29163,0 -0.36856,0.5799 -0.36856,2.77812 0,2.19823 0.0769,2.77813 0.36856,2.77813 0.20272,0 0.44084,-0.18833 0.52917,-0.41852 z m 22.51789,-2.36323 c 0,-2.17224 -0.0706,-2.64221 -0.39687,-2.64221 -0.32229,0 -0.41109,0.5137 -0.47251,2.73321 -0.0693,2.5037 -0.036,2.72556 0.39687,2.64221 0.41601,-0.0801 0.47251,-0.40696 0.47251,-2.73321 z m 3.51579,0.34798 c 0.0756,-2.27795 0.0817,-2.29616 0.79375,-2.37827 0.42465,-0.049 0.71755,-0.24475 0.71755,-0.47963 0,-0.3175 -0.39688,-0.39687 -1.98438,-0.39687 -1.56017,0 -1.98437,0.0823 -1.98437,0.38495 0,0.21172 0.29765,0.45491 0.66145,0.54043 0.63574,0.14944 0.66444,0.24576 0.73816,2.47669 0.0669,2.02424 0.13459,2.31014 0.52917,2.23471 0.3782,-0.0723 0.46497,-0.46326 0.52867,-2.38201 z m 5.08317,1.30576 c 0,-0.85085 0.22754,-1.46589 0.92604,-2.50311 0.50933,-0.7563 0.92604,-1.49885 0.92604,-1.65011 0,-0.63878 -0.83757,-0.19746 -1.48661,0.78331 -0.3852,0.58209 -0.78779,1.05834 -0.89464,1.05834 -0.10684,0 -0.50943,-0.47625 -0.89463,-1.05834 -0.65814,-0.99451 -1.48662,-1.41975 -1.48662,-0.76305 0,0.16241 0.41672,0.86297 0.92605,1.5568 0.68906,0.9387 0.92604,1.52893 0.92604,2.30646 0,1.11451 0.14295,1.39771 0.70555,1.39771 0.23882,0 0.35278,-0.36439 0.35278,-1.12801 z M 39.35095,293.67644 c 0.404833,-0.29993 1.003953,-0.93894 1.331375,-1.42002 0.553244,-0.81288 0.595313,-1.16047 0.595313,-4.91878 0,-3.81171 -0.03041,-4.05373 -0.529167,-4.21204 -0.291042,-0.0924 -0.767292,-0.0924 -1.058333,0 -0.494697,0.15701 -0.529167,0.40033 -0.529167,3.73514 0,2.65504 -0.101592,3.76364 -0.397298,4.33548 -0.495348,0.95789 -1.841021,1.39196 -3.174153,1.02386 -1.465233,-0.40457 -1.720216,-1.19897 -1.720216,-5.35934 0,-3.33481 -0.03447,-3.57813 -0.529166,-3.73514 -0.291042,-0.0924 -0.767292,-0.0924 -1.058334,0 -0.496819,0.15769 -0.529166,0.40033 -0.529166,3.96936 0,2.09077 0.126993,4.13658 0.282207,4.54623 0.37264,0.9835 1.25153,1.91693 2.231334,2.36979 1.189336,0.54971 4.15457,0.35461 5.084771,-0.33454 z m 11.632901,0.41315 c 0.759007,-0.28616 2.46462,-1.77144 2.46462,-2.14625 0,-0.11362 -0.299511,-0.40282 -0.665578,-0.64268 -0.638395,-0.41829 -0.710089,-0.40526 -1.7555,0.31921 -2.60242,1.80348 -5.752409,-0.11111 -5.427657,-3.29897 0.290896,-2.85552 3.199416,-4.29676 5.444696,-2.69798 0.893012,0.63588 1.327555,0.67818 1.990093,0.19372 0.679641,-0.49697 0.198125,-1.29447 -1.318051,-2.18301 -1.048448,-0.61443 -1.415373,-0.68664 -3.026439,-0.59561 -2.234838,0.12628 -3.721529,1.03273 -4.700146,2.86571 -0.535897,1.00375 -0.621641,1.48559 -0.546303,3.06991 0.07365,1.54881 0.222014,2.07071 0.843703,2.9678 1.367443,1.97323 4.497398,2.97726 6.696562,2.14815 z m 102.945029,-0.1287 c 2.01606,-0.84236 2.75774,-2.15179 1.53449,-2.70914 -0.53086,-0.24188 -0.76204,-0.19986 -1.32144,0.24017 -1.56117,1.22801 -3.42976,1.11491 -4.77479,-0.28899 -0.99742,-1.04109 -1.21439,-3.12896 -0.46607,-4.48501 1.004,-1.81937 3.56128,-2.38978 4.93369,-1.10046 0.60094,0.56455 1.11646,0.67309 1.85353,0.39025 0.63322,-0.24299 0.50315,-0.98257 -0.30909,-1.75744 -0.96636,-0.9219 -1.931,-1.25817 -3.5891,-1.25115 -4.36248,0.0185 -6.94961,4.45303 -4.93609,8.46086 0.59214,1.17864 1.1653,1.69063 2.64297,2.36089 1.42219,0.6451 3.09648,0.698 4.4319,0.14002 z M 28.736388,293.20623 c 1.155303,-1.1553 1.246502,-2.61628 0.238125,-3.81466 -0.665432,-0.79083 -0.851385,-1.37117 -0.439345,-1.37117 0.357557,0 0.83622,-1.27404 0.83622,-2.22573 0,-1.15354 -0.844515,-2.18789 -2.062556,-2.52618 -0.539084,-0.14973 -2.136823,-0.27289 -3.550531,-0.2737 -2.271332,-0.001 -2.602244,0.0581 -2.844271,0.5103 -0.291896,0.54541 -0.391067,9.45834 -0.113293,10.18221 0.135043,0.35192 0.707645,0.41851 3.598333,0.41851 h 3.437734 z m -5.715,-2.27542 v -1.32291 h 1.83708 c 1.59845,0 1.890582,0.0764 2.248958,0.58804 0.530049,0.75674 0.519699,0.89164 -0.117288,1.52862 -0.42062,0.42062 -0.881945,0.52917 -2.248959,0.52917 h -1.719791 z m 0,-4.6302 v -1.19063 h 1.700892 c 1.72323,0 2.532441,0.38045 2.532441,1.19063 0,0.81017 -0.809211,1.19062 -2.532441,1.19062 h -1.700892 z m 34.33268,6.34999 c 0.170177,-3.25618 0.590991,-3.35568 2.722861,-0.6438 1.610334,2.04845 1.677845,2.09901 2.80248,2.09901 0.633817,0 1.152395,-0.11454 1.152395,-0.25454 0,-0.13999 -0.869032,-1.30085 -1.93118,-2.57968 -1.062149,-1.27884 -2.022377,-2.47512 -2.133844,-2.65841 -0.204261,-0.33588 -0.02085,-0.59183 2.592957,-3.61849 1.047038,-1.21242 1.230691,-1.56004 0.926041,-1.75281 -1.164553,-0.73689 -2.128681,-0.10987 -4.601442,2.99258 -0.550932,0.69122 -1.106414,1.25677 -1.234403,1.25677 -0.127993,0 -0.232712,-0.94448 -0.232712,-2.09884 0,-1.86646 -0.05859,-2.11743 -0.529167,-2.26679 -0.291041,-0.0924 -0.767291,-0.0924 -1.058333,0 -0.505653,0.16049 -0.529167,0.40033 -0.529167,5.3977 0,2.87635 0.08502,5.31475 0.188929,5.41866 0.10391,0.10391 0.550394,0.15352 0.992187,0.11025 0.766252,-0.0751 0.806445,-0.13964 0.872398,-1.40161 z m 16.079739,1.17559 c 0.09505,-0.15379 0.100883,-0.56621 0.01296,-0.91649 -0.153429,-0.61131 -0.263292,-0.63991 -2.736887,-0.71257 l -2.577039,-0.0757 -0.08025,-1.24702 -0.08024,-1.24702 2.593784,-0.0759 2.593787,-0.0759 v -0.92604 -0.92604 l -2.579687,-0.0757 -2.579688,-0.0757 v -1.17146 -1.17147 l 2.55161,-0.0757 c 2.08938,-0.062 2.604379,-0.1596 2.842916,-0.53874 0.212109,-0.33714 0.211903,-0.58891 -7.93e-4,-0.92604 -0.254447,-0.40339 -0.748435,-0.46302 -3.835107,-0.46302 h -3.543038 l -0.07151,5.4901 -0.07151,5.4901 h 3.693919 c 2.309649,0 3.758682,-0.10478 3.866737,-0.27962 z m 7.309459,-2.03548 0.09536,-2.31511 1.935499,-2.8655 c 1.073721,-1.58964 1.871318,-3.03275 1.791351,-3.24114 -0.226547,-0.59037 -1.588098,-0.45307 -2.178259,0.21967 -0.287235,0.32742 -0.96405,1.27992 -1.504032,2.11666 -0.539983,0.83675 -1.087311,1.52136 -1.216282,1.52136 -0.128971,0 -0.78328,-0.88049 -1.45402,-1.95665 -1.191721,-1.91204 -1.596636,-2.28088 -2.494907,-2.27264 -1.314093,0.0121 -1.217809,0.41806 0.842065,3.55056 l 2.023846,3.07771 v 2.0637 c 0,1.13504 0.07937,2.14308 0.176389,2.24009 0.09701,0.097 0.561417,0.17639 1.032008,0.17639 h 0.855617 z m 13.137073,1.45521 -0.08291,-0.8599 -2.645833,-0.13229 -2.645833,-0.13229 v -1.19063 -1.19062 l 2.48594,-0.13229 c 1.98556,-0.10567 2.544479,-0.22549 2.77677,-0.59532 0.211389,-0.33654 0.211389,-0.5895 0,-0.92604 -0.232291,-0.36982 -0.79121,-0.48965 -2.77677,-0.59531 l -2.48594,-0.13229 v -1.05833 -1.05834 l 2.645833,-0.13229 2.645833,-0.13229 0.08733,-0.76504 c 0.0496,-0.43453 -0.0647,-0.86142 -0.264583,-0.98814 -0.565555,-0.35853 -6.675888,-0.28368 -7.045876,0.0863 -0.343058,0.34306 -0.475173,10.28455 -0.14111,10.61861 0.09701,0.097 1.830962,0.17639 3.853222,0.17639 h 3.676833 z m 14.628071,-4.43177 c 1.43926,-3.65775 1.95241,-5.25564 1.76312,-5.49011 -0.30955,-0.3834 -1.22593,-0.42829 -1.76584,-0.0865 -0.20515,0.12986 -0.98793,1.87725 -1.73953,3.88308 -0.7516,2.00583 -1.4919,3.68875 -1.64512,3.73982 -0.15322,0.0511 -0.83563,-1.43024 -1.51646,-3.29182 -0.68082,-1.86157 -1.41253,-3.65257 -1.626,-3.97999 -0.44964,-0.68965 -1.88919,-0.83209 -2.127701,-0.21055 -0.146066,0.38064 3.397831,9.74709 3.938631,10.40975 0.17528,0.21476 0.73159,0.31391 1.48454,0.26458 l 1.20423,-0.0789 z m 11.03651,4.43177 -0.0829,-0.8599 -2.57968,-0.0757 -2.57969,-0.0757 v -1.31334 -1.31333 h 2.22732 c 2.73078,0 3.06434,-0.11521 3.06434,-1.05834 0,-0.94313 -0.33356,-1.05833 -3.06434,-1.05833 h -2.22732 v -1.18104 -1.18105 l 2.57969,-0.0757 2.57968,-0.0757 v -0.92604 -0.92605 l -3.40268,-0.0743 c -2.28302,-0.0498 -3.52366,0.0261 -3.77031,0.23083 -0.29044,0.24104 -0.36763,1.37237 -0.36763,5.38799 0,2.79558 0.0794,5.16225 0.17639,5.25926 0.097,0.097 1.83096,0.17639 3.85322,0.17639 h 3.67683 z m 4.3867,0.44138 c 0.0883,-0.23018 0.1606,-1.12315 0.1606,-1.98438 0,-1.5454 0.01,-1.56586 0.7546,-1.56586 0.65317,0 0.91125,0.25782 1.92014,1.91823 1.12584,1.85288 1.2038,1.921 2.28811,1.99959 0.67884,0.0492 1.12257,-0.0318 1.12257,-0.20492 0,-0.15746 -0.49256,-1.06619 -1.09457,-2.01941 l -1.09457,-1.73313 0.94282,-0.77715 c 2.28687,-1.88503 1.64233,-5.26587 -1.15696,-6.06869 -1.2943,-0.3712 -5.35734,-0.32931 -5.74589,0.0592 -0.34306,0.34306 -0.47517,10.28455 -0.14111,10.61861 0.3589,0.35891 1.88289,0.1784 2.04426,-0.24212 z m 0.35904,-5.55318 c -0.10914,-0.11106 -0.19844,-0.83692 -0.19844,-1.61303 v -1.41111 h 1.54649 c 1.66365,0 2.42226,0.46715 2.42226,1.49162 0,1.01336 -0.6377,1.49471 -2.14316,1.61771 -0.78579,0.0642 -1.51801,0.0259 -1.62715,-0.0852 z m 12.70634,1.42065 0.0725,-4.41876 1.51502,-0.0792 c 1.49342,-0.078 1.51618,-0.0913 1.59725,-0.92998 0.10717,-1.10886 -0.17759,-1.17437 -4.68409,-1.07746 -3.03541,0.0653 -3.58533,0.14259 -3.83511,0.53922 -0.51624,0.81977 0.11192,1.37864 1.65119,1.46903 l 1.36181,0.08 v 4.06558 c 0,2.23607 0.0747,4.26019 0.16596,4.49805 0.12023,0.31331 0.43008,0.41041 1.12448,0.35237 l 0.95852,-0.0801 z m 7.14288,-0.76983 c 0.0782,-5.66851 -0.0103,-6.03039 -1.3911,-5.68384 l -0.66489,0.16688 v 5.43489 5.43489 l 0.99219,-0.0821 0.99218,-0.0821 z m 15.55585,4.39483 0.38693,-0.92604 h 2.3912 2.3912 l 0.38692,0.92604 c 0.35046,0.83877 0.48633,0.92604 1.44171,0.92604 0.83143,0 1.05297,-0.098 1.04621,-0.46302 -0.005,-0.25466 -0.87304,-2.66461 -1.92962,-5.35544 -1.68833,-4.29977 -2.0078,-4.92294 -2.63726,-5.14431 -0.45015,-0.15831 -0.97516,-0.15919 -1.41326,-0.002 -0.60504,0.21658 -0.95426,0.90692 -2.64583,5.23039 -1.07184,2.73948 -1.94879,5.15049 -1.94879,5.35781 0,0.26417 0.32067,0.37694 1.07183,0.37694 0.97487,0 1.10684,-0.0838 1.45876,-0.92604 z m 1.17357,-3.23553 c 0,-0.585 1.42102,-3.78732 1.64715,-3.71195 0.24964,0.0832 1.52785,3.15558 1.52785,3.6724 0,0.1278 -0.71437,0.23237 -1.5875,0.23237 -0.87312,0 -1.5875,-0.0868 -1.5875,-0.19282 z m 15.41267,3.66999 c 0.2818,-1.0776 -0.22893,-1.3605 -2.45619,-1.3605 -2.52863,0 -2.3519,0.37349 -2.4413,-5.15938 -0.0634,-3.92073 -0.0715,-3.96979 -0.67401,-4.0552 -1.29013,-0.18289 -1.3745,0.16275 -1.3745,5.63101 0,2.79558 0.0794,5.16225 0.17639,5.25926 0.097,0.097 1.63094,0.17639 3.40873,0.17639 2.92745,0 3.24446,-0.0464 3.36088,-0.49158 z M 88.68406,244.87635 c 3.427571,-1.26378 3.209639,-0.74394 3.094884,-7.38241 l -0.09818,-5.67958 2.38125,-0.44866 c 1.309687,-0.24676 3.317004,-0.70807 4.460703,-1.02513 1.143698,-0.31706 2.168383,-0.47639 2.277083,-0.35405 0.10871,0.12233 0.87706,3.04177 1.70746,6.48765 0.90645,3.76144 1.67338,6.40097 1.91909,6.60489 0.33675,0.27948 0.81425,0.23547 2.69538,-0.24844 3.20274,-0.82389 5.17371,-1.8419 5.27632,-2.72523 0.0818,-0.70411 -1.12635,-5.79216 -2.74224,-11.54881 -0.50018,-1.78191 -0.90942,-3.4578 -0.90942,-3.72419 0,-0.76958 1.01497,-1.52713 3.7727,-2.81582 1.91813,-0.89635 2.88803,-1.20044 3.82975,-1.20075 1.46662,-5.3e-4 2.86035,-0.63191 3.58855,-1.62579 0.49832,-0.68012 0.49926,-0.72343 0.0327,-1.51322 -0.26415,-0.44718 -0.42701,-0.85779 -0.3619,-0.91248 0.0651,-0.0547 2.85682,-1.26847 6.2038,-2.6973 24.75802,-10.56924 43.24621,-21.87653 46.52376,-28.45371 1.01925,-2.04538 0.96515,-3.48298 -0.17395,-4.62208 -1.48684,-1.48683 -3.14342,-1.79916 -8.75609,-1.65084 -6.80475,0.17983 -7.22592,0.5977 -0.60241,0.5977 6.0611,0 7.88228,0.33802 8.92234,1.656 2.84986,3.61136 -6.28152,11.45307 -24.4824,21.02463 -2.47385,1.30096 -4.79557,2.52838 -5.15937,2.72759 -1.77195,0.97027 -14.50815,6.64366 -19.91218,8.86995 l -3.11114,1.28169 -0.6687,-1.31963 c -0.78393,-1.54699 -1.63903,-2.06567 -2.64777,-1.60606 -0.9622,0.43841 -1.49666,1.87986 -1.28595,3.46827 l 0.17107,1.28952 -1.42007,0.42432 c -1.86798,0.55815 -26.867421,2.13879 -27.360105,1.7299 -0.180165,-0.14952 -0.598458,-0.9962 -0.929539,-1.88151 -0.957233,-2.55962 -2.065996,-3.20415 -3.530396,-2.05225 l -0.705726,0.55512 0.120256,3.08086 c 0.138398,3.54563 0.226377,3.68106 2.581026,3.97298 0.755499,0.0937 1.419294,0.30781 1.475102,0.4759 0.05581,0.16808 -1.232286,1.10921 -2.862432,2.09139 -2.782472,1.67647 -2.985553,1.75617 -3.317599,1.30207 -0.194535,-0.26604 -0.427271,-0.87587 -0.517189,-1.35518 -0.19236,-1.02536 -1.204651,-2.21331 -1.88113,-2.20755 -1.238387,0.0106 -1.769297,1.14936 -1.521057,3.26269 0.105182,0.89543 0.204832,2.15791 0.221445,2.8055 l 0.03021,1.17745 -5.057217,1.38143 c -23.383571,6.38747 -42.049755,8.55833 -47.360141,5.50794 -1.347842,-0.77423 -1.833068,-1.84625 -1.789052,-3.9526 0.06807,-3.25751 1.955851,-6.57862 6.015768,-10.58333 2.906176,-2.86666 5.59469,-4.92401 9.686709,-7.41262 3.485918,-2.12001 3.645034,-2.38388 0.403933,-0.66987 -8.252365,4.36414 -14.841815,10.663 -16.561742,15.83138 -0.720935,2.16641 -0.620221,5.23679 0.208543,6.35764 2.630428,3.5575 12.944816,3.84234 29.714657,0.8206 5.954107,-1.07287 17.283507,-3.80527 25.778928,-6.2173 4.611106,-1.30919 6.389315,-1.70389 7.408334,-1.64438 l 1.340863,0.0783 0.191624,3.57187 c 0.485728,9.05393 0.818037,11.90625 1.387134,11.90625 0.05771,0 1.094383,-0.36482 2.303706,-0.81071 z m -1.524839,-4.15022 c -0.285218,-3.24603 -0.22757,-9.84266 0.08878,-10.15901 0.4225,-0.4225 2.139251,0.42742 2.314273,1.14574 0.19589,0.80396 0.630029,10.04883 0.489136,10.416 -0.120354,0.31364 -1.608887,0.91237 -2.268281,0.91237 -0.336722,0 -0.461008,-0.46118 -0.623904,-2.3151 z m 17.919039,-0.1323 c -0.1185,-0.32742 -0.8504,-3.07184 -1.62644,-6.09872 -1.40462,-5.47858 -1.40864,-5.50577 -0.88889,-6.02551 0.56252,-0.56253 2.77871,-0.95564 3.85896,-0.68451 0.36014,0.0904 0.86798,0.58687 1.18522,1.15871 1.05594,1.90339 3.16427,9.44591 2.94794,10.54614 -0.0616,0.3131 -0.73916,0.64162 -2.20554,1.06929 -2.64367,0.77103 -3.00335,0.77484 -3.27125,0.0346 z M 75.031433,222.12671 c 1.934636,-0.4144 2.463157,-0.78197 0.724104,-0.50359 -1.450147,0.23213 -4.230431,1.22283 -4.455999,1.5878 -0.08286,0.13408 0.370099,0.0206 1.006578,-0.25228 0.636479,-0.27282 1.862873,-0.64719 2.725317,-0.83193 z m -1.412454,-3.57295 c -0.566629,-2.96412 12.86592,-7.1204 16.698031,-5.16668 0.585494,0.2985 0.957048,0.38041 0.900084,0.19843 -0.05336,-0.17045 -0.506638,-0.52549 -1.007296,-0.78898 -0.775292,-0.40803 -1.381127,-0.46158 -4.085285,-0.36113 -1.74625,0.0649 -3.831601,0.3014 -4.634111,0.52564 -5.367137,1.49969 -9.076397,4.09756 -8.196903,5.74091 0.379471,0.70905 0.480552,0.66302 0.32548,-0.14819 z m 33.828771,-3.51299 c -0.51027,-0.95344 0.53311,-2.03604 3.20625,-3.32675 3.32511,-1.60552 6.23421,-2.32313 10.04491,-2.47785 3.05512,-0.12404 3.09658,-0.11781 3.78234,0.56795 0.82778,0.82778 1.05466,0.88425 0.67077,0.16693 -1.24437,-2.32513 -9.152,-1.80437 -14.62919,0.96342 -1.47051,0.74309 -3.27117,2.29348 -3.49959,3.01318 -0.14582,0.45942 0.24476,1.57691 0.55114,1.57691 0.0728,0 0.0158,-0.2177 -0.12663,-0.48379 z"
         id="path924" />
      <path
         style="fill:#090709;stroke-width:0.264583"
         d="m 12.438054,236.69123 v -85.725 h 85.592709 85.592707 v 85.725 85.725 H 98.030763 12.438054 Z m 24.232548,67.07187 c 0.430483,-0.46449 0.890707,-0.66145 1.545594,-0.66145 0.702784,0 1.039369,0.16298 1.365981,0.66145 0.519748,0.79324 1.166294,0.86759 1.166294,0.13412 0,-0.87037 -1.859261,-5.23963 -2.301914,-5.40949 -0.659221,-0.25297 -1.033599,0.25932 -2.055642,2.81288 -1.174394,2.9342 -1.063373,3.91168 0.279687,2.46249 z m 0.638286,-1.86522 c 0,-0.08 0.192205,-0.51711 0.427122,-0.97139 0.446992,-0.86439 0.616608,-0.77715 1.01391,0.52151 0.161398,0.52756 0.08976,0.59531 -0.629453,0.59531 -0.446369,0 -0.811579,-0.0654 -0.811579,-0.14543 z m 6.085416,0.003 c 0.126199,-2.24109 0.162756,-2.35643 0.79375,-2.50446 0.363802,-0.0853 0.661459,-0.3284 0.661459,-0.54011 0,-0.3048 -0.440727,-0.38495 -2.116667,-0.38495 -1.705091,0 -2.116667,0.0772 -2.116667,0.39687 0,0.23627 0.294442,0.43076 0.727604,0.4806 0.721625,0.083 0.727605,0.10002 0.727605,2.06791 0,3.75069 1.115975,4.1591 1.322916,0.48414 z m 6.879167,-0.009 0.132292,-2.35859 0.79375,-0.13654 c 0.465756,-0.0801 0.79375,-0.29946 0.79375,-0.53082 0,-0.3164 -0.417362,-0.39428 -2.113042,-0.39428 -1.767446,0 -2.127028,0.0726 -2.198537,0.44393 -0.06092,0.31633 0.128178,0.46843 0.657834,0.52917 0.738745,0.0847 0.743767,0.0983 0.814694,2.2019 0.08137,2.41345 0.191013,2.86664 0.656378,2.71297 0.21748,-0.0718 0.375852,-0.91613 0.462881,-2.46774 z m 3.38859,1.2568 c 0.08877,-1.20397 0.54841,-1.49808 2.069545,-1.32425 0.687255,0.0785 0.77217,0.20017 0.891865,1.27743 0.09146,0.82315 0.254783,1.19063 0.529167,1.19063 0.321005,0 0.411461,-0.50219 0.473173,-2.627 0.04196,-1.44485 0.0108,-2.79771 -0.06928,-3.00636 -0.25804,-0.67242 -0.933064,0.18246 -0.933064,1.18169 v 0.90747 l -1.389063,-0.08 -1.389062,-0.08 -0.08212,-0.99218 c -0.06433,-0.77728 -0.193273,-0.99219 -0.595312,-0.99219 -0.474761,0 -0.513194,0.20475 -0.513194,2.73403 0,1.50371 0.08185,2.81588 0.181901,2.91593 0.402217,0.40221 0.748482,-0.0614 0.825439,-1.10522 z m 8.914535,0.74696 c 0,-0.28223 -0.382175,-0.43509 -1.322917,-0.52917 -1.199443,-0.11994 -1.322916,-0.19403 -1.322916,-0.79375 0,-0.58274 0.125941,-0.67043 1.058333,-0.73686 1.578591,-0.11247 1.847284,-0.24593 1.45261,-0.72148 -0.199673,-0.24059 -0.784452,-0.39374 -1.50341,-0.39374 -1.068869,0 -1.168887,-0.0545 -1.092081,-0.59532 0.07172,-0.50497 0.285303,-0.61538 1.407464,-0.7276 0.940742,-0.0941 1.322917,-0.24694 1.322917,-0.52917 0,-0.31498 -0.382175,-0.39687 -1.852083,-0.39687 h -1.852084 l -0.0763,2.627 c -0.04196,1.44485 -0.01384,2.78978 0.06251,2.98873 0.207904,0.54179 3.717951,0.36074 3.717951,-0.19177 z m 7.708096,0.0603 c 0.814824,-0.66003 1.155446,-1.46045 1.155446,-2.71516 0,-0.90069 -0.164457,-1.26664 -0.899584,-2.00177 -2.261409,-2.26141 -5.765075,-0.0646 -4.91744,3.08331 0.37614,1.39688 1.346174,2.10401 2.876143,2.09664 0.755348,-0.004 1.436338,-0.18024 1.785435,-0.46302 z m -3.195177,-1.17747 c -0.982367,-1.40253 -0.150884,-3.38071 1.421003,-3.38071 0.858845,0 1.871286,1.03077 1.871286,1.90516 0,0.59181 -0.477178,1.57911 -0.899504,1.8611 -0.634288,0.42353 -1.977704,0.20706 -2.392785,-0.38555 z m 6.202706,0.30291 0.132292,-1.17008 h 1.322916 1.322917 l 0.132292,1.19063 c 0.09146,0.82314 0.254783,1.19062 0.529166,1.19062 0.323509,0 0.410758,-0.52579 0.471972,-2.84427 0.07151,-2.70827 0.04937,-2.84427 -0.463021,-2.84427 -0.451416,0 -0.538117,0.17052 -0.538117,1.05833 v 1.05834 h -1.455209 -1.455208 v -1.05834 c 0,-0.88194 -0.08819,-1.05833 -0.529167,-1.05833 -0.495027,0 -0.529166,0.17639 -0.529166,2.73403 0,1.50371 0.08185,2.81588 0.181901,2.91593 0.402407,0.4024 0.751107,-0.0641 0.876432,-1.17259 z m 6.029018,-1.5668 c 0.05437,-1.95953 -0.01707,-2.79245 -0.251949,-2.93762 -0.180317,-0.11144 -0.422826,-0.14392 -0.538914,-0.0722 -0.257424,0.1591 -0.284491,5.49386 -0.02917,5.74918 0.527794,0.52779 0.749967,-0.2144 0.820034,-2.73939 z m 5.515536,2.44136 c 0.814824,-0.66003 1.155446,-1.46045 1.155446,-2.71516 0,-1.50574 -1.329931,-2.90135 -2.764806,-2.90135 -1.716601,0 -2.956682,1.0136 -3.075165,2.51354 -0.113262,1.43387 0.06801,2.07395 0.792536,2.79848 0.643771,0.64377 0.987451,0.77241 2.050521,0.76751 0.808545,-0.004 1.48418,-0.17361 1.841468,-0.46302 z m -3.195177,-1.17747 c -0.982366,-1.40253 -0.150884,-3.38071 1.421003,-3.38071 0.858845,0 1.871287,1.03077 1.871287,1.90516 0,0.59181 -0.477179,1.57911 -0.899504,1.8611 -0.634289,0.42353 -1.977705,0.20706 -2.392786,-0.38555 z m 10.920807,1.22436 c 0.474022,-0.33202 0.585319,-0.62825 0.521893,-1.38906 -0.07367,-0.88364 -0.206134,-1.02818 -1.535827,-1.67578 -1.89666,-0.92372 -1.921327,-1.42728 -0.06615,-1.3503 1.056148,0.0438 1.389063,-0.0332 1.389063,-0.32141 0,-0.9103 -2.323143,-1.25573 -3.395184,-0.50484 -0.889812,0.62325 -0.720243,2.2095 0.286329,2.67853 0.400183,0.18647 1.055027,0.49243 1.455209,0.67991 0.400182,0.18748 0.727604,0.51491 0.727604,0.72761 0,0.48898 -1.489205,0.66104 -2.240658,0.25888 -0.441534,-0.2363 -0.57793,-0.20686 -0.716675,0.1547 -0.402145,1.04798 2.328252,1.61459 3.574392,0.74176 z m 3.748566,-2.11254 c 0.131932,-2.3538 0.134318,-2.36047 0.87562,-2.44548 0.529656,-0.0607 0.718751,-0.21284 0.657834,-0.52916 -0.07093,-0.36829 -0.422392,-0.44393 -2.062621,-0.44393 -1.640228,0 -1.991696,0.0756 -2.06262,0.44393 -0.06092,0.31632 0.128178,0.46843 0.657834,0.52916 0.738745,0.0847 0.743767,0.0983 0.814694,2.20191 0.08137,2.41344 0.191013,2.86663 0.656378,2.71297 0.217514,-0.0718 0.375838,-0.91646 0.462881,-2.4694 z m 2.596369,1.87309 c 0.80993,-0.9315 2.1829,-0.90562 3.0764,0.058 0.49977,0.53897 0.74284,0.6437 0.96905,0.41749 0.22621,-0.22621 0.0497,-0.93935 -0.7038,-2.84306 -1.08882,-2.75099 -1.50532,-3.31172 -2.15532,-2.90171 -0.487065,0.30724 -2.534659,5.33096 -2.316614,5.68377 0.243002,0.39318 0.514644,0.29357 1.130284,-0.41448 z m 0.843214,-1.96715 c 0,-0.13604 0.127958,-0.58253 0.284346,-0.99218 0.27426,-0.71839 0.29774,-0.7266 0.66146,-0.23124 0.60402,0.82262 0.47871,1.47078 -0.28435,1.47078 -0.3638,0 -0.661456,-0.11131 -0.661456,-0.24736 z m 5.820836,0.0941 c 0.1312,-2.34085 0.13827,-2.36093 0.85989,-2.44396 0.51998,-0.0598 0.72761,-0.23288 0.72761,-0.60644 0,-0.4822 -0.15873,-0.51673 -2.04766,-0.44545 -1.66818,0.063 -2.06335,0.15955 -2.13238,0.52121 -0.0603,0.31609 0.12931,0.46847 0.65858,0.52916 0.73875,0.0847 0.74377,0.0983 0.8147,2.20191 0.0814,2.41344 0.19101,2.86663 0.65638,2.71297 0.21751,-0.0718 0.37584,-0.91646 0.46288,-2.4694 z m 6.21771,2.00539 c 0,-0.28223 -0.38218,-0.43509 -1.32292,-0.52917 -1.19944,-0.11994 -1.32292,-0.19403 -1.32292,-0.79375 0,-0.59806 0.12484,-0.67414 1.3024,-0.79375 2.15185,-0.21857 1.84031,-0.90337 -0.50865,-1.11807 -0.59317,-0.0542 -0.79375,-0.20627 -0.79375,-0.60172 0,-0.44097 0.22049,-0.55122 1.32292,-0.66146 0.94074,-0.0941 1.32292,-0.24694 1.32292,-0.52917 0,-0.31498 -0.38218,-0.39687 -1.85209,-0.39687 h -1.85208 l -0.0763,2.627 c -0.042,1.44485 -0.0138,2.78978 0.0625,2.98873 0.20791,0.54179 3.71796,0.36074 3.71796,-0.19177 z m 7.50688,-0.0964 c 1.14605,-1.21991 1.035,-6.13606 -0.117,-5.17998 -0.26386,0.21898 -0.37843,0.88901 -0.37843,2.21313 0,2.07213 -0.24115,2.53406 -1.32291,2.53406 -1.08177,0 -1.32292,-0.46193 -1.32292,-2.53406 0,-1.32412 -0.11457,-1.99415 -0.37842,-2.21313 -0.65029,-0.53969 -1.02745,0.61279 -0.8791,2.68621 0.17012,2.37761 0.78369,3.11931 2.58044,3.11931 0.95178,0 1.36385,-0.14176 1.81834,-0.62554 z m 2.62605,-1.18139 c 0.0433,-0.89796 0.18614,-1.63265 0.31736,-1.63265 0.13123,0 0.79506,0.77981 1.47518,1.73291 1.77667,2.48979 2.07774,2.31337 2.17254,-1.27303 0.0715,-2.70511 0.0493,-2.84113 -0.46302,-2.84113 -0.48131,0 -0.53812,0.16759 -0.53812,1.5875 0,0.87312 -0.11251,1.5875 -0.25002,1.5875 -0.13751,0 -0.73958,-0.68365 -1.33792,-1.51923 -1.14537,-1.5995 -1.68494,-2.05461 -2.11832,-1.78677 -0.29339,0.18133 -0.36745,5.49409 -0.0806,5.78096 0.45469,0.45468 0.75041,-0.13325 0.82291,-1.63606 z m 6.0827,-0.95359 c 0.0734,-2.49391 -0.17903,-3.53776 -0.76749,-3.17407 -0.27359,0.16909 -0.32229,5.49413 -0.0527,5.76372 0.51985,0.51985 0.75011,-0.20715 0.82019,-2.58965 z m 4.92456,0.0782 c 0.99724,-2.46452 1.10962,-3.54826 0.33721,-3.25186 -0.20392,0.0782 -0.6952,0.96921 -1.09173,1.97991 -0.39654,1.01071 -0.81071,1.83765 -0.92038,1.83765 -0.10967,0 -0.52237,-0.8232 -0.91711,-1.82932 -0.71131,-1.81301 -1.36221,-2.49634 -1.65387,-1.73628 -0.0832,0.21683 0.23786,1.37568 0.71348,2.57523 1.21898,3.07431 1.26683,3.15037 1.92313,3.05694 0.45856,-0.0653 0.7898,-0.60709 1.60927,-2.63227 z m 5.40131,2.21934 c -0.0665,-0.34994 -0.3982,-0.48287 -1.35843,-0.54432 -1.2069,-0.0772 -1.26639,-0.11697 -1.18825,-0.79375 0.0751,-0.64997 0.19391,-0.71958 1.35551,-0.79376 1.02935,-0.0657 1.25697,-0.16711 1.18824,-0.52917 -0.0629,-0.33123 -0.41164,-0.46885 -1.33939,-0.52849 -1.13215,-0.0728 -1.25439,-0.1437 -1.25439,-0.72761 0,-0.60121 0.0949,-0.64696 1.34231,-0.64696 1.13558,0 1.32875,-0.0713 1.25421,-0.46302 -0.0697,-0.36625 -0.41021,-0.47974 -1.62923,-0.54304 -2.14729,-0.11149 -2.29021,0.0676 -2.29021,2.8689 0,1.27997 0.0723,2.51555 0.1606,2.74573 0.12518,0.32621 0.56712,0.41851 2.00377,0.41851 1.61252,0 1.83218,-0.0579 1.75526,-0.46302 z m 2.00519,0.0445 c 0.0883,-0.23018 0.1606,-0.70643 0.1606,-1.05834 0,-0.97572 0.69307,-0.78061 1.48661,0.41852 1.06146,1.60397 2.11536,1.37127 1.12975,-0.24945 l -0.53122,-0.87351 0.54493,-0.58005 c 0.30935,-0.32929 0.54493,-0.93626 0.54493,-1.404 0,-1.39906 -1.04657,-2.03778 -3.06793,-1.87234 l -1.03311,0.0846 -0.0763,2.627 c -0.042,1.44485 -0.0159,2.7843 0.0578,2.97656 0.18266,0.47601 0.58847,0.44032 0.7839,-0.0689 z m 0.33699,-2.93288 c -0.097,-0.097 -0.17639,-0.52127 -0.17639,-0.9428 0,-0.7008 0.0713,-0.75932 0.83321,-0.68351 1.11256,0.11071 1.61055,0.89529 0.90216,1.42132 -0.54379,0.40381 -1.2653,0.49868 -1.55898,0.20499 z m 7.45212,2.92938 c 0.47403,-0.33202 0.58532,-0.62825 0.5219,-1.38906 -0.0742,-0.88991 -0.20199,-1.02588 -1.60197,-1.70444 -0.83675,-0.40556 -1.52136,-0.85578 -1.52136,-1.00049 0,-0.45671 0.80658,-0.59593 1.75901,-0.30362 0.76459,0.23466 0.94542,0.2123 1.07804,-0.13331 0.38613,-1.00624 -2.13094,-1.54459 -3.32182,-0.71047 -0.88981,0.62325 -0.72024,2.2095 0.28633,2.67853 0.40019,0.18647 1.05503,0.49243 1.45521,0.67991 0.40018,0.18748 0.72761,0.51491 0.72761,0.72761 0,0.47909 -1.48312,0.6643 -2.20895,0.27585 -0.38196,-0.20442 -0.59179,-0.18068 -0.81859,0.0926 -0.80157,0.96583 2.40171,1.65744 3.64459,0.78689 z m 2.36846,-2.57607 c 0.0715,-2.68663 0.0491,-2.82275 -0.46302,-2.82275 -0.50638,0 -0.53812,0.16123 -0.53812,2.73403 0,1.50371 0.0819,2.81588 0.1819,2.91593 0.53231,0.5323 0.74983,-0.21839 0.81924,-2.82721 z m 3.44111,0.51701 c 0.0504,-1.51629 0.18631,-2.3396 0.39688,-2.40394 1.5224,-0.46525 1.66554,-0.41769 2.57834,0.8567 0.62682,0.87512 0.93837,1.64707 1.03848,2.5731 0.10118,0.93598 0.25909,1.32292 0.53988,1.32292 0.2798,0 0.42139,-0.34222 0.47998,-1.16009 0.0563,-0.78638 0.37595,-1.59495 0.99218,-2.51001 0.89629,-1.33091 1.164,-2.28302 0.64192,-2.28302 -0.14694,0 -0.43821,0.20836 -0.64726,0.46302 -0.20905,0.25466 -0.6246,0.76067 -0.92345,1.12448 l -0.54337,0.66145 -0.54336,-0.66145 c -0.29885,-0.36381 -0.68993,-0.84124 -0.86907,-1.06097 -0.40223,-0.49337 -5.73132,-0.75657 -5.73132,-0.28307 0,0.15714 -0.0298,0.37383 -0.0661,0.48154 -0.0364,0.10771 0.29104,0.25737 0.7276,0.33258 l 0.79375,0.13674 0.0714,2.11482 c 0.0814,2.41171 0.19111,2.86488 0.65638,2.71078 0.22247,-0.0737 0.35565,-0.86369 0.40721,-2.41558 z m -125.596049,-8.1769 c 1.415267,-0.95256 1.745458,-3.19906 0.668109,-4.54555 l -0.626812,-0.7834 0.531914,-0.71945 c 0.847811,-1.14673 0.720085,-2.73474 -0.302261,-3.758 l -0.834175,-0.83492 -3.339658,-0.0885 c -2.572127,-0.0682 -3.391097,-0.007 -3.563477,0.26458 -0.37648,0.59392 -0.286744,10.37755 0.09881,10.77255 0.529458,0.54243 6.473424,0.2945 7.367554,-0.30731 z m -5.199944,-1.85427 c -0.08491,-0.22126 -0.116219,-0.80058 -0.06959,-1.28738 0.08431,-0.88004 0.09342,-0.88553 1.59925,-0.96423 1.758934,-0.0919 2.588236,0.2551 2.582528,1.08064 -0.0075,1.08547 -0.40506,1.34703 -2.223353,1.46282 -1.37928,0.0878 -1.766078,0.0281 -1.888839,-0.29185 z m -0.01283,-4.79595 c -0.07904,-0.20598 -0.105074,-0.712 -0.05784,-1.12447 0.08213,-0.71723 0.15325,-0.75345 1.629554,-0.82997 0.910458,-0.0472 1.69732,0.0475 1.91823,0.23083 0.457567,0.37975 0.488624,1.34907 0.05705,1.78064 -0.463517,0.46352 -3.365144,0.41687 -3.546993,-0.057 z m 16.465727,6.5313 c 1.40018,-0.99875 1.763643,-2.15685 1.897631,-6.04633 0.139906,-4.06124 -0.04514,-4.6844 -1.353423,-4.55766 l -0.842317,0.0816 -0.132292,3.92566 c -0.13154,3.90338 -0.136506,3.92929 -0.87465,4.56407 -0.509424,0.43808 -1.065179,0.6384 -1.771183,0.6384 -0.706004,0 -1.26176,-0.20032 -1.771184,-0.6384 -0.738144,-0.63478 -0.743109,-0.66069 -0.87465,-4.56407 l -0.132291,-3.92566 h -0.926042 -0.926042 l -0.07071,4.10105 c -0.08136,4.71917 0.151505,5.50223 1.950333,6.55827 1.416236,0.83143 4.573265,0.75725 5.826816,-0.13692 z m 11.819718,0.29457 c 1.168495,-0.59038 2.037381,-1.42944 2.037381,-1.96744 0,-0.25074 -0.349385,-0.59567 -0.786918,-0.7769 -0.711661,-0.29478 -0.865421,-0.2599 -1.607799,0.36477 -1.493637,1.25681 -4.023117,0.75941 -4.919578,-0.9674 -0.882722,-1.70033 -0.34943,-4.16561 1.107633,-5.12032 1.070245,-0.70124 2.536227,-0.59725 3.785584,0.26856 1.045411,0.72447 1.117105,0.7375 1.7555,0.31921 0.858705,-0.56265 0.839221,-0.95229 -0.09225,-1.84469 -0.985581,-0.94425 -3.021497,-1.56192 -4.40155,-1.33537 -3.075572,0.50489 -4.987203,2.72836 -4.985573,5.79886 0.0013,2.48531 1.331735,4.51355 3.53827,5.39417 1.047369,0.41801 3.626964,0.34267 4.569296,-0.13345 z m 5.587616,0.26723 c 0.310904,-0.11931 0.418515,-0.53196 0.418515,-1.6049 0,-1.42628 0.328911,-2.46784 0.779317,-2.46784 0.127341,0 1.019553,0.9525 1.982692,2.11667 1.579886,1.90964 1.841799,2.11667 2.67788,2.11667 1.540777,0 1.402747,-0.57616 -0.782235,-3.26509 -1.106501,-1.36171 -2.011821,-2.6201 -2.011821,-2.79642 0,-0.17633 0.836361,-1.28686 1.858584,-2.46786 1.022221,-1.18099 1.816638,-2.2751 1.765372,-2.43134 -0.05126,-0.15625 -0.57277,-0.31986 -1.158904,-0.36358 -1.043557,-0.0778 -1.100841,-0.0356 -2.757562,2.03394 -0.930526,1.16239 -1.810927,2.08176 -1.956448,2.04306 -0.145521,-0.0387 -0.324115,-0.95398 -0.396875,-2.03394 L 57.284931,283.1256 H 56.35889 55.432848 l -0.07177,5.40487 c -0.05507,4.14721 0.0065,5.45454 0.264584,5.61834 0.405842,0.25758 0.813541,0.27569 1.37305,0.061 z m 16.281429,-0.22172 c 0.174509,-0.21027 0.278384,-0.65675 0.230833,-0.99218 -0.0822,-0.57989 -0.216569,-0.61638 -2.732289,-0.74217 l -2.645833,-0.13229 v -1.19063 -1.19062 l 2.48594,-0.13229 c 1.985561,-0.10567 2.54448,-0.22549 2.776771,-0.59532 0.211389,-0.33654 0.211389,-0.5895 0,-0.92604 -0.232291,-0.36982 -0.79121,-0.48965 -2.776771,-0.59531 l -2.48594,-0.13229 v -1.05833 -1.05834 l 2.645833,-0.13229 2.645834,-0.13229 v -0.92604 -0.92605 l -3.535265,-0.074 c -2.38102,-0.0499 -3.655198,0.0255 -3.902604,0.23084 -0.494414,0.41033 -0.540086,10.28024 -0.04984,10.77049 0.492964,0.49296 6.927551,0.43617 7.343331,-0.0648 z m 7.367503,0.0648 c 0.194265,-0.19427 0.317685,-1.1442 0.317976,-2.4474 l 5.29e-4,-2.1299 1.851078,-2.77812 c 1.018119,-1.52797 1.851343,-2.98648 1.851607,-3.24115 2.65e-4,-0.36319 -0.225682,-0.46302 -1.048464,-0.46302 -1.021641,0 -1.084284,0.0551 -2.40673,2.11667 -0.746781,1.16417 -1.435616,2.11236 -1.530744,2.10709 -0.09513,-0.005 -0.768273,-0.928 -1.495877,-2.05052 -1.278422,-1.9723 -1.357773,-2.04095 -2.359203,-2.04095 -0.569954,0 -1.079836,0.13066 -1.133064,0.29035 -0.05323,0.15968 0.798369,1.64796 1.89244,3.30729 l 1.989219,3.01695 0.0037,2.16076 c 0.0026,1.47807 0.108236,2.20293 0.33447,2.29422 0.606801,0.24485 1.412002,0.17875 1.733021,-0.14227 z m 12.924909,0.11501 c 0.316558,-0.20223 0.442021,-0.66775 0.388522,-1.44158 -0.02692,-0.38943 -0.395481,-0.46413 -2.611035,-0.52917 l -2.579688,-0.0757 -0.08025,-1.24702 -0.08024,-1.24702 2.593784,-0.0759 2.593787,-0.0759 v -0.92604 -0.92604 l -2.579687,-0.0757 -2.579688,-0.0757 v -1.18105 -1.18104 h 2.504234 c 2.116164,0 2.541831,-0.0718 2.746859,-0.46302 0.139666,-0.26653 0.146055,-0.71883 0.01506,-1.06584 -0.223618,-0.59234 -0.290851,-0.60154 -3.871341,-0.52916 l -3.643765,0.0736 -0.07177,5.40487 c -0.05507,4.14721 0.0065,5.45454 0.264584,5.61834 0.420465,0.26687 6.576475,0.28368 6.990641,0.0191 z m 12.801171,-0.20473 c 0.55436,-0.66796 4.25955,-10.23295 4.11245,-10.61631 -0.17318,-0.45128 -1.84762,-0.46436 -2.21862,-0.0173 -0.15348,0.18493 -0.82842,1.8127 -1.49986,3.61727 -0.67145,1.80457 -1.32454,3.46637 -1.45131,3.6929 -0.27841,0.49749 -0.30101,0.45154 -2.06884,-4.20682 l -1.25511,-3.30729 -1.12094,-0.0814 c -0.96929,-0.0704 -1.120934,-0.0102 -1.120934,0.44421 0,0.80966 3.714634,10.17713 4.184054,10.55122 0.57666,0.45955 2.03211,0.41391 2.43911,-0.0765 z m 13.21773,0.0138 c 0.18514,-0.22308 0.25531,-0.6772 0.16205,-1.04878 -0.15921,-0.63435 -0.24707,-0.65778 -2.74153,-0.73104 l -2.57704,-0.0757 v -1.19063 -1.19062 l 2.51354,-0.13229 2.51354,-0.1323 v -0.92604 -0.92604 l -2.51354,-0.13229 -2.51354,-0.13229 v -1.05833 -1.05834 l 2.48594,-0.13229 c 1.98556,-0.10566 2.54448,-0.22549 2.77677,-0.59531 0.21153,-0.33676 0.21119,-0.58928 -0.001,-0.92604 -0.2553,-0.40474 -0.75474,-0.46303 -3.9674,-0.46303 h -3.67533 l -0.0718,5.25769 c -0.0499,3.65451 0.0204,5.3689 0.23084,5.6224 0.45406,0.54711 6.92178,0.52192 7.37878,-0.0287 z m 4.18971,0.0526 c 0.1556,-0.18748 0.319,-1.11021 0.36313,-2.05052 0.0722,-1.53873 0.13928,-1.71803 0.671,-1.79359 0.47624,-0.0677 0.79087,0.24009 1.62286,1.5875 1.3884,2.24849 1.74976,2.59749 2.68946,2.59749 1.19595,0 1.2364,-0.61366 0.15586,-2.36428 -0.52685,-0.85357 -0.95792,-1.66913 -0.95792,-1.81236 0,-0.14323 0.30761,-0.46197 0.68356,-0.7083 1.35509,-0.8879 1.79763,-3.04259 0.94965,-4.62375 -0.82279,-1.53418 -1.8484,-1.89038 -5.20508,-1.80775 l -2.91042,0.0716 -0.0718,5.40487 c -0.0551,4.14721 0.006,5.45454 0.26458,5.61834 0.5121,0.32502 1.42833,0.26239 1.74509,-0.11929 z m 1.02549,-5.94587 c -0.71532,-0.0975 -0.73805,-0.14803 -0.66146,-1.47116 l 0.0793,-1.37022 1.3757,-0.0795 c 1.10237,-0.0637 1.48349,0.0283 1.91823,0.46302 1.38115,1.38115 -0.18646,2.80197 -2.71179,2.45787 z m 11.91261,6.07286 c 0.22892,-0.14544 0.34531,-1.48274 0.39687,-4.56001 l 0.073,-4.35423 1.4552,-0.13229 1.45521,-0.13229 v -0.92604 -0.92605 h -4.23333 -4.23333 v 0.92605 0.92604 l 1.52135,0.0793 1.52135,0.0794 v 4.2995 c 0,2.99128 0.0966,4.39611 0.3175,4.61701 0.359,0.359 1.24091,0.41193 1.72621,0.1036 z m 7.15619,-0.008 c 0.25809,-0.16381 0.31966,-1.47114 0.26459,-5.61834 l -0.0718,-5.40487 -0.7807,-0.0888 c -1.34352,-0.15289 -1.46826,0.32122 -1.46826,5.58077 0,2.75407 0.1144,4.94307 0.2739,5.24109 0.28059,0.5243 1.18212,0.67108 1.78225,0.29019 z m 10.18933,-0.13825 c 1.0065,-0.42538 2.3618,-1.72249 2.22676,-2.13115 -0.0522,-0.15793 -0.38535,-0.45097 -0.74038,-0.65121 -0.58337,-0.32904 -0.74404,-0.29721 -1.66935,0.33073 -1.96131,1.33098 -4.40378,0.58484 -5.1567,-1.57529 -1.24352,-3.56769 2.75327,-6.56386 5.41735,-4.06109 0.53637,0.50389 0.67068,0.52462 1.32716,0.20476 1.06294,-0.51789 1.06748,-0.93085 0.0211,-1.91773 -1.26766,-1.19556 -2.93993,-1.60359 -4.90655,-1.1972 -1.21414,0.2509 -1.71516,0.53379 -2.71571,1.53336 -3.74586,3.74222 -1.31172,9.79698 3.94738,9.81885 0.76865,0.003 1.78068,-0.15612 2.24895,-0.35403 z m 5.6139,-0.76393 0.52917,-0.99147 2.29331,-8e-4 2.29331,-7.9e-4 0.48481,0.99219 c 0.38111,0.77995 0.65461,1.00693 1.27857,1.06112 1.72077,0.14943 1.70566,-0.0243 -0.48282,-5.55055 -1.11702,-2.82061 -2.17376,-5.27121 -2.34833,-5.44578 -0.43237,-0.43236 -2.19336,-0.40184 -2.56373,0.0444 -0.16517,0.19902 -1.18381,2.60743 -2.26366,5.35203 -2.10874,5.35971 -2.14964,5.76511 -0.56608,5.61058 0.63483,-0.062 0.93391,-0.30005 1.34545,-1.07113 z m 1.45253,-3.4403 c -0.004,-0.52626 1.14015,-3.63802 1.33795,-3.63802 0.23805,0 1.53591,3.51592 1.39177,3.77032 -0.19975,0.35253 -2.72679,0.23007 -2.72972,-0.1323 z m 15.07184,4.18175 c 0.17451,-0.21027 0.27839,-0.65675 0.23083,-0.99218 -0.0808,-0.56976 -0.23438,-0.61858 -2.33541,-0.74217 l -2.24896,-0.13229 -0.0731,-4.21461 c -0.0461,-2.65797 -0.18437,-4.34867 -0.37434,-4.57758 -0.16925,-0.20393 -0.65889,-0.32806 -1.11752,-0.2833 l -0.81629,0.0797 -0.0718,5.40487 c -0.0551,4.14721 0.006,5.45454 0.26458,5.61834 0.185,0.11742 1.66123,0.21531 3.28053,0.21754 2.24819,0.003 3.01916,-0.0863 3.26145,-0.37827 z m -73.26666,-23.5902 c 1.8121,-0.53814 3.42875,-2.0545 3.42875,-3.21604 0,-0.90157 0.32214,-1.23367 1.45521,-1.50017 1.9121,-0.44973 2.47604,-1.53577 1.53959,-2.96496 -0.24463,-0.37335 -0.53378,-1.33465 -0.64255,-2.13622 -0.19078,-1.40583 -0.15079,-1.54536 1.12982,-3.94208 1.32515,-2.48011 1.81838,-2.89922 2.55043,-2.16718 0.17462,0.17462 0.3175,0.88481 0.3175,1.57819 0,0.97562 0.11572,1.32262 0.51177,1.53459 0.81568,0.43653 1.50635,0.32264 2.35039,-0.38757 0.43236,-0.3638 0.95452,-0.66146 1.16036,-0.66146 0.20584,0 0.59212,-0.15931 0.85841,-0.35402 0.44903,-0.32834 0.46071,-0.51428 0.16106,-2.56357 -0.30432,-2.08127 -0.28937,-2.28731 0.25741,-3.54859 0.31927,-0.73647 0.74191,-1.72187 0.9392,-2.18979 0.2514,-0.59625 0.73676,-1.0316 1.62239,-1.45521 0.83882,-0.40123 1.52319,-0.99504 2.03554,-1.76621 l 0.77186,-1.16177 0.68507,0.83343 c 0.85071,1.03491 1.39784,1.04877 2.18726,0.0554 0.33796,-0.42529 1.32886,-1.08438 2.20199,-1.46466 1.21345,-0.5285 2.0563,-1.18921 3.57717,-2.8042 1.70933,-1.81511 2.17532,-2.15861 3.30729,-2.43795 l 1.31762,-0.32515 0.21541,-1.45521 c 0.11847,-0.80036 0.25092,-2.22911 0.29432,-3.175 0.0733,-1.59843 0.93678,-4.56907 1.49576,-5.14615 0.13391,-0.13824 0.24347,-0.72467 0.24347,-1.30318 0,-0.67171 0.33974,-1.73941 0.94013,-2.9545 1.12047,-2.26766 2.23588,-6.55847 2.23228,-8.58722 -0.002,-0.99175 -0.21261,-1.90699 -0.66146,-2.87116 -0.36238,-0.77843 -0.65994,-1.55234 -0.66125,-1.71979 -0.001,-0.16745 0.37133,-0.61166 0.82809,-0.98713 0.57446,-0.47222 0.88206,-1.00241 0.99779,-1.7198 0.16564,-1.0268 0.20409,-1.05634 3.86825,-2.9717 21.60314,-11.29255 31.35815,-20.90065 24.70074,-24.32874 -1.88939,-0.97291 -5.12666,-1.27452 -9.69724,-0.90348 -4.24962,0.34499 -7.82723,0.8324 -7.6213,1.03832 0.0718,0.0718 2.34823,-0.0174 5.05879,-0.19814 13.15117,-0.87697 16.40393,1.53148 10.47011,7.75239 -2.34614,2.45964 -4.74377,4.33806 -9.45879,7.41044 -5.93528,3.86753 -16.66299,9.64966 -17.09736,9.21529 -0.32808,-0.32808 -0.39941,-25.23341 -0.0851,-29.72061 0.20679,-2.95231 0.18165,-3.44052 -0.2078,-4.0349 -0.24446,-0.37309 -0.69439,-0.67619 -1.00375,-0.67619 -0.94517,0 -4.25742,1.0795 -5.44902,1.77591 -0.61992,0.3623 -1.63195,0.81827 -2.24896,1.01327 -2.80673,0.88706 -5.44677,2.04248 -7.05247,3.08652 -0.96071,0.62467 -2.21491,1.37388 -2.78711,1.66492 -0.57221,0.29105 -1.40464,1.05207 -1.84986,1.69116 -0.79768,1.14503 -2.04966,2.41783 -3.83818,3.90201 -0.78498,0.6514 -1.11671,0.75042 -2.38125,0.71079 -0.80807,-0.0253 -2.30974,-0.22255 -3.33705,-0.43828 -2.39477,-0.50289 -4.05203,-0.22889 -5.31322,0.87846 -0.49893,0.43807 -1.17805,0.79649 -1.50914,0.79649 -0.33109,0 -1.46866,0.42696 -2.52793,0.9488 -2.2337,1.10043 -3.00431,1.05567 -3.682447,-0.21387 -0.642155,-1.20217 -3.092469,-3.64432 -3.663434,-3.65123 -0.267298,-0.003 -0.783654,-0.23871 -1.147456,-0.52328 -0.948671,-0.74206 -1.620949,-0.6542 -2.418398,0.31606 l -0.698605,0.85 -0.990542,-1.10339 c -0.544798,-0.60687 -1.421051,-1.24004 -1.947228,-1.40705 -0.526177,-0.167 -1.526172,-0.66215 -2.222209,-1.10033 -0.985827,-0.62061 -1.462701,-0.76469 -2.157682,-0.65191 -0.653595,0.10606 -1.234932,-0.0385 -2.174057,-0.54066 -1.192501,-0.63763 -1.567921,-0.69174 -5.382946,-0.77584 -5.812406,-0.12812 -23.358215,0.41901 -23.680208,0.73841 -0.260974,0.25888 -0.411107,14.49923 -0.310711,29.47158 0.04644,6.92577 0.04077,11.26434 -0.02947,22.53182 l -0.0382,6.12766 -1.348235,0.28914 c -6.581344,1.41145 -14.752228,2.42226 -19.836924,2.45401 -7.282095,0.0455 -10.041507,-0.94523 -10.536188,-3.78276 -1.067733,-6.1246 6.122398,-14.21182 18.797988,-21.14336 1.701438,-0.93042 3.040592,-1.7446 2.975896,-1.8093 -0.0647,-0.0647 -1.399252,0.5038 -2.965683,1.26332 -11.207258,5.43412 -18.694049,12.59251 -19.908223,19.03499 -0.691502,3.66915 0.641039,5.82657 4.311627,6.98065 1.739551,0.54694 2.393929,0.59644 7.721458,0.58407 6.052874,-0.014 8.438036,-0.24566 16.490199,-1.60125 2.23013,-0.37544 4.112503,-0.6249 4.183047,-0.55435 0.07054,0.0705 0.165346,2.73956 0.210671,5.93115 0.08584,6.04436 0.188611,6.63798 1.305904,7.54301 0.724631,0.58698 1.749476,0.58901 2.97365,0.006 0.93286,-0.44436 0.983887,-0.44343 1.265745,0.0229 0.715698,1.18416 0.946301,1.34106 2.17904,1.48263 1.275519,0.14647 1.294506,0.1626 1.73147,1.47102 0.242994,0.7276 0.451353,1.77531 0.463021,2.32824 0.05272,2.49869 1.759514,3.65959 5.569569,3.78823 l 2.241066,0.0757 0.900258,1.08379 c 1.211046,1.45796 3.155352,2.91055 3.895775,2.91055 0.331711,0 0.956855,-0.29766 1.389208,-0.66146 0.432356,-0.3638 1.075124,-0.66146 1.428377,-0.66146 0.930963,0 3.104232,0.78015 4.171397,1.49743 1.0804,0.72617 1.64229,0.772 2.508258,0.20459 0.501706,-0.32873 0.833377,-0.35927 1.600711,-0.1474 1.3276,0.36657 2.151631,-0.005 2.699739,-1.21788 0.663305,-1.46759 1.127737,-1.92424 1.957073,-1.92424 0.689671,0 0.780394,0.13046 1.297006,1.86516 0.585901,1.96734 1.267828,2.66972 2.950898,3.03938 0.843248,0.18521 2.336877,1.7686 2.336877,2.47732 0,0.26636 0.246766,0.79799 0.54837,1.18142 0.467907,0.59485 0.75203,0.69714 1.936348,0.69714 0.76339,0 2.03139,-0.19107 2.81778,-0.4246 z m -4.126501,-3.55799 c -1.084266,-1.02626 -2.367452,-2.03142 -2.851529,-2.23368 -1.273738,-0.5322 -1.534107,-0.97615 -1.626333,-2.77302 -0.105479,-2.05507 -0.390908,-2.38779 -2.048362,-2.38779 -1.868373,0 -4.439359,1.31039 -4.439359,2.26268 0,0.7149 -0.725754,0.97115 -1.726033,0.60945 -0.834453,-0.30174 -1.059693,-0.28797 -1.747581,0.10682 -0.704858,0.40453 -0.853829,0.41117 -1.387073,0.0618 -0.698661,-0.45778 -4.431728,-1.45322 -5.449816,-1.45322 -0.385471,0 -0.931973,0.1748 -1.214448,0.38846 -0.282474,0.21365 -0.833395,0.39224 -1.224266,0.39687 -0.561137,0.007 -0.8395,-0.22106 -1.322917,-1.08215 -0.836541,-1.49011 -2.751016,-2.34902 -5.23589,-2.34902 -2.531652,0 -3.371548,-0.35043 -3.703397,-1.54519 -0.147928,-0.53259 -0.269626,-1.16024 -0.270436,-1.39477 -7.93e-4,-0.23454 -0.365389,-1.22902 -0.810172,-2.20997 -0.700966,-1.54595 -0.947695,-1.83814 -1.852084,-2.1934 -0.703207,-0.27622 -1.043387,-0.57321 -1.043387,-0.91091 0,-0.27558 -0.292245,-0.7933 -0.649433,-1.15049 -0.896794,-0.8968 -2.462776,-0.89074 -3.537624,0.0137 -0.881703,0.7419 -1.571194,0.65202 -1.758956,-0.22929 -0.507039,-2.3799 -0.700174,-11.54632 -0.243281,-11.54632 1.056693,0 17.790395,-4.26612 24.469383,-6.23827 3.199458,-0.94473 5.019509,-1.1361 5.466231,-0.57475 0.144756,0.1819 0.343977,2.47385 0.442706,5.09322 0.224938,5.96763 0.595482,9.41883 1.061347,9.88523 0.419299,0.41978 1.309246,0.19057 4.069617,-1.04814 l 1.671032,-0.74987 -0.0361,-5.63111 c -0.01984,-3.09711 -0.02768,-5.76354 -0.01738,-5.92541 0.01029,-0.16186 0.665144,-0.37027 1.455226,-0.46313 0.790083,-0.0929 2.757993,-0.50914 4.373134,-0.92506 2.058813,-0.53017 2.991152,-0.66854 3.119042,-0.4629 0.10034,0.16132 0.81347,2.85316 1.58473,5.98185 1.86547,7.5675 1.71694,7.24218 3.22392,7.06148 1.75191,-0.21006 5.39124,-1.41505 6.20352,-2.054 0.47386,-0.37273 0.69664,-0.79996 0.69664,-1.33597 0,-0.8466 -1.31028,-6.25325 -2.8112,-11.59996 -0.72253,-2.57387 -0.86608,-3.42948 -0.65362,-3.89579 0.17296,-0.3796 1.26457,-1.09672 2.99302,-1.96621 2.20217,-1.10779 3.08106,-1.40446 4.61109,-1.55644 2.92635,-0.29068 4.591,-1.85938 3.38603,-3.19085 -0.29061,-0.32112 -0.37978,-0.61888 -0.2298,-0.76728 0.13481,-0.13339 2.20963,-1.06672 4.61073,-2.07408 2.40109,-1.00736 6.50875,-2.81087 9.12812,-4.00781 2.61938,-1.19693 4.91133,-2.23805 5.09323,-2.3136 0.23581,-0.0979 0.33073,0.20284 0.33073,1.04795 0,0.65191 0.24135,1.73091 0.53634,2.39778 0.45474,1.02801 0.51165,1.54639 0.37407,3.40707 -0.2059,2.7847 -0.65331,4.40169 -1.97293,7.1305 -0.57978,1.19892 -1.05415,2.41022 -1.05415,2.69178 0,0.28156 -0.23538,0.89279 -0.52308,1.35829 -0.44768,0.72436 -0.47814,0.96541 -0.21135,1.67221 0.26995,0.71519 0.22965,0.99018 -0.30079,2.05228 -0.47077,0.94262 -0.5736,1.46975 -0.44437,2.27793 0.0925,0.57833 0.0328,1.50337 -0.1327,2.05564 -0.23901,0.79775 -0.5371,1.11892 -1.45035,1.56261 -0.63223,0.30716 -1.66029,1.12157 -2.28458,1.8098 -2.16078,2.38209 -3.13828,3.16058 -4.5868,3.65295 -1.43947,0.48928 -1.45146,0.48893 -2.04083,-0.0612 -1.52821,-1.42641 -3.05305,-0.76332 -3.74887,1.63024 -0.39385,1.35478 -0.46403,1.43065 -1.58426,1.71273 -0.82612,0.20802 -1.41249,0.58672 -1.98625,1.28279 -0.44776,0.5432 -0.8141,1.10763 -0.8141,1.25429 0,0.14665 -0.32048,0.90007 -0.71218,1.67425 -0.66391,1.3122 -0.68908,1.48282 -0.37125,2.51734 0.55845,1.81771 0.5151,2.68394 -0.139,2.77728 -0.40583,0.0579 -0.71397,-0.17924 -1.11414,-0.8575 -0.60403,-1.02375 -1.98302,-1.99812 -2.83008,-1.99968 -0.91095,-0.002 -1.70756,0.77409 -2.52256,2.45657 -0.43003,0.88774 -1.00556,1.85881 -1.27897,2.15794 -0.6588,0.72078 -1.61516,2.64839 -1.61516,3.25547 0,0.26604 0.22797,1.13104 0.50659,1.92221 0.53472,1.51839 0.38873,2.37765 -0.40396,2.37765 -0.65369,0 -1.95471,1.47503 -1.95471,2.21616 0,1.02536 -0.55443,2.01665 -1.36129,2.43389 -1.3838,0.71559 -1.97711,0.49893 -4.077291,-1.48889 z M 87.428551,242.7461 c -0.100322,-0.16232 -0.243596,-2.96029 -0.318391,-6.21771 -0.135033,-5.88099 -0.132091,-5.92258 0.41892,-5.92258 0.997087,0 1.84296,0.56107 1.995463,1.3236 0.08076,0.40377 0.229773,2.88149 0.33115,5.50604 l 0.184322,4.7719 -0.997876,0.41694 c -1.186391,0.49571 -1.373767,0.50985 -1.613588,0.12181 z m 17.725159,-2.15166 c -0.10381,-0.32709 -0.82198,-3.0326 -1.59593,-6.01223 l -1.40717,-5.41751 0.53544,-0.56996 c 0.37937,-0.40382 1.00159,-0.6227 2.13464,-0.75089 1.90973,-0.21606 2.26688,0.016 3.13653,2.03752 1.07748,2.50466 2.92148,9.52825 2.5889,9.86083 -0.16541,0.1654 -4.46958,1.43392 -4.89076,1.4414 -0.17209,0.003 -0.39783,-0.26207 -0.50165,-0.58916 z m -50.41372,-5.02769 c -0.105818,-0.22293 -0.208783,-55.20493 -0.104236,-55.66094 0.124704,-0.54393 0.296238,-0.56567 5.489991,-0.69594 2.948696,-0.074 6.297366,-0.0162 7.441488,0.12837 1.925217,0.24327 6.011,0.0564 10.61978,-0.48567 1.154035,-0.13574 1.458021,-0.0623 2.38125,0.57494 0.801166,0.55303 1.508376,0.77305 2.910416,0.90548 1.494129,0.14113 2.158902,0.36456 3.439584,1.15602 0.873125,0.53959 1.981253,1.48294 2.462506,2.09633 1.443016,1.83923 2.704034,2.1818 4.004212,1.08777 1.173409,-0.98736 1.911681,-0.6988 4.138951,1.61775 1.030931,1.07225 2.192573,2.0294 2.581428,2.127 0.90839,0.22799 2.43702,-0.0586 3.61394,-0.67751 0.50933,-0.26784 1.4023,-0.54262 1.98438,-0.61062 0.58208,-0.068 1.7657,-0.55307 2.63027,-1.07794 1.73241,-1.05173 2.28721,-1.13893 3.64285,-0.57251 0.50258,0.20999 1.8035,0.46243 2.89093,0.56097 2.52443,0.22876 3.36163,-0.16854 5.97015,-2.8332 3.80789,-3.88984 4.90986,-4.64059 11.45642,-7.80508 3.07971,-1.48867 7.48905,-3.01707 7.92564,-2.74724 0.35764,0.22103 0.50221,13.05542 0.2942,26.11741 l -0.11453,7.19236 -3.32505,1.58258 c -5.83706,2.77819 -17.29169,7.7129 -17.90346,7.7129 -0.17225,0 -0.38558,-0.28848 -0.47408,-0.64107 -0.0885,-0.35258 -0.46917,-1.00743 -0.84595,-1.45521 -0.86662,-1.02992 -1.88555,-1.078 -2.77471,-0.13092 -0.54493,0.58043 -0.64143,0.9457 -0.64143,2.42789 0,1.74192 -0.002,1.7453 -0.92604,2.14156 -1.07871,0.46233 -26.84305,2.21442 -27.526538,1.87193 -0.22371,-0.1121 -0.68439,-0.99027 -1.023734,-1.95151 -0.63568,-1.80063 -1.300099,-2.52725 -2.310921,-2.52725 -0.944965,0 -1.413298,0.28181 -1.84018,1.10731 -0.340005,0.6575 -0.355793,1.0876 -0.10151,2.76512 0.165616,1.09258 0.241412,2.14211 0.168434,2.33229 -0.10097,0.26312 -0.694478,0.31374 -2.482987,0.21176 -2.570208,-0.14654 -4.419704,0.23994 -6.715477,1.40329 -1.187363,0.60168 -2.352506,1.74367 -2.352506,2.30576 0,0.14552 0.241057,-0.0419 0.535681,-0.41643 1.088062,-1.38324 5.52332,-2.88283 8.679865,-2.9347 1.200362,-0.0197 1.762599,0.0849 1.984375,0.36935 0.388281,0.49797 1.953379,1.05704 2.974073,1.06238 0.773427,0.004 1.664824,0.38877 1.42876,0.61665 -0.443809,0.42844 -5.940308,3.56529 -6.087649,3.47422 -0.100156,-0.0619 -0.33454,-0.657 -0.520857,-1.32245 -0.186314,-0.66545 -0.568475,-1.50196 -0.849246,-1.8589 -0.681445,-0.86632 -1.897912,-0.87712 -2.45832,-0.0218 -0.493541,0.75324 -0.527093,1.48512 -0.195649,4.26763 0.138673,1.16416 0.218755,2.15759 0.177959,2.20762 -0.370711,0.4546 -20.098235,5.32721 -20.252473,5.00227 z M 74.4167,219.23163 c -1.068737,-0.65162 -1.079243,-1.06576 -0.05307,-2.09194 2.8839,-2.8839 13.440897,-5.22925 16.060359,-3.56798 0.780134,0.49477 0.750975,0.93272 -0.132292,1.98692 -0.748673,0.89357 -0.392393,0.82917 0.661458,-0.11955 0.327422,-0.29476 0.595313,-0.81283 0.595313,-1.15126 0,-2.80485 -7.246699,-2.83501 -13.91753,-0.0579 -2.439379,1.01552 -4.603303,2.90015 -4.603303,4.00917 0,0.76866 0.847079,1.51945 1.712518,1.51786 0.430572,-8e-4 0.366736,-0.10446 -0.323456,-0.52528 z m 33.86667,-3.70417 c -1.10288,-0.67243 -1.09191,-1.33187 0.0387,-2.32452 3.94271,-3.46175 16.49579,-5.47785 16.55989,-2.65962 0.002,0.098 -0.30842,0.54949 -0.69033,1.00337 -0.92348,1.09749 -0.65482,1.2869 0.41192,0.29041 1.227,-1.1462 1.0637,-2.06669 -0.51129,-2.88201 -1.0925,-0.56555 -1.43047,-0.60575 -4.10104,-0.48777 -4.64117,0.20503 -9.78106,1.96897 -12.0632,4.13992 -0.89685,0.85314 -1.05694,1.16095 -0.98603,1.89574 0.06,0.62136 0.27758,0.97431 0.7461,1.21009 1.06392,0.53539 1.53629,0.38812 0.59532,-0.18561 z"
         id="path922" />
    </g>
  </g>
</svg>
