<?xml version="1.0" encoding="UTF-8" standalone="no"?>
<!-- Created with Inkscape (http://www.inkscape.org/) -->

<svg
   width="210mm"
   height="181mm"
   viewBox="0 0 210 181"
   version="1.1"
   id="svg5"
   inkscape:version="1.1.2 (0a00cf5339, 2022-02-04)"
   sodipodi:docname="logo.svg"
   xmlns:inkscape="http://www.inkscape.org/namespaces/inkscape"
   xmlns:sodipodi="http://sodipodi.sourceforge.net/DTD/sodipodi-0.dtd"
   xmlns="http://www.w3.org/2000/svg"
   xmlns:svg="http://www.w3.org/2000/svg">
  <sodipodi:namedview
     id="namedview7"
     pagecolor="#ffffff"
     bordercolor="#666666"
     borderopacity="1.0"
     inkscape:pageshadow="2"
     inkscape:pageopacity="0.0"
     inkscape:pagecheckerboard="0"
     inkscape:document-units="mm"
     showgrid="false"
     inkscape:zoom="0.64052329"
     inkscape:cx="362.98446"
     inkscape:cy="394.98954"
     inkscape:window-width="1482"
     inkscape:window-height="925"
     inkscape:window-x="150"
     inkscape:window-y="80"
     inkscape:window-maximized="0"
     inkscape:current-layer="g531"
     inkscape:snap-global="false"
     width="209mm" />
  <defs
     id="defs2" />
  <g
     inkscape:label="Layer 1"
     inkscape:groupmode="layer"
     id="layer1">
    <g
       id="g531"
       transform="matrix(1.0806558,0,0,1.0806558,-7.8537907,-68.978152)">
      <g
         id="g13"
         transform="translate(-0.0294195,-0.23920547)">
        <path
           style="fill:#c32a4e;stroke-width:0.264583"
           d="m 56.720659,229.23976 c -0.326917,-0.32692 -0.415774,-1.0297 -0.415774,-3.28839 0,-3.49534 0.134093,-3.70417 2.378509,-3.70417 1.775822,0 2.383991,0.17274 2.383991,0.67714 0,0.25184 -0.483682,0.37899 -1.653646,0.43472 l -1.653646,0.0788 v 0.92604 0.92604 l 1.653646,0.0788 c 1.169964,0.0557 1.653646,0.18288 1.653646,0.43472 0,0.48821 -0.601062,0.67714 -2.154277,0.67714 h -1.31725 l 0.08212,0.99218 0.08212,0.99219 1.653646,0.0788 c 1.169964,0.0557 1.653646,0.18288 1.653646,0.43472 0,0.50439 -0.608169,0.67714 -2.383991,0.67714 -1.05355,0 -1.679575,-0.13262 -1.962735,-0.41578 z m 9.717384,-0.087 c -2.325291,-1.46096 -2.197989,-5.27613 0.217736,-6.52535 2.707733,-1.40022 5.83568,1.25998 5.024353,4.27302 -0.624795,2.32031 -3.302624,3.47088 -5.242089,2.25233 z m 3.380944,-1.329 c 2.090084,-2.09008 -0.469718,-5.78894 -2.85165,-4.12057 -0.85185,0.59666 -1.248164,2.03703 -0.873138,3.17336 0.603003,1.82712 2.390359,2.28165 3.724788,0.94721 z m 14.610734,1.40201 c -1.259406,-0.621 -1.779852,-1.57848 -1.779852,-3.27444 0,-1.71554 0.530349,-2.67134 1.822476,-3.2845 1.877672,-0.89101 4.061802,-0.17864 4.789088,1.562 1.41364,3.38332 -1.659233,6.56128 -4.831712,4.99694 z m 2.832235,-1.02591 c 2.001655,-1.03509 1.234207,-4.89436 -0.973283,-4.89436 -2.29561,0 -3.363426,2.84856 -1.693722,4.51826 0.865952,0.86596 1.536792,0.96056 2.667005,0.3761 z m 6.685431,0.94844 c -0.562348,-0.35322 -0.801367,-0.67477 -0.699296,-0.94077 0.193148,-0.50333 0.374578,-0.50455 1.324988,-0.009 0.978591,0.51037 1.804945,0.50424 2.32645,-0.0173 0.751892,-0.75189 0.41476,-1.18009 -1.446017,-1.8366 -1.557134,-0.5494 -2.106959,-1.10086 -2.106959,-2.11325 0,-1.10488 0.743677,-1.75346 2.172075,-1.89433 1.293202,-0.12754 2.406928,0.34315 2.548245,1.07695 0.08067,0.41888 -0.01757,0.46479 -0.659114,0.30805 -1.864331,-0.4555 -2.130928,-0.45711 -2.572465,-0.0156 -0.596976,0.59698 -0.226631,1.02574 1.349986,1.56295 1.68356,0.57366 2.188356,1.09711 2.188356,2.26925 0,1.28317 -0.698548,1.89873 -2.312424,2.03768 -0.944462,0.0813 -1.473131,-0.0258 -2.113825,-0.42821 z m 23.098273,0.0914 c -0.32692,-0.32692 -0.41577,-1.0297 -0.41577,-3.28839 0,-3.49534 0.13409,-3.70417 2.37851,-3.70417 1.77582,0 2.38399,0.17274 2.38399,0.67714 0,0.25184 -0.48369,0.37899 -1.65365,0.43472 l -1.65364,0.0788 v 0.92604 0.92604 l 1.65364,0.0788 c 1.16996,0.0557 1.65365,0.18288 1.65365,0.43472 0,0.48821 -0.60107,0.67714 -2.15428,0.67714 h -1.31725 l 0.0821,0.99218 0.0821,0.99219 1.65364,0.0788 c 1.16996,0.0557 1.65365,0.18288 1.65365,0.43472 0,0.50439 -0.60817,0.67714 -2.38399,0.67714 -1.05355,0 -1.67958,-0.13262 -1.96274,-0.41578 z m 9.66752,0.0465 c -1.06788,-0.59188 -1.33258,-1.41888 -1.34267,-4.19484 -0.009,-2.40642 0.0262,-2.57968 0.51979,-2.57968 0.49017,0 0.52917,0.17639 0.52917,2.39327 0,2.18823 0.0556,2.44892 0.64943,3.04271 0.85278,0.85278 1.81242,0.83451 2.50637,-0.0477 0.4611,-0.5862 0.54837,-1.07039 0.54837,-3.04271 0,-2.16917 0.0398,-2.34556 0.52916,-2.34556 0.49185,0 0.52917,0.17639 0.52917,2.50109 0,1.3756 -0.14224,2.81328 -0.31609,3.19484 -0.59338,1.30232 -2.74212,1.86041 -4.1527,1.07859 z m 18.00249,0.12933 c -0.34603,-0.21385 -2.68578,-5.87988 -2.68578,-6.50396 0,-0.21994 0.21803,-0.39989 0.48451,-0.39989 0.36581,0 0.72823,0.61579 1.47935,2.51354 0.54716,1.38244 1.0824,2.51354 1.18942,2.51354 0.10702,0 0.6127,-1.10133 1.12371,-2.4474 0.73857,-1.94544 1.04643,-2.46473 1.50107,-2.53194 0.78034,-0.11536 0.73561,0.23712 -0.38194,3.00969 -1.52229,3.77677 -1.91691,4.33679 -2.71034,3.84642 z m 4.87374,-0.17588 c -0.32691,-0.32692 -0.41577,-1.0297 -0.41577,-3.28839 0,-3.49534 0.13409,-3.70417 2.37851,-3.70417 1.77582,0 2.38399,0.17274 2.38399,0.67714 0,0.25184 -0.48368,0.37899 -1.65365,0.43472 l -1.65364,0.0788 v 0.92604 0.92604 l 1.65364,0.0788 c 1.16997,0.0557 1.65365,0.18288 1.65365,0.43472 0,0.48821 -0.60106,0.67714 -2.15428,0.67714 h -1.31725 l 0.0821,0.99218 0.0821,0.99219 1.65364,0.0788 c 1.16997,0.0557 1.65365,0.18288 1.65365,0.43472 0,0.50439 -0.60817,0.67714 -2.38399,0.67714 -1.05355,0 -1.67958,-0.13262 -1.96274,-0.41578 z m 12.61496,0.0357 c -0.82317,-0.37158 -1.12493,-1.01243 -0.62285,-1.32273 0.13037,-0.0806 0.57686,0.0307 0.99218,0.24734 0.9535,0.49729 1.70298,0.50229 2.35822,0.0157 0.74101,-0.55025 0.23533,-1.22415 -1.36638,-1.82092 -1.66599,-0.62072 -2.22107,-1.13855 -2.22107,-2.07204 0,-1.44361 1.62322,-2.36225 3.38382,-1.91502 0.93204,0.23676 1.65661,0.97254 1.30449,1.32466 -0.10327,0.10327 -0.64756,0.036 -1.20954,-0.14945 -2.37248,-0.78299 -3.04086,0.78994 -0.70064,1.64887 0.7276,0.26705 1.54962,0.70866 1.82671,0.98135 0.64875,0.63846 0.61739,2.0418 -0.0608,2.71998 -0.67332,0.67332 -2.56203,0.84877 -3.68415,0.34224 z m -134.299594,-0.083 c -0.184467,-0.30272 2.328019,-6.42887 2.741425,-6.68437 0.199906,-0.12355 0.558011,-0.11936 0.798491,0.009 0.404082,0.21626 2.899775,5.86411 2.899775,6.56231 0,0.60546 -1.06695,0.32295 -1.322916,-0.3503 -0.231892,-0.60992 -0.38268,-0.66145 -1.935356,-0.66145 -1.539372,0 -1.709735,0.0568 -1.985254,0.66145 -0.28785,0.63177 -0.939604,0.88405 -1.196165,0.46302 z m 4.175961,-2.42349 c 0.08181,-0.13238 -0.104566,-0.81698 -0.414173,-1.52135 l -0.562922,-1.28068 -0.489316,1.05834 c -0.744757,1.61082 -0.668096,1.98437 0.407234,1.98437 0.500734,0 0.977365,-0.10831 1.059177,-0.24068 z m 4.292204,2.44554 c -0.09701,-0.097 -0.17639,-1.39396 -0.17639,-2.88211 0,-2.90382 -0.06006,-3.02691 -1.476849,-3.02691 -0.719622,0 -0.878734,-0.64546 -0.221303,-0.89774 0.230183,-0.0883 1.232477,-0.1606 2.227318,-0.1606 2.042973,0 2.645834,0.15717 2.645834,0.68977 0,0.22728 -0.283993,0.36857 -0.740833,0.36857 -1.214901,0 -1.375834,0.39304 -1.375834,3.3602 0,2.09462 -0.08163,2.72521 -0.352777,2.72521 -0.194029,0 -0.432154,-0.0794 -0.529166,-0.17639 z m 8.55486,-2.52942 c 0,-2.98771 -0.159538,-3.3796 -1.375833,-3.3796 -0.456841,0 -0.740834,-0.14129 -0.740834,-0.36857 0,-0.5326 0.602861,-0.68977 2.645834,-0.68977 0.994841,0 1.997136,0.0723 2.227318,0.1606 0.702712,0.26966 0.487566,0.89735 -0.309089,0.90179 -1.262436,0.007 -1.364329,0.23103 -1.445326,3.17735 -0.06565,2.38786 -0.139258,2.77762 -0.539049,2.85416 -0.416912,0.0798 -0.463021,-0.18466 -0.463021,-2.65596 z m 4.12935,2.2873 c -0.20887,-0.54431 -0.20887,-5.49783 0,-6.04214 0.08833,-0.23018 0.324186,-0.41851 0.524126,-0.41851 0.37011,0 0.567976,0.56257 0.697931,1.98437 0.06965,0.76197 0.129027,0.79698 1.483093,0.87447 1.766329,0.10108 2.161334,-0.20973 2.161334,-1.70062 0,-0.98183 0.08059,-1.15822 0.529166,-1.15822 0.502031,0 0.529167,0.17639 0.529167,3.43958 0,3.23243 -0.03104,3.43958 -0.51534,3.43958 -0.435136,0 -0.527785,-0.21618 -0.595312,-1.38906 l -0.07997,-1.38906 -1.785938,-0.0782 -1.785937,-0.0782 v 1.04878 c 0,1.28199 -0.211794,1.88581 -0.661458,1.88581 -0.187143,0 -0.412531,-0.18833 -0.500859,-0.41851 z m 23.916484,-3.02107 c 0,-3.26319 0.02714,-3.43958 0.529167,-3.43958 0.44858,0 0.529167,0.17639 0.529167,1.15822 0,1.49089 0.395004,1.8017 2.161333,1.70062 1.354066,-0.0775 1.413447,-0.1125 1.483093,-0.87447 0.129956,-1.4218 0.327822,-1.98437 0.697931,-1.98437 0.560795,0 0.684726,0.62254 0.684726,3.43958 0,2.78879 -0.125153,3.43958 -0.661458,3.43958 -0.449665,0 -0.661459,-0.60382 -0.661459,-1.88581 v -1.04878 l -1.785937,0.0782 -1.785938,0.0782 -0.07997,1.38906 c -0.06753,1.17288 -0.160176,1.38906 -0.595312,1.38906 -0.484304,0 -0.51534,-0.20715 -0.51534,-3.43958 z m 7.408334,-0.13229 c 0,-3.39549 0.02614,-3.57188 0.529167,-3.57188 0.503033,0 0.529166,0.17639 0.529166,3.57188 0,3.39548 -0.02614,3.57187 -0.529166,3.57187 -0.503034,0 -0.529167,-0.17639 -0.529167,-3.57187 z m 20.902081,0.86606 c 0,-2.98771 -0.15954,-3.3796 -1.375831,-3.3796 -0.45684,0 -0.740833,-0.14129 -0.740833,-0.36857 0,-0.5326 0.602861,-0.68977 2.645834,-0.68977 0.99484,0 1.99714,0.0723 2.22732,0.1606 0.70271,0.26966 0.48756,0.89735 -0.30909,0.90179 -1.26244,0.007 -1.36433,0.23103 -1.44533,3.17735 -0.0656,2.38786 -0.13926,2.77762 -0.53905,2.85416 -0.41691,0.0798 -0.46302,-0.18466 -0.46302,-2.65596 z m 2.90925,2.37508 c -0.002,-0.60126 2.18507,-5.87775 2.63644,-6.3603 0.89629,-0.95819 1.30158,-0.36171 3.42858,5.04589 0.50251,1.27755 0.51204,1.41201 0.11104,1.56589 -0.29042,0.11145 -0.62892,-0.0703 -1.00161,-0.53766 -0.49231,-0.61741 -0.75332,-0.706 -2.08004,-0.706 -1.36147,0 -1.548,0.0678 -1.81846,0.66145 -0.30835,0.67675 -1.27384,0.92701 -1.27595,0.33073 z m 4.22757,-2.51354 c -0.004,-0.25466 -0.22813,-0.93927 -0.49847,-1.52135 l -0.49153,-1.05834 -0.5736,1.25983 c -0.31548,0.6929 -0.50086,1.37751 -0.41196,1.52135 0.0889,0.14384 0.57133,0.26153 1.07207,0.26153 0.69332,0 0.90877,-0.11041 0.90349,-0.46302 z m 4.11738,2.26654 c -0.078,-0.33709 -0.17154,-1.68446 -0.2079,-2.99414 -0.0644,-2.32206 -0.0825,-2.38322 -0.72755,-2.46037 -1.22064,-0.14601 -1.41857,-0.28057 -1.05573,-0.71776 0.23818,-0.28699 0.88603,-0.39375 2.38941,-0.39375 1.13444,0 2.25096,0.0723 2.48114,0.1606 0.70271,0.26966 0.48757,0.89735 -0.30909,0.90179 -1.26243,0.007 -1.36433,0.23103 -1.44532,3.17735 -0.065,2.36519 -0.14169,2.77808 -0.5296,2.85234 -0.2957,0.0566 -0.50292,-0.12649 -0.59536,-0.52606 z m 20.12724,0.15922 c -0.0883,-0.23019 -0.1606,-1.58967 -0.1606,-3.02107 0,-1.43141 0.0723,-2.79089 0.1606,-3.02107 0.35754,-0.93174 1.16889,-0.40033 2.79634,1.83151 1.11637,1.53096 1.70804,2.14399 1.85138,1.91823 0.11586,-0.18249 0.21248,-1.20373 0.21471,-2.26942 0.004,-1.70176 0.0604,-1.92678 0.46707,-1.84847 0.41149,0.0793 0.46302,0.45685 0.46302,3.39284 0,3.10434 -0.0319,3.30782 -0.52916,3.3725 -0.39665,0.0516 -0.92673,-0.49324 -2.11667,-2.17556 -0.87313,-1.23441 -1.6768,-2.24765 -1.78594,-2.25164 -0.10914,-0.004 -0.19844,0.81645 -0.19844,1.82319 0,2.0358 -0.15663,2.66747 -0.66145,2.66747 -0.18715,0 -0.41253,-0.18833 -0.50086,-0.41851 z m 7.24773,-3.15336 c 0,-3.39549 0.0261,-3.57188 0.52917,-3.57188 0.50303,0 0.52916,0.17639 0.52916,3.57188 0,3.39548 -0.0261,3.57187 -0.52916,3.57187 -0.50304,0 -0.52917,-0.17639 -0.52917,-3.57187 z m 15.34583,0.18 c 0,-3.76205 -0.004,-3.75336 1.67529,-3.7504 1.31914,0.002 2.79136,0.50404 3.0841,1.05104 0.4795,0.89595 0.31008,2.10416 -0.39376,2.80799 -0.81205,0.81205 -0.81211,0.82203 -0.0122,1.99926 0.35711,0.52554 0.57539,1.02943 0.48507,1.11976 -0.40768,0.40768 -0.94101,0.0663 -1.83031,-1.17154 -1.19185,-1.65897 -1.76381,-1.6552 -1.94989,0.0128 -0.0952,0.85374 -0.26198,1.21052 -0.59531,1.27381 -0.42169,0.0801 -0.46302,-0.21835 -0.46302,-3.34276 z m 3.5662,-0.74128 c 0.23594,-0.23595 0.39243,-0.61881 0.34775,-0.8508 -0.12448,-0.64638 -1.32855,-1.21007 -2.14634,-1.00481 -0.62072,0.15578 -0.70927,0.30952 -0.70927,1.2313 0,1.04926 0.004,1.0533 1.03943,1.0533 0.60575,0 1.21843,-0.17899 1.46843,-0.42899 z m 8.60464,0.56128 c 0,-3.39549 0.0261,-3.57188 0.52916,-3.57188 0.50304,0 0.52917,0.17639 0.52917,3.57188 0,3.39548 -0.0261,3.57187 -0.52917,3.57187 -0.50303,0 -0.52916,-0.17639 -0.52916,-3.57187 z m 4.37061,2.97656 c -0.0756,-0.32742 -0.16713,-1.66688 -0.20348,-2.97656 -0.0644,-2.32206 -0.0825,-2.38322 -0.72755,-2.46037 -1.22064,-0.14601 -1.41857,-0.28057 -1.05573,-0.71776 0.37702,-0.45428 4.34876,-0.56194 5.02227,-0.13613 0.53017,0.33518 0.0931,0.73568 -0.92383,0.8465 l -0.79375,0.0865 -0.0661,2.38125 c -0.0799,2.87938 -0.221,3.57187 -0.72766,3.57187 -0.21274,0 -0.44862,-0.26789 -0.52418,-0.59531 z m 6.21272,-0.79658 c 0,-1.21032 -0.15531,-1.6234 -1.19062,-3.16669 -1.32038,-1.96822 -1.42501,-2.32058 -0.68904,-2.32058 0.31232,0 0.8219,0.49916 1.3505,1.32291 0.4669,0.72761 0.94315,1.32292 1.05833,1.32292 0.11518,0 0.59143,-0.59531 1.05833,-1.32292 0.5286,-0.82375 1.03818,-1.32291 1.3505,-1.32291 0.73596,0 0.63133,0.35236 -0.68904,2.32058 -1.03531,1.54329 -1.19062,1.95637 -1.19062,3.16669 0,1.2155 -0.0671,1.39189 -0.52917,1.39189 -0.46211,0 -0.52917,-0.17639 -0.52917,-1.39189 z m 4.77281,-1.56841 c -0.67531,-0.72486 -0.71467,-2.32296 -0.0765,-3.10385 0.25466,-0.31159 0.88632,-0.63425 1.4037,-0.71703 0.76523,-0.12243 1.09832,-0.0179 1.78593,0.56073 1.01813,0.8567 1.13357,2.0784 0.29689,3.14206 -0.73272,0.9315 -2.59227,0.99589 -3.41007,0.11809 z m 2.10636,-0.0668 c 0,-0.5173 -0.51286,-0.79921 -0.84667,-0.46541 -0.14926,0.14927 -0.19139,0.40083 -0.0936,0.55903 0.25935,0.41964 0.94029,0.35184 0.94029,-0.0936 z m -1.32292,-1.59481 c 0,-0.92857 -0.083,-1.15047 -0.3868,-1.03389 -0.81227,0.3117 -0.80561,2.21621 0.008,2.21621 0.27245,0 0.37904,-0.33248 0.37904,-1.18232 z m 2.5932,0.21336 c 0.0453,-0.45232 -0.0823,-0.93034 -0.29559,-1.10733 -0.30942,-0.2568 -0.40287,-0.14117 -0.53274,0.65918 -0.0866,0.53383 -0.0915,1.07735 -0.0109,1.20782 0.28369,0.45901 0.76046,0.0274 0.83924,-0.75967 z M 26.26373,216.73897 c -1.311577,-0.61561 -2.392202,-1.85685 -2.755536,-3.16509 -0.395253,-1.42317 -0.361675,-9.39165 0.04127,-9.79459 0.418051,-0.41805 1.660366,-0.40668 2.013178,0.0184 0.163824,0.19739 0.313581,2.22524 0.363127,4.91711 l 0.08432,4.58117 0.864071,0.77143 c 1.494147,1.33396 4.262753,0.93717 5.094195,-0.73008 0.261702,-0.52478 0.401926,-2.06788 0.470697,-5.17978 0.09706,-4.39194 0.1036,-4.43374 0.718002,-4.58795 0.341029,-0.0856 0.86677,-0.0773 1.168315,0.0184 0.528437,0.16772 0.548053,0.34798 0.542452,4.98483 -0.0068,5.62212 -0.25186,6.52241 -2.110227,7.75222 -1.479947,0.97938 -4.833676,1.19314 -6.493867,0.4139 z m 15.686971,0.10365 c -2.584987,-0.92249 -4.163322,-3.08643 -4.3713,-5.99317 -0.278956,-3.89879 1.979888,-6.7664 5.806437,-7.37129 2.48538,-0.39289 5.382147,0.68336 6.1041,2.26787 0.271232,0.59529 0.230817,0.73431 -0.3413,1.17399 -0.873461,0.67128 -1.364935,0.63594 -2.104549,-0.15134 -1.446331,-1.53955 -4.079803,-1.34815 -5.670092,0.41211 -2.60912,2.88798 -0.740907,7.66013 2.997618,7.65709 1.129234,-7.9e-4 1.680163,-0.23293 3.236881,-1.36317 0.569889,-0.41376 2.081805,0.17827 2.081805,0.81519 0,0.61295 -1.513334,2.02354 -2.703481,2.51993 -1.195345,0.49857 -3.685503,0.51478 -5.036119,0.0328 z m 125.909799,-0.011 c -2.42926,-0.86592 -4.14929,-3.21254 -4.34577,-5.92888 -0.21958,-3.03562 1.09541,-5.43554 3.68923,-6.73303 2.7945,-1.39789 6.29797,-0.86738 8.05401,1.21955 l 0.69668,0.82795 -0.70526,0.60664 c -0.89519,0.77002 -1.208,0.76159 -2.15595,-0.0581 -2.82892,-2.44607 -6.98647,-0.21556 -6.98647,3.7482 0,1.14602 1.06568,3.04692 2.08965,3.7274 1.50463,0.9999 3.53209,0.78535 4.97331,-0.52631 0.64345,-0.5856 1.59685,-0.49739 2.30777,0.21353 0.37281,0.37281 0.35716,0.48594 -0.16487,1.19202 -0.90739,1.22731 -2.92831,2.1016 -4.82604,2.08785 -0.88093,-0.006 -2.06276,-0.17597 -2.62629,-0.37684 z M 9.9054737,216.55437 c -0.091991,-0.23972 -0.1672571,-3.09653 -0.1672571,-6.34845 0,-5.16131 0.05593,-5.96852 0.4401664,-6.35275 0.636851,-0.63685 7.215438,-0.47065 8.485043,0.21437 1.727295,0.93196 2.186053,3.30495 0.981952,5.0793 -0.670293,0.98773 -0.67173,1.00128 -0.165354,1.55827 0.829921,0.91289 1.10611,1.64439 1.10611,2.92962 0,1.01069 -0.150274,1.376 -0.905069,2.20021 l -0.905069,0.9883 -4.351632,0.0835 c -3.845252,0.0738 -4.371096,0.0328 -4.5188903,-0.35237 z m 7.4822573,-2.35578 c 0.701371,-0.63473 0.706744,-1.5868 0.01287,-2.28067 -0.470576,-0.47058 -0.817908,-0.52987 -2.711979,-0.46302 l -2.172282,0.0767 -0.0814,1.43016 c -0.05464,0.95994 0.03236,1.50719 0.264584,1.66442 0.19029,0.12883 1.198654,0.19785 2.240808,0.15337 1.405381,-0.06 2.037559,-0.21004 2.447396,-0.58094 z m -0.300052,-5.59243 c 0.815142,-0.57095 0.791092,-1.82413 -0.04553,-2.3723 -0.464658,-0.30446 -1.152399,-0.39426 -2.579687,-0.33683 l -1.946121,0.0783 -0.08284,1.15474 c -0.04556,0.63512 -0.01953,1.31973 0.05784,1.52136 0.207052,0.53957 3.81205,0.50406 4.596333,-0.0453 z m 35.172711,8.18544 c -0.103862,-0.10387 -0.188839,-3.00269 -0.188839,-6.44183 0,-6.68588 0.03882,-6.88798 1.322917,-6.88798 1.137462,0 1.322917,0.43396 1.322917,3.09562 0,1.35334 0.107534,2.46063 0.238966,2.46063 0.131429,0 1.163294,-1.13752 2.293027,-2.52782 1.129734,-1.3903 2.26453,-2.64046 2.521765,-2.77813 0.820143,-0.43892 2.619159,-0.23721 2.619159,0.29367 0,0.12252 -1.020996,1.38971 -2.268882,2.81596 -1.247883,1.42626 -2.330162,2.73675 -2.40506,2.9122 -0.0749,0.17545 1.06516,1.78046 2.533465,3.56668 1.468303,1.78622 2.669643,3.3393 2.669643,3.4513 0,0.112 -0.651052,0.20364 -1.446786,0.20364 h -1.446784 l -2.021682,-2.51355 c -2.701165,-3.35834 -3.062216,-3.32927 -3.286831,0.26459 l -0.132292,2.11666 -1.067932,0.0786 c -0.587362,0.0432 -1.152909,-0.006 -1.256771,-0.11024 z m 12.775745,-6.42234 c 0,-5.76175 0.05239,-6.60638 0.418515,-6.74687 0.637691,-0.24471 8.131488,-0.18354 8.5308,0.0696 0.210706,0.13359 0.316169,0.58019 0.264583,1.12043 l -0.08577,0.89829 -3.175,0.1323 -3.175,0.13229 -0.07935,1.52135 -0.07935,1.52136 h 3.002997 c 3.154006,0 3.637995,0.15839 3.637995,1.19062 0,1.0322 -0.484013,1.19063 -3.637418,1.19063 h -3.002415 l 0.07877,1.65364 0.07877,1.65365 3.241146,0.0743 3.241146,0.0743 v 1.05019 1.05019 h -4.630209 -4.630208 z m 15.771017,6.16776 c -0.08833,-0.23018 -0.1606,-1.48348 -0.1606,-2.78511 v -2.3666 l -2.38125,-3.5579 c -1.309687,-1.95684 -2.38125,-3.67784 -2.38125,-3.82443 0,-0.14659 0.297656,-0.34124 0.661458,-0.43255 1.36587,-0.34281 1.939867,0.0731 3.603038,2.61084 0.879486,1.34194 1.700715,2.47698 1.824956,2.52231 0.124243,0.0453 0.799237,-0.83979 1.499992,-1.96693 1.737037,-2.79396 2.234411,-3.27486 3.387042,-3.27486 0.606526,0 1.002311,0.14577 1.102143,0.40592 0.09572,0.24945 -0.774457,1.80844 -2.257264,4.04407 l -2.413031,3.63814 v 2.70281 2.70281 h -1.162318 c -0.815805,0 -1.210196,-0.12477 -1.322916,-0.41852 z m 9.3644,-6.16776 c 0,-5.76175 0.05239,-6.60638 0.418516,-6.74687 0.637691,-0.24471 8.131487,-0.18354 8.530799,0.0696 0.210706,0.13359 0.316169,0.58019 0.264583,1.12043 l -0.08577,0.89829 -3.175,0.1323 -3.175,0.13229 -0.07935,1.52135 -0.07935,1.52136 h 3.002997 c 3.154005,0 3.637994,0.15839 3.637994,1.19062 0,1.0322 -0.484012,1.19063 -3.637417,1.19063 h -3.002415 l 0.07877,1.65364 0.07877,1.65365 3.241146,0.0743 3.241145,0.0743 v 1.05019 1.05019 h -4.630208 -4.630209 z m 21.320168,6.356 c -0.31738,-0.51352 -4.916,-12.3571 -4.916,-12.66096 0,-0.45889 1.26252,-0.72591 2.07733,-0.43935 0.56567,0.19893 0.87236,0.75065 1.8228,3.27915 0.62848,1.67199 1.45093,3.85335 1.82765,4.84747 0.37672,0.99411 0.7842,1.70824 0.90549,1.58694 0.1213,-0.12129 1.00426,-2.29939 1.96213,-4.84022 0.95788,-2.54082 1.88633,-4.71164 2.0632,-4.82404 0.4337,-0.27559 1.82253,-0.2592 2.27414,0.0268 0.29282,0.18546 -0.14298,1.51942 -2.20288,6.74282 l -2.56791,6.51163 h -1.55182 c -0.8535,0 -1.61586,-0.10363 -1.69413,-0.23028 z m 10.16525,-6.356 c 0,-5.76175 0.0524,-6.60638 0.41852,-6.74687 0.63769,-0.24471 8.13148,-0.18354 8.53079,0.0696 0.21071,0.13359 0.31617,0.58019 0.26459,1.12043 l -0.0858,0.89829 -3.175,0.1323 -3.175,0.13229 -0.0794,1.52135 -0.0794,1.52136 h 3.00299 c 3.15401,0 3.638,0.15839 3.638,1.19062 0,1.0322 -0.48402,1.19063 -3.63742,1.19063 h -3.00242 l 0.0788,1.65364 0.0788,1.65365 3.24114,0.0743 3.24115,0.0743 v 1.05019 1.05019 h -4.63021 -4.63021 z m 12.09509,6.42234 c -0.10386,-0.10387 -0.18884,-3.01192 -0.18884,-6.46235 0,-5.24457 0.0649,-6.32735 0.39558,-6.60181 0.28532,-0.23679 1.3363,-0.29847 3.77032,-0.22127 2.74935,0.0872 3.53746,0.20333 4.2529,0.62664 1.34604,0.79643 1.89995,1.89927 1.89995,3.78277 0,1.42238 -0.0958,1.72234 -0.81004,2.5358 -0.44553,0.50742 -1.04084,0.99584 -1.32292,1.08537 -0.28208,0.0895 -0.51287,0.27512 -0.51287,0.41242 0,0.13731 0.59531,1.19955 1.32291,2.36053 0.72761,1.16099 1.32292,2.23747 1.32292,2.39218 0,0.17303 -0.53276,0.25053 -1.3841,0.20134 l -1.38409,-0.08 -1.41892,-2.3151 c -1.38924,-2.26667 -1.44033,-2.3151 -2.44206,-2.3151 h -1.02314 l -0.0764,2.3151 -0.0764,2.3151 -1.06793,0.0786 c -0.58736,0.0432 -1.15291,-0.006 -1.25677,-0.11024 z m 6.93548,-7.62369 c 0.81093,-0.73388 0.73226,-2.08366 -0.16247,-2.78746 -0.58996,-0.46406 -1.00681,-0.5462 -2.4474,-0.48223 l -1.73632,0.0771 -0.0804,1.55787 c -0.11965,2.31721 -0.0849,2.35512 2.04846,2.23457 1.31093,-0.0741 1.98508,-0.24412 2.37817,-0.59986 z m 8.96299,7.72148 c -0.0288,-0.0364 -0.11805,-2.50693 -0.19844,-5.4901 l -0.14616,-5.42396 -1.71293,-0.0803 c -0.95664,-0.0448 -1.80179,-0.22008 -1.91418,-0.39688 -0.32466,-0.51069 -0.24017,-1.17398 0.20643,-1.62058 0.34506,-0.34507 1.17376,-0.41577 4.87315,-0.41577 2.45155,0 4.64571,0.0723 4.87589,0.1606 0.28246,0.10838 0.41851,0.49545 0.41851,1.19062 v 1.03003 h -1.82377 c -1.41897,0 -1.85942,0.0929 -1.98438,0.41851 -0.0883,0.23018 -0.1606,2.7305 -0.1606,5.55625 v 5.13774 h -1.19062 c -0.65484,0 -1.21415,-0.0298 -1.2429,-0.0662 z m 8.78352,-6.68073 v -6.74687 h 1.19063 1.19062 v 6.74687 6.74688 h -1.19062 -1.19063 z m 18.423,6.53803 c -0.18782,-0.30388 4.76268,-12.79541 5.1744,-13.0565 0.43331,-0.27478 2.35561,-0.28926 2.77761,-0.0209 0.3458,0.2199 5.11041,12.25241 5.11041,12.90581 0,0.32546 -0.2771,0.39192 -1.36826,0.32814 -1.25892,-0.0736 -1.38863,-0.14341 -1.62303,-0.87372 -0.46093,-1.43611 -0.56933,-1.47823 -3.59664,-1.39761 l -2.80478,0.0747 -0.52232,1.12448 c -0.50637,1.09016 -0.5604,1.12448 -1.77032,1.12448 -0.6864,0 -1.30608,-0.094 -1.37707,-0.20885 z m 8.41649,-4.7928 c 0.18214,-0.2947 -1.57965,-4.92023 -1.87403,-4.92023 -0.21641,0 -1.90923,4.22781 -1.9334,4.82865 -0.0158,0.39208 3.56843,0.4783 3.80743,0.0916 z m 6.65862,4.58313 c -0.0883,-0.23018 -0.1606,-3.07918 -0.1606,-6.3311 0,-6.28829 0.0892,-6.74413 1.32017,-6.74413 1.33293,0 1.32566,-0.0303 1.32566,5.53164 0,3.69978 0.0921,5.30249 0.3175,5.52794 0.20375,0.20375 1.24648,0.3175 2.91042,0.3175 h 2.59291 v 1.05833 1.05834 h -4.07273 c -3.46973,0 -4.09651,-0.062 -4.23333,-0.41852 z m -86.61048,-29.01638 c -0.14327,-0.1819 -0.34119,-0.66804 -0.43983,-1.08032 -0.48863,-2.04243 -2.19776,-3.57923 -4.43085,-3.98409 -1.941474,-0.35199 -2.468826,-1.20178 -3.014394,-4.85746 -0.15376,-1.03031 -0.233061,-1.12448 -0.946809,-1.12448 -1.426003,0 -2.540783,0.66997 -3.158484,1.89821 -0.805588,1.60184 -1.247569,2.03528 -2.27121,2.22732 -0.616014,0.11556 -1.098201,0.0313 -1.562815,-0.27314 -0.644861,-0.42252 -0.70426,-0.41306 -1.474343,0.23492 -0.441325,0.37135 -0.928044,0.67519 -1.081598,0.67519 -0.153554,0 -0.672203,-0.41672 -1.152557,-0.92605 -0.700296,-0.74253 -1.07351,-0.92652 -1.883325,-0.92846 -0.555474,-0.001 -1.605267,-0.29526 -2.332871,-0.65318 -0.727604,-0.35792 -1.524035,-0.65449 -1.769846,-0.65904 -0.245811,-0.005 -0.997193,0.46798 -1.669738,1.05006 -0.672544,0.58208 -1.459605,1.05833 -1.749022,1.05833 -1.041848,0 -2.093013,-0.83232 -3.673812,-2.90894 -1.043807,-1.3712 -1.851326,-2.17399 -2.300086,-2.28662 -0.380352,-0.0955 -1.902587,-0.18591 -3.382743,-0.20098 -2.410153,-0.0246 -2.792667,-0.0965 -3.66291,-0.68887 -1.188236,-0.80885 -1.757802,-1.93101 -1.701152,-3.35162 0.03022,-0.75778 -0.225997,-1.60872 -0.871866,-2.89566 -0.881158,-1.75576 -0.953423,-1.82565 -1.972993,-1.9082 -1.35868,-0.11 -1.984375,-0.68251 -1.984375,-1.81571 0,-1.26971 -0.533958,-1.32879 -2.124035,-0.23502 -2.053444,1.41253 -3.087833,1.25269 -4.498851,-0.69516 l -0.785447,-1.08428 v -7.50093 c 0,-7.36223 -0.0099,-7.50092 -0.537268,-7.50092 -0.295495,0 -2.144938,0.29692 -4.109866,0.65983 -5.675718,1.04827 -12.819076,1.93686 -17.974742,2.23595 -9.79133,0.56801 -15.855806,-0.76097 -17.4399161,-3.82183 -0.7525364,-1.45407 -0.8893967,-4.58214 -0.2905996,-6.64193 1.0162197,-3.49567 3.3357837,-6.96066 7.0954697,-10.59927 4.569133,-4.42199 9.739995,-7.92737 16.720463,-11.33499 5.506686,-2.68816 6.091923,-2.71959 1.190625,-0.0639 -9.172271,4.96976 -15.169713,9.40185 -19.262767,14.2351 -3.382005,3.99362 -4.8714306,7.23589 -4.9157364,10.70087 -0.042612,3.33252 1.0178824,4.62654 4.5993364,5.61214 2.678245,0.73704 13.417751,0.6655 19.314584,-0.12865 5.718514,-0.77014 14.860037,-2.42446 15.278722,-2.76496 0.25967,-0.21118 0.344027,-7.72692 0.396875,-35.36002 l 0.06711,-35.091844 5.953125,-0.163944 c 3.274219,-0.09017 10.834688,-0.205258 16.801042,-0.255754 l 10.847917,-0.09181 1.616604,0.858602 c 1.400379,0.743762 1.717493,0.820242 2.370921,0.571809 0.991021,-0.376785 1.756772,-0.160049 2.861503,0.809919 0.498084,0.437324 1.601597,1.024305 2.452248,1.304406 0.921269,0.30335 1.707113,0.753145 1.943516,1.112407 1.613506,2.45206 2.605773,3.276301 3.213082,2.668992 0.135551,-0.135551 0.390794,-0.822158 0.567208,-1.525794 0.176414,-0.703636 0.453038,-1.322681 0.614722,-1.375653 0.161685,-0.05297 0.785181,0.314081 1.385554,0.815673 0.73136,0.611037 1.2672,0.866058 1.62379,0.772811 0.62881,-0.164441 1.85606,0.566023 1.85606,1.104738 0,0.207074 0.78754,1.275893 1.75007,2.375152 1.60067,1.828035 1.83554,1.998654 2.75126,1.998654 0.60072,0 1.60475,-0.317492 2.51013,-0.79375 1.13573,-0.597429 1.86203,-0.79375 2.93652,-0.79375 1.24732,0 1.55296,-0.112379 2.42053,-0.889987 2.06706,-1.852718 4.01675,-2.35015 5.91693,-1.509612 1.58465,0.700966 4.51139,0.968045 6.04745,0.551858 0.97879,-0.265197 1.71593,-0.857811 4.29044,-3.44923 3.71381,-3.738197 6.70203,-5.81588 12.13443,-8.436951 3.63214,-1.752468 11.64562,-4.654969 13.34954,-4.835229 l 0.79375,-0.08397 0.0657,20.505208 c 0.0361,11.277864 0.12271,20.656719 0.19243,20.841909 0.1407,0.37373 1.61805,-0.32111 8.73774,-4.10964 11.4708,-6.103835 19.80404,-11.744633 24.24549,-16.41184 2.53412,-2.662921 3.52396,-4.372023 3.53105,-6.096821 0.004,-0.959178 -0.1338,-1.269944 -0.84426,-1.904732 -1.46202,-1.306322 -3.08913,-1.640465 -8.66091,-1.778604 -3.57299,-0.08859 -6.40616,0.0073 -9.8679,0.334037 -7.60745,0.717981 -6.20482,0.206449 2.31216,-0.84323 4.78326,-0.589515 11.48929,-0.593571 13.68794,-0.0083 2.87338,0.764908 4.56831,2.345317 4.56831,4.259662 0,0.994256 -0.84493,3.06306 -1.84413,4.515344 -3.75348,5.455494 -15.30866,13.522664 -31.0965,21.709804 -2.47385,1.28287 -4.55678,2.38194 -4.62873,2.44238 -0.0719,0.0604 -0.191,0.77518 -0.26458,1.5883 -0.12504,1.38187 -0.18917,1.49716 -0.98201,1.76538 -1.51918,0.51393 -1.57281,0.72743 -0.71805,2.85866 0.67254,1.67687 0.77002,2.25157 0.75309,4.43975 -0.0257,3.3166 -0.39677,4.86625 -1.9642,8.20208 -0.90171,1.91904 -1.39905,3.39177 -1.60829,4.7625 -0.16661,1.09141 -0.462,2.29356 -0.65643,2.67144 -0.19442,0.37789 -0.29004,0.92976 -0.21247,1.22638 0.0796,0.30438 -0.22547,1.37435 -0.70035,2.45631 -0.78641,1.79176 -0.82031,1.99226 -0.51887,3.06887 0.27032,0.96549 0.25826,1.24992 -0.0745,1.75782 -0.21837,0.33328 -0.48099,1.21642 -0.58361,1.96255 -0.18566,1.34989 -0.19264,1.35812 -1.41157,1.66505 -1.25942,0.31713 -1.92686,0.89509 -4.95023,4.2866 -1.05334,1.1816 -1.65677,1.60388 -2.9612,2.07226 -0.94593,0.33965 -2.21968,1.08452 -3.01399,1.76253 -1.6777,1.43207 -2.3577,1.44042 -2.75087,0.0338 -0.15083,-0.53965 -0.40811,-1.11506 -0.57173,-1.27867 -0.44396,-0.44397 -1.57819,0.90477 -1.92751,2.29205 -0.31789,1.26244 -0.78217,1.61988 -2.47921,1.90867 -0.99107,0.16865 -1.20579,0.3457 -1.97206,1.62604 -0.47294,0.79023 -0.86068,1.7397 -0.86164,2.10994 -0.001,0.37024 -0.22703,1.01489 -0.50238,1.43255 -0.45109,0.68422 -0.46401,0.84706 -0.13055,1.64515 0.20591,0.49282 0.37009,1.76983 0.37009,2.87863 0,1.91541 -0.0241,1.99288 -0.62176,1.99288 -0.34197,0 -1.14223,0.37703 -1.77837,0.83784 -1.13364,0.8212 -2.40011,1.08235 -2.8871,0.59532 -0.14696,-0.14698 -0.14203,-0.68972 0.0125,-1.37751 0.16822,-0.74865 0.16389,-1.30527 -0.0127,-1.63525 -0.39592,-0.7398 -1.81483,-1.66793 -2.27811,-1.49016 -0.22165,0.0851 -0.76545,0.95938 -1.20843,1.94293 -0.44297,0.98356 -1.2232,2.48062 -1.73384,3.3268 -0.86751,1.43757 -0.91013,1.61117 -0.6496,2.64583 0.15335,0.60903 0.33901,1.72706 0.41258,2.48452 0.0736,0.75746 0.32944,1.67584 0.56859,2.04084 0.41851,0.63871 0.40764,0.68883 -0.28934,1.33477 -0.49377,0.45761 -1.02757,0.67244 -1.67773,0.6752 -1.38794,0.006 -1.67346,0.30311 -1.90084,1.97868 -0.11226,0.82727 -0.4213,1.74891 -0.68675,2.04807 -1.37877,1.5539 -7.41162,3.01347 -8.21896,1.98847 z m 4.29675,-1.67117 c 2.59364,-0.72189 3.30729,-1.52713 3.30729,-3.73174 0,-0.86965 1.12098,-1.9383 2.0385,-1.94333 0.40679,-0.002 0.87788,-0.092 1.04686,-0.19953 0.43269,-0.2753 0.0141,-3.83336 -0.5809,-4.93831 l -0.4616,-0.85712 1.12892,-1.93298 c 0.62091,-1.06313 1.48211,-2.71968 1.91378,-3.68122 0.89316,-1.98944 2.16484,-3.46804 2.98274,-3.46804 0.83053,0 3.57337,2.71652 3.57337,3.53907 0,0.95011 0.41406,1.07685 1.34723,0.41237 0.76929,-0.54778 0.80675,-0.6551 0.67538,-1.93496 -0.0765,-0.74526 -0.21642,-1.7819 -0.31095,-2.30365 -0.12718,-0.7019 -0.028,-1.21698 0.38114,-1.98045 0.30417,-0.56751 0.55564,-1.21219 0.55884,-1.43263 0.0109,-0.75344 0.97026,-2.52485 1.90298,-3.51381 0.73212,-0.77627 1.13082,-0.98802 1.86037,-0.98802 1.02372,0 1.36098,-0.29113 1.62728,-1.4047 0.25844,-1.08071 2.19967,-3.09322 2.98366,-3.09322 0.62031,0 1.74881,0.88569 1.96859,1.54503 0.074,0.22209 0.74105,0.009 2.11569,-0.67649 1.10417,-0.55045 2.38258,-1.17942 2.84093,-1.3977 0.45834,-0.21828 1.69676,-1.39917 2.75204,-2.62419 1.23996,-1.43941 2.38656,-2.47806 3.2413,-2.93612 1.1383,-0.61004 1.3448,-0.84536 1.48189,-1.68874 0.0876,-0.53897 0.28608,-1.10674 0.44105,-1.26171 0.16899,-0.16899 0.22298,-0.85134 0.13491,-1.70474 -0.12099,-1.17226 -0.0238,-1.69712 0.55144,-2.979 0.49504,-1.10311 0.65099,-1.79262 0.53575,-2.36881 -0.11381,-0.56906 -0.004,-1.0748 0.36637,-1.68671 0.2909,-0.48066 0.61094,-1.58832 0.71119,-2.46144 0.12094,-1.05333 0.61992,-2.53607 1.48291,-4.40656 2.26273,-4.90434 2.72749,-8.80293 1.41981,-11.90983 -0.3741,-0.88884 -0.68969,-1.95034 -0.70131,-2.35889 -0.0269,-0.94635 0.6364,-1.96214 1.57505,-2.41202 0.7879,-0.37764 0.86649,-0.89716 0.12636,-0.83536 -0.24871,0.0208 -3.30969,1.37097 -6.80219,3.00047 -3.4925,1.62949 -9.14574,4.15026 -12.56275,5.60172 -3.417,1.45145 -6.26385,2.69012 -6.32632,2.75259 -0.0625,0.0625 0.0841,0.33206 0.32576,0.59907 1.47778,1.63294 -1.27819,4.00737 -4.65795,4.0131 -1.33503,0.002 -1.92945,0.20428 -4.7625,1.61862 -1.78039,0.88882 -3.44544,1.80024 -3.7001,2.02538 -0.70837,0.62626 -0.57392,1.83779 0.70713,6.37206 1.84535,6.53159 3.32777,12.4394 3.32777,13.26201 0,1.11974 -1.21732,1.98109 -4.10887,2.90733 -4.71742,1.51113 -5.62804,1.57915 -6.13863,0.45853 -0.1505,-0.33031 -1.07635,-3.87013 -2.05744,-7.86627 -0.98109,-3.99614 -1.88984,-7.38059 -2.01943,-7.52101 -0.14953,-0.16202 -1.46678,0.0619 -3.60511,0.61291 -1.85321,0.47752 -4.306689,1.01182 -5.452163,1.18734 l -2.082684,0.31912 0.04674,7.1787 c 0.04603,7.06995 0.03813,7.18472 -0.521689,7.57683 -0.893194,0.62561 -5.756897,2.37539 -6.166152,2.21834 -0.202581,-0.0777 -0.442897,-0.47854 -0.534032,-0.89068 -0.234606,-1.06093 -0.947669,-11.12999 -0.989918,-13.9785 -0.01942,-1.30969 -0.111101,-2.73844 -0.203721,-3.175 -0.284988,-1.34326 -1.473547,-1.22214 -8.822031,0.89904 -7.181369,2.07294 -17.783575,4.805 -24.077783,6.20457 -2.287421,0.50862 -4.281718,1.00064 -4.431771,1.09338 -0.176559,0.10912 -0.272822,2.70873 -0.272822,7.36762 v 7.19901 l 0.670996,0.98746 c 0.369049,0.5431 0.886966,0.98746 1.150927,0.98746 0.263962,0 0.991973,-0.37092 1.617803,-0.82427 2.212335,-1.60261 3.853066,-1.20388 4.211878,1.02357 0.145415,0.90272 0.242181,0.999 1.082689,1.07719 0.507648,0.0472 1.18683,0.33206 1.509294,0.63296 0.866264,0.80835 2.19183,4.18859 2.19183,5.58926 0,0.99898 0.128076,1.29327 0.814051,1.87048 0.928759,0.7815 0.816486,0.761 4.345324,0.79316 3.191523,0.0291 3.533449,0.21082 5.564947,2.95781 1.744242,2.35857 2.200828,2.54742 3.468293,1.43457 1.660319,-1.45778 2.538143,-1.55112 4.648407,-0.49427 0.539906,0.27039 1.513035,0.49162 2.162513,0.49162 0.883394,0 1.385264,0.17199 1.992263,0.68275 l 0.8114,0.68275 0.699791,-0.55046 c 0.876837,-0.68972 1.438992,-0.69512 2.215928,-0.0213 0.923388,0.80085 1.244063,0.66088 2.145612,-0.93658 1.09165,-1.9343 2.308598,-2.58847 4.865847,-2.61562 l 1.852083,-0.0197 0.17762,2.11666 c 0.252058,3.00374 0.486347,3.48566 1.86129,3.82857 2.74943,0.68571 4.30598,1.95918 5.2517,4.2966 0.56332,1.39231 0.62996,1.40333 3.55731,0.58856 z M 94.722111,152.31203 c 0.104457,-0.16902 0.142584,-0.54642 0.08472,-0.83867 -0.05786,-0.29225 -0.176599,-2.55543 -0.263858,-5.02928 -0.237832,-6.74266 -0.319342,-7.23288 -1.302293,-7.83227 -0.451093,-0.27507 -1.147593,-0.50057 -1.547775,-0.50112 l -0.727604,-9.9e-4 0.0063,4.43177 c 0.0064,4.51893 0.357905,10.43304 0.648004,10.90244 0.186415,0.30162 2.80759,-0.65464 3.102539,-1.13188 z m 25.090609,-2.99183 c 0.60789,-0.60789 -2.19611,-10.60395 -3.71987,-13.26102 l -0.79659,-1.38906 h -1.72293 c -0.94762,0 -2.12625,0.16851 -2.61919,0.37448 -1.68512,0.70409 -1.68254,0.7584 0.41277,8.69123 1.04686,3.96339 2.01272,7.27784 2.14636,7.36544 0.29927,0.19617 5.90799,-1.3896 6.29945,-1.78107 z m -61.812221,-5.92964 c 6.333826,-1.49556 15.597066,-3.93468 18.647172,-4.91003 0.299736,-0.0958 0.28765,-0.20467 -0.06615,-0.59561 -0.286498,-0.31658 -0.435078,-0.96341 -0.439359,-1.91272 -0.0035,-0.7889 -0.125034,-1.94846 -0.269946,-2.5768 -0.364271,-1.57943 0.06619,-3.10232 1.013743,-3.58645 1.363268,-0.69654 2.706963,0.35136 3.237111,2.52452 0.590881,2.42212 0.524674,2.42234 4.575561,-0.0151 3.45888,-2.08126 4.093859,-2.55505 3.807746,-2.84116 -0.07186,-0.0719 -0.937699,-0.24495 -1.924081,-0.38464 -0.986383,-0.13969 -1.950022,-0.38394 -2.141424,-0.54279 -0.1914,-0.15885 -0.518258,-0.22348 -0.72635,-0.14363 -0.20809,0.0798 -0.441601,-0.0197 -0.518909,-0.22112 -0.216781,-0.56491 -2.191271,-0.98432 -3.709506,-0.78795 -5.02639,0.65014 -10.237878,2.97654 -9.864694,4.40359 0.07033,0.26894 0.0199,0.42225 -0.11204,0.3407 -0.497943,-0.30774 -0.209249,-1.25653 0.619987,-2.03757 1.036839,-0.97657 3.452284,-2.11307 5.764287,-2.71217 1.576068,-0.4084 5.899875,-0.4777 7.134151,-0.11434 0.428427,0.12612 0.455348,-0.3903 0.23831,-4.57133 -0.09845,-1.89653 -0.0588,-2.08968 0.55544,-2.70557 0.363802,-0.36479 1.033267,-0.73751 1.487699,-0.82829 0.674868,-0.1348 0.971294,-0.0269 1.617986,0.58891 0.720005,0.68563 1.921399,3.1387 1.921399,3.92322 0,0.17632 0.224927,0.52414 0.49984,0.77293 0.472271,0.4274 1.417209,0.3926 17.131778,-0.63103 9.14756,-0.59587 17.00356,-1.20187 17.45778,-1.34667 l 0.82584,-0.26328 -0.0321,-2.48024 c -0.0296,-2.28305 0.0189,-2.53475 0.60933,-3.16572 0.84414,-0.90209 2.3361,-0.94524 3.11796,-0.0902 0.66977,0.7325 1.39998,2.1445 1.39998,2.70714 0,0.23008 0.15811,0.47899 0.35136,0.55315 0.75345,0.28912 25.31103,-10.49867 26.70229,-11.72993 0.43325,-0.38343 0.46302,-1.69195 0.46302,-20.353108 0,-22.60999 0.23762,-20.600961 -2.34373,-19.815956 -5.12072,1.55724 -10.86266,4.071991 -14.82074,6.490907 -2.95328,1.804855 -4.17049,2.804472 -7.30949,6.002832 -1.61044,1.640895 -3.04675,2.860069 -3.67033,3.115469 -1.3631,0.558278 -5.45821,0.550058 -6.913,-0.01389 -2.36117,-0.915284 -3.64446,-0.706025 -5.3114,0.866103 -1.20479,1.136264 -1.86535,1.407451 -3.35541,1.377542 -0.78685,-0.01579 -1.65041,0.233871 -2.77835,0.803252 -1.70339,0.859866 -3.11197,1.042355 -4.11651,0.53331 -0.73706,-0.373505 -4.1024,-3.923036 -4.30041,-4.535789 -0.0823,-0.254662 -0.2309,-0.472694 -0.33023,-0.484516 -0.0993,-0.01183 -0.50592,-0.04543 -0.90351,-0.07468 -0.3976,-0.02925 -0.87114,-0.201414 -1.05232,-0.382587 -0.262823,-0.262821 -0.497996,-0.128606 -1.163407,0.663974 -0.713145,0.849437 -0.990372,0.993386 -1.913152,0.993386 -1.223645,0 -2.321248,-0.854776 -3.277142,-2.552125 -0.533612,-0.947521 -1.133779,-1.320864 -2.659523,-1.654392 -0.403852,-0.08828 -1.177758,-0.560158 -1.719792,-1.04861 -0.907259,-0.817576 -1.091874,-0.877779 -2.324896,-0.758145 -1.132883,0.109916 -1.597269,-2.33e-4 -3.012102,-0.714436 l -1.672722,-0.844389 -15.508733,0.187471 c -9.607457,0.116136 -15.634579,0.287755 -15.839461,0.451022 -0.261493,0.208375 -0.330729,7.364989 -0.330729,34.186015 0,18.65735 0.0893,34.0132 0.198437,34.12411 0.292277,0.29701 1.999054,0.0109 7.053427,-1.1826 z m 17.354386,-18.4323 c -0.768395,-0.28089 -1.5875,-1.2352 -1.5875,-1.84955 0,-1.51 3.418478,-4.08102 7.232259,-5.43934 7.500583,-2.67141 14.388497,-2.60735 15.368339,0.14294 0.199261,0.55929 0.112964,0.85381 -0.4767,1.62689 -0.395999,0.51919 -1.100799,1.12923 -1.566219,1.35565 l -0.84622,0.41167 0.839288,-0.78668 c 1.341321,-1.25725 1.759281,-2.0298 1.430507,-2.64412 -0.488543,-0.91285 -1.940418,-1.18436 -5.426808,-1.01484 -5.672842,0.27582 -11.936495,2.34505 -14.725294,4.86456 -1.439796,1.30077 -1.360471,2.10456 0.287515,2.91346 0.968915,0.47558 1.067454,0.58255 0.529167,0.57443 -0.363802,-0.006 -0.840052,-0.0753 -1.058334,-0.15507 z m 41.148755,-4.98964 c -0.43325,-0.2259 -0.87791,-0.55259 -0.98814,-0.72597 -1.21583,-1.91229 2.0974,-4.75489 7.74428,-6.64426 6.1495,-2.05754 12.11221,-2.26546 14.07327,-0.49072 0.83559,0.7562 0.5934,2.01061 -0.59559,3.08479 -1.40826,1.27228 -1.58061,1.2106 -0.41673,-0.14913 0.52066,-0.60828 0.94666,-1.3042 0.94666,-1.54649 0,-2.60048 -9.32966,-2.01309 -16.39302,1.03209 -3.51274,1.51442 -5.29394,3.04371 -4.91944,4.22366 0.0895,0.28191 0.72443,0.75435 1.41101,1.04988 1.00175,0.43119 1.11767,0.54123 0.58686,0.55711 -0.3638,0.0109 -1.01593,-0.16505 -1.44916,-0.39096 z"
           id="path537" />
        <path
           style="fill:#5f5e5e;stroke-width:0.264583"
           d="m 56.720659,229.23976 c -0.326917,-0.32692 -0.415774,-1.0297 -0.415774,-3.28839 0,-3.49534 0.134093,-3.70417 2.378509,-3.70417 1.775822,0 2.383991,0.17274 2.383991,0.67714 0,0.25184 -0.483682,0.37899 -1.653646,0.43472 l -1.653646,0.0788 v 0.92604 0.92604 l 1.653646,0.0788 c 1.169964,0.0557 1.653646,0.18288 1.653646,0.43472 0,0.48821 -0.601062,0.67714 -2.154277,0.67714 h -1.31725 l 0.08212,0.99218 0.08212,0.99219 1.653646,0.0788 c 1.169964,0.0557 1.653646,0.18288 1.653646,0.43472 0,0.50439 -0.608169,0.67714 -2.383991,0.67714 -1.05355,0 -1.679575,-0.13262 -1.962735,-0.41578 z m 9.717384,-0.087 c -2.325291,-1.46096 -2.197989,-5.27613 0.217736,-6.52535 2.707733,-1.40022 5.83568,1.25998 5.024353,4.27302 -0.624795,2.32031 -3.302624,3.47088 -5.242089,2.25233 z m 3.380944,-1.329 c 2.090084,-2.09008 -0.469718,-5.78894 -2.85165,-4.12057 -0.85185,0.59666 -1.248164,2.03703 -0.873138,3.17336 0.603003,1.82712 2.390359,2.28165 3.724788,0.94721 z m 14.610734,1.40201 c -1.259406,-0.621 -1.779852,-1.57848 -1.779852,-3.27444 0,-1.71554 0.530349,-2.67134 1.822476,-3.2845 1.877672,-0.89101 4.061802,-0.17864 4.789088,1.562 1.41364,3.38332 -1.659233,6.56128 -4.831712,4.99694 z m 2.832235,-1.02591 c 2.001655,-1.03509 1.234207,-4.89436 -0.973283,-4.89436 -2.29561,0 -3.363426,2.84856 -1.693722,4.51826 0.865952,0.86596 1.536792,0.96056 2.667005,0.3761 z m 6.685431,0.94844 c -0.562348,-0.35322 -0.801367,-0.67477 -0.699296,-0.94077 0.193148,-0.50333 0.374578,-0.50455 1.324988,-0.009 0.978591,0.51037 1.804945,0.50424 2.32645,-0.0173 0.751892,-0.75189 0.41476,-1.18009 -1.446017,-1.8366 -1.557134,-0.5494 -2.106959,-1.10086 -2.106959,-2.11325 0,-1.10488 0.743677,-1.75346 2.172075,-1.89433 1.293202,-0.12754 2.406928,0.34315 2.548245,1.07695 0.08067,0.41888 -0.01757,0.46479 -0.659114,0.30805 -1.864331,-0.4555 -2.130928,-0.45711 -2.572465,-0.0156 -0.596976,0.59698 -0.226631,1.02574 1.349986,1.56295 1.68356,0.57366 2.188356,1.09711 2.188356,2.26925 0,1.28317 -0.698548,1.89873 -2.312424,2.03768 -0.944462,0.0813 -1.473131,-0.0258 -2.113825,-0.42821 z m 23.098273,0.0914 c -0.32692,-0.32692 -0.41577,-1.0297 -0.41577,-3.28839 0,-3.49534 0.13409,-3.70417 2.37851,-3.70417 1.77582,0 2.38399,0.17274 2.38399,0.67714 0,0.25184 -0.48369,0.37899 -1.65365,0.43472 l -1.65364,0.0788 v 0.92604 0.92604 l 1.65364,0.0788 c 1.16996,0.0557 1.65365,0.18288 1.65365,0.43472 0,0.48821 -0.60107,0.67714 -2.15428,0.67714 h -1.31725 l 0.0821,0.99218 0.0821,0.99219 1.65364,0.0788 c 1.16996,0.0557 1.65365,0.18288 1.65365,0.43472 0,0.50439 -0.60817,0.67714 -2.38399,0.67714 -1.05355,0 -1.67958,-0.13262 -1.96274,-0.41578 z m 9.66752,0.0465 c -1.06788,-0.59188 -1.33258,-1.41888 -1.34267,-4.19484 -0.009,-2.40642 0.0262,-2.57968 0.51979,-2.57968 0.49017,0 0.52917,0.17639 0.52917,2.39327 0,2.18823 0.0556,2.44892 0.64943,3.04271 0.85278,0.85278 1.81242,0.83451 2.50637,-0.0477 0.4611,-0.5862 0.54837,-1.07039 0.54837,-3.04271 0,-2.16917 0.0398,-2.34556 0.52916,-2.34556 0.49185,0 0.52917,0.17639 0.52917,2.50109 0,1.3756 -0.14224,2.81328 -0.31609,3.19484 -0.59338,1.30232 -2.74212,1.86041 -4.1527,1.07859 z m 18.00249,0.12933 c -0.34603,-0.21385 -2.68578,-5.87988 -2.68578,-6.50396 0,-0.21994 0.21803,-0.39989 0.48451,-0.39989 0.36581,0 0.72823,0.61579 1.47935,2.51354 0.54716,1.38244 1.0824,2.51354 1.18942,2.51354 0.10702,0 0.6127,-1.10133 1.12371,-2.4474 0.73857,-1.94544 1.04643,-2.46473 1.50107,-2.53194 0.78034,-0.11536 0.73561,0.23712 -0.38194,3.00969 -1.52229,3.77677 -1.91691,4.33679 -2.71034,3.84642 z m 4.87374,-0.17588 c -0.32691,-0.32692 -0.41577,-1.0297 -0.41577,-3.28839 0,-3.49534 0.13409,-3.70417 2.37851,-3.70417 1.77582,0 2.38399,0.17274 2.38399,0.67714 0,0.25184 -0.48368,0.37899 -1.65365,0.43472 l -1.65364,0.0788 v 0.92604 0.92604 l 1.65364,0.0788 c 1.16997,0.0557 1.65365,0.18288 1.65365,0.43472 0,0.48821 -0.60106,0.67714 -2.15428,0.67714 h -1.31725 l 0.0821,0.99218 0.0821,0.99219 1.65364,0.0788 c 1.16997,0.0557 1.65365,0.18288 1.65365,0.43472 0,0.50439 -0.60817,0.67714 -2.38399,0.67714 -1.05355,0 -1.67958,-0.13262 -1.96274,-0.41578 z m 12.61496,0.0357 c -0.82317,-0.37158 -1.12493,-1.01243 -0.62285,-1.32273 0.13037,-0.0806 0.57686,0.0307 0.99218,0.24734 0.9535,0.49729 1.70298,0.50229 2.35822,0.0157 0.74101,-0.55025 0.23533,-1.22415 -1.36638,-1.82092 -1.66599,-0.62072 -2.22107,-1.13855 -2.22107,-2.07204 0,-1.44361 1.62322,-2.36225 3.38382,-1.91502 0.93204,0.23676 1.65661,0.97254 1.30449,1.32466 -0.10327,0.10327 -0.64756,0.036 -1.20954,-0.14945 -2.37248,-0.78299 -3.04086,0.78994 -0.70064,1.64887 0.7276,0.26705 1.54962,0.70866 1.82671,0.98135 0.64875,0.63846 0.61739,2.0418 -0.0608,2.71998 -0.67332,0.67332 -2.56203,0.84877 -3.68415,0.34224 z m -134.299594,-0.083 c -0.184467,-0.30272 2.328019,-6.42887 2.741425,-6.68437 0.199906,-0.12355 0.558011,-0.11936 0.798491,0.009 0.404082,0.21626 2.899775,5.86411 2.899775,6.56231 0,0.60546 -1.06695,0.32295 -1.322916,-0.3503 -0.231892,-0.60992 -0.38268,-0.66145 -1.935356,-0.66145 -1.539372,0 -1.709735,0.0568 -1.985254,0.66145 -0.28785,0.63177 -0.939604,0.88405 -1.196165,0.46302 z m 4.175961,-2.42349 c 0.08181,-0.13238 -0.104566,-0.81698 -0.414173,-1.52135 l -0.562922,-1.28068 -0.489316,1.05834 c -0.744757,1.61082 -0.668096,1.98437 0.407234,1.98437 0.500734,0 0.977365,-0.10831 1.059177,-0.24068 z m 4.292204,2.44554 c -0.09701,-0.097 -0.17639,-1.39396 -0.17639,-2.88211 0,-2.90382 -0.06006,-3.02691 -1.476849,-3.02691 -0.719622,0 -0.878734,-0.64546 -0.221303,-0.89774 0.230183,-0.0883 1.232477,-0.1606 2.227318,-0.1606 2.042973,0 2.645834,0.15717 2.645834,0.68977 0,0.22728 -0.283993,0.36857 -0.740833,0.36857 -1.214901,0 -1.375834,0.39304 -1.375834,3.3602 0,2.09462 -0.08163,2.72521 -0.352777,2.72521 -0.194029,0 -0.432154,-0.0794 -0.529166,-0.17639 z m 8.55486,-2.52942 c 0,-2.98771 -0.159538,-3.3796 -1.375833,-3.3796 -0.456841,0 -0.740834,-0.14129 -0.740834,-0.36857 0,-0.5326 0.602861,-0.68977 2.645834,-0.68977 0.994841,0 1.997136,0.0723 2.227318,0.1606 0.702712,0.26966 0.487566,0.89735 -0.309089,0.90179 -1.262436,0.007 -1.364329,0.23103 -1.445326,3.17735 -0.06565,2.38786 -0.139258,2.77762 -0.539049,2.85416 -0.416912,0.0798 -0.463021,-0.18466 -0.463021,-2.65596 z m 4.12935,2.2873 c -0.20887,-0.54431 -0.20887,-5.49783 0,-6.04214 0.08833,-0.23018 0.324186,-0.41851 0.524126,-0.41851 0.37011,0 0.567976,0.56257 0.697931,1.98437 0.06965,0.76197 0.129027,0.79698 1.483093,0.87447 1.766329,0.10108 2.161334,-0.20973 2.161334,-1.70062 0,-0.98183 0.08059,-1.15822 0.529166,-1.15822 0.502031,0 0.529167,0.17639 0.529167,3.43958 0,3.23243 -0.03104,3.43958 -0.51534,3.43958 -0.435136,0 -0.527785,-0.21618 -0.595312,-1.38906 l -0.07997,-1.38906 -1.785938,-0.0782 -1.785937,-0.0782 v 1.04878 c 0,1.28199 -0.211794,1.88581 -0.661458,1.88581 -0.187143,0 -0.412531,-0.18833 -0.500859,-0.41851 z m 23.916484,-3.02107 c 0,-3.26319 0.02714,-3.43958 0.529167,-3.43958 0.44858,0 0.529167,0.17639 0.529167,1.15822 0,1.49089 0.395004,1.8017 2.161333,1.70062 1.354066,-0.0775 1.413447,-0.1125 1.483093,-0.87447 0.129956,-1.4218 0.327822,-1.98437 0.697931,-1.98437 0.560795,0 0.684726,0.62254 0.684726,3.43958 0,2.78879 -0.125153,3.43958 -0.661458,3.43958 -0.449665,0 -0.661459,-0.60382 -0.661459,-1.88581 v -1.04878 l -1.785937,0.0782 -1.785938,0.0782 -0.07997,1.38906 c -0.06753,1.17288 -0.160176,1.38906 -0.595312,1.38906 -0.484304,0 -0.51534,-0.20715 -0.51534,-3.43958 z m 7.408334,-0.13229 c 0,-3.39549 0.02614,-3.57188 0.529167,-3.57188 0.503033,0 0.529166,0.17639 0.529166,3.57188 0,3.39548 -0.02614,3.57187 -0.529166,3.57187 -0.503034,0 -0.529167,-0.17639 -0.529167,-3.57187 z m 20.902081,0.86606 c 0,-2.98771 -0.15954,-3.3796 -1.375831,-3.3796 -0.45684,0 -0.740833,-0.14129 -0.740833,-0.36857 0,-0.5326 0.602861,-0.68977 2.645834,-0.68977 0.99484,0 1.99714,0.0723 2.22732,0.1606 0.70271,0.26966 0.48756,0.89735 -0.30909,0.90179 -1.26244,0.007 -1.36433,0.23103 -1.44533,3.17735 -0.0656,2.38786 -0.13926,2.77762 -0.53905,2.85416 -0.41691,0.0798 -0.46302,-0.18466 -0.46302,-2.65596 z m 2.90925,2.37508 c -0.002,-0.60126 2.18507,-5.87775 2.63644,-6.3603 0.89629,-0.95819 1.30158,-0.36171 3.42858,5.04589 0.50251,1.27755 0.51204,1.41201 0.11104,1.56589 -0.29042,0.11145 -0.62892,-0.0703 -1.00161,-0.53766 -0.49231,-0.61741 -0.75332,-0.706 -2.08004,-0.706 -1.36147,0 -1.548,0.0678 -1.81846,0.66145 -0.30835,0.67675 -1.27384,0.92701 -1.27595,0.33073 z m 4.22757,-2.51354 c -0.004,-0.25466 -0.22813,-0.93927 -0.49847,-1.52135 l -0.49153,-1.05834 -0.5736,1.25983 c -0.31548,0.6929 -0.50086,1.37751 -0.41196,1.52135 0.0889,0.14384 0.57133,0.26153 1.07207,0.26153 0.69332,0 0.90877,-0.11041 0.90349,-0.46302 z m 4.11738,2.26654 c -0.078,-0.33709 -0.17154,-1.68446 -0.2079,-2.99414 -0.0644,-2.32206 -0.0825,-2.38322 -0.72755,-2.46037 -1.22064,-0.14601 -1.41857,-0.28057 -1.05573,-0.71776 0.23818,-0.28699 0.88603,-0.39375 2.38941,-0.39375 1.13444,0 2.25096,0.0723 2.48114,0.1606 0.70271,0.26966 0.48757,0.89735 -0.30909,0.90179 -1.26243,0.007 -1.36433,0.23103 -1.44532,3.17735 -0.065,2.36519 -0.14169,2.77808 -0.5296,2.85234 -0.2957,0.0566 -0.50292,-0.12649 -0.59536,-0.52606 z m 20.12724,0.15922 c -0.0883,-0.23019 -0.1606,-1.58967 -0.1606,-3.02107 0,-1.43141 0.0723,-2.79089 0.1606,-3.02107 0.35754,-0.93174 1.16889,-0.40033 2.79634,1.83151 1.11637,1.53096 1.70804,2.14399 1.85138,1.91823 0.11586,-0.18249 0.21248,-1.20373 0.21471,-2.26942 0.004,-1.70176 0.0604,-1.92678 0.46707,-1.84847 0.41149,0.0793 0.46302,0.45685 0.46302,3.39284 0,3.10434 -0.0319,3.30782 -0.52916,3.3725 -0.39665,0.0516 -0.92673,-0.49324 -2.11667,-2.17556 -0.87313,-1.23441 -1.6768,-2.24765 -1.78594,-2.25164 -0.10914,-0.004 -0.19844,0.81645 -0.19844,1.82319 0,2.0358 -0.15663,2.66747 -0.66145,2.66747 -0.18715,0 -0.41253,-0.18833 -0.50086,-0.41851 z m 7.24773,-3.15336 c 0,-3.39549 0.0261,-3.57188 0.52917,-3.57188 0.50303,0 0.52916,0.17639 0.52916,3.57188 0,3.39548 -0.0261,3.57187 -0.52916,3.57187 -0.50304,0 -0.52917,-0.17639 -0.52917,-3.57187 z m 15.34583,0.18 c 0,-3.76205 -0.004,-3.75336 1.67529,-3.7504 1.31914,0.002 2.79136,0.50404 3.0841,1.05104 0.4795,0.89595 0.31008,2.10416 -0.39376,2.80799 -0.81205,0.81205 -0.81211,0.82203 -0.0122,1.99926 0.35711,0.52554 0.57539,1.02943 0.48507,1.11976 -0.40768,0.40768 -0.94101,0.0663 -1.83031,-1.17154 -1.19185,-1.65897 -1.76381,-1.6552 -1.94989,0.0128 -0.0952,0.85374 -0.26198,1.21052 -0.59531,1.27381 -0.42169,0.0801 -0.46302,-0.21835 -0.46302,-3.34276 z m 3.5662,-0.74128 c 0.23594,-0.23595 0.39243,-0.61881 0.34775,-0.8508 -0.12448,-0.64638 -1.32855,-1.21007 -2.14634,-1.00481 -0.62072,0.15578 -0.70927,0.30952 -0.70927,1.2313 0,1.04926 0.004,1.0533 1.03943,1.0533 0.60575,0 1.21843,-0.17899 1.46843,-0.42899 z m 8.60464,0.56128 c 0,-3.39549 0.0261,-3.57188 0.52916,-3.57188 0.50304,0 0.52917,0.17639 0.52917,3.57188 0,3.39548 -0.0261,3.57187 -0.52917,3.57187 -0.50303,0 -0.52916,-0.17639 -0.52916,-3.57187 z m 4.37061,2.97656 c -0.0756,-0.32742 -0.16713,-1.66688 -0.20348,-2.97656 -0.0644,-2.32206 -0.0825,-2.38322 -0.72755,-2.46037 -1.22064,-0.14601 -1.41857,-0.28057 -1.05573,-0.71776 0.37702,-0.45428 4.34876,-0.56194 5.02227,-0.13613 0.53017,0.33518 0.0931,0.73568 -0.92383,0.8465 l -0.79375,0.0865 -0.0661,2.38125 c -0.0799,2.87938 -0.221,3.57187 -0.72766,3.57187 -0.21274,0 -0.44862,-0.26789 -0.52418,-0.59531 z m 6.21272,-0.79658 c 0,-1.21032 -0.15531,-1.6234 -1.19062,-3.16669 -1.32038,-1.96822 -1.42501,-2.32058 -0.68904,-2.32058 0.31232,0 0.8219,0.49916 1.3505,1.32291 0.4669,0.72761 0.94315,1.32292 1.05833,1.32292 0.11518,0 0.59143,-0.59531 1.05833,-1.32292 0.5286,-0.82375 1.03818,-1.32291 1.3505,-1.32291 0.73596,0 0.63133,0.35236 -0.68904,2.32058 -1.03531,1.54329 -1.19062,1.95637 -1.19062,3.16669 0,1.2155 -0.0671,1.39189 -0.52917,1.39189 -0.46211,0 -0.52917,-0.17639 -0.52917,-1.39189 z m 4.77281,-1.56841 c -0.67531,-0.72486 -0.71467,-2.32296 -0.0765,-3.10385 0.25466,-0.31159 0.88632,-0.63425 1.4037,-0.71703 0.76523,-0.12243 1.09832,-0.0179 1.78593,0.56073 1.01813,0.8567 1.13357,2.0784 0.29689,3.14206 -0.73272,0.9315 -2.59227,0.99589 -3.41007,0.11809 z m 2.10636,-0.0668 c 0,-0.5173 -0.51286,-0.79921 -0.84667,-0.46541 -0.14926,0.14927 -0.19139,0.40083 -0.0936,0.55903 0.25935,0.41964 0.94029,0.35184 0.94029,-0.0936 z m -1.32292,-1.59481 c 0,-0.92857 -0.083,-1.15047 -0.3868,-1.03389 -0.81227,0.3117 -0.80561,2.21621 0.008,2.21621 0.27245,0 0.37904,-0.33248 0.37904,-1.18232 z m 2.5932,0.21336 c 0.0453,-0.45232 -0.0823,-0.93034 -0.29559,-1.10733 -0.30942,-0.2568 -0.40287,-0.14117 -0.53274,0.65918 -0.0866,0.53383 -0.0915,1.07735 -0.0109,1.20782 0.28369,0.45901 0.76046,0.0274 0.83924,-0.75967 z M 26.26373,216.73897 c -1.311577,-0.61561 -2.392202,-1.85685 -2.755536,-3.16509 -0.395253,-1.42317 -0.361675,-9.39165 0.04127,-9.79459 0.418051,-0.41805 1.660366,-0.40668 2.013178,0.0184 0.163824,0.19739 0.313581,2.22524 0.363127,4.91711 l 0.08432,4.58117 0.864071,0.77143 c 1.494147,1.33396 4.262753,0.93717 5.094195,-0.73008 0.261702,-0.52478 0.401926,-2.06788 0.470697,-5.17978 0.09706,-4.39194 0.1036,-4.43374 0.718002,-4.58795 0.341029,-0.0856 0.86677,-0.0773 1.168315,0.0184 0.528437,0.16772 0.548053,0.34798 0.542452,4.98483 -0.0068,5.62212 -0.25186,6.52241 -2.110227,7.75222 -1.479947,0.97938 -4.833676,1.19314 -6.493867,0.4139 z m 15.686971,0.10365 c -2.584987,-0.92249 -4.163322,-3.08643 -4.3713,-5.99317 -0.278956,-3.89879 1.979888,-6.7664 5.806437,-7.37129 2.48538,-0.39289 5.382147,0.68336 6.1041,2.26787 0.271232,0.59529 0.230817,0.73431 -0.3413,1.17399 -0.873461,0.67128 -1.364935,0.63594 -2.104549,-0.15134 -1.446331,-1.53955 -4.079803,-1.34815 -5.670092,0.41211 -2.60912,2.88798 -0.740907,7.66013 2.997618,7.65709 1.129234,-7.9e-4 1.680163,-0.23293 3.236881,-1.36317 0.569889,-0.41376 2.081805,0.17827 2.081805,0.81519 0,0.61295 -1.513334,2.02354 -2.703481,2.51993 -1.195345,0.49857 -3.685503,0.51478 -5.036119,0.0328 z m 125.909799,-0.011 c -2.42926,-0.86592 -4.14929,-3.21254 -4.34577,-5.92888 -0.21958,-3.03562 1.09541,-5.43554 3.68923,-6.73303 2.7945,-1.39789 6.29797,-0.86738 8.05401,1.21955 l 0.69668,0.82795 -0.70526,0.60664 c -0.89519,0.77002 -1.208,0.76159 -2.15595,-0.0581 -2.82892,-2.44607 -6.98647,-0.21556 -6.98647,3.7482 0,1.14602 1.06568,3.04692 2.08965,3.7274 1.50463,0.9999 3.53209,0.78535 4.97331,-0.52631 0.64345,-0.5856 1.59685,-0.49739 2.30777,0.21353 0.37281,0.37281 0.35716,0.48594 -0.16487,1.19202 -0.90739,1.22731 -2.92831,2.1016 -4.82604,2.08785 -0.88093,-0.006 -2.06276,-0.17597 -2.62629,-0.37684 z M 9.9054737,216.55437 c -0.091991,-0.23972 -0.1672571,-3.09653 -0.1672571,-6.34845 0,-5.16131 0.05593,-5.96852 0.4401664,-6.35275 0.636851,-0.63685 7.215438,-0.47065 8.485043,0.21437 1.727295,0.93196 2.186053,3.30495 0.981952,5.0793 -0.670293,0.98773 -0.67173,1.00128 -0.165354,1.55827 0.829921,0.91289 1.10611,1.64439 1.10611,2.92962 0,1.01069 -0.150274,1.376 -0.905069,2.20021 l -0.905069,0.9883 -4.351632,0.0835 c -3.845252,0.0738 -4.371096,0.0328 -4.5188903,-0.35237 z m 7.4822573,-2.35578 c 0.701371,-0.63473 0.706744,-1.5868 0.01287,-2.28067 -0.470576,-0.47058 -0.817908,-0.52987 -2.711979,-0.46302 l -2.172282,0.0767 -0.0814,1.43016 c -0.05464,0.95994 0.03236,1.50719 0.264584,1.66442 0.19029,0.12883 1.198654,0.19785 2.240808,0.15337 1.405381,-0.06 2.037559,-0.21004 2.447396,-0.58094 z m -0.300052,-5.59243 c 0.815142,-0.57095 0.791092,-1.82413 -0.04553,-2.3723 -0.464658,-0.30446 -1.152399,-0.39426 -2.579687,-0.33683 l -1.946121,0.0783 -0.08284,1.15474 c -0.04556,0.63512 -0.01953,1.31973 0.05784,1.52136 0.207052,0.53957 3.81205,0.50406 4.596333,-0.0453 z m 35.172711,8.18544 c -0.103862,-0.10387 -0.188839,-3.00269 -0.188839,-6.44183 0,-6.68588 0.03882,-6.88798 1.322917,-6.88798 1.137462,0 1.322917,0.43396 1.322917,3.09562 0,1.35334 0.107534,2.46063 0.238966,2.46063 0.131429,0 1.163294,-1.13752 2.293027,-2.52782 1.129734,-1.3903 2.26453,-2.64046 2.521765,-2.77813 0.820143,-0.43892 2.619159,-0.23721 2.619159,0.29367 0,0.12252 -1.020996,1.38971 -2.268882,2.81596 -1.247883,1.42626 -2.330162,2.73675 -2.40506,2.9122 -0.0749,0.17545 1.06516,1.78046 2.533465,3.56668 1.468303,1.78622 2.669643,3.3393 2.669643,3.4513 0,0.112 -0.651052,0.20364 -1.446786,0.20364 h -1.446784 l -2.021682,-2.51355 c -2.701165,-3.35834 -3.062216,-3.32927 -3.286831,0.26459 l -0.132292,2.11666 -1.067932,0.0786 c -0.587362,0.0432 -1.152909,-0.006 -1.256771,-0.11024 z m 12.775745,-6.42234 c 0,-5.76175 0.05239,-6.60638 0.418515,-6.74687 0.637691,-0.24471 8.131488,-0.18354 8.5308,0.0696 0.210706,0.13359 0.316169,0.58019 0.264583,1.12043 l -0.08577,0.89829 -3.175,0.1323 -3.175,0.13229 -0.07935,1.52135 -0.07935,1.52136 h 3.002997 c 3.154006,0 3.637995,0.15839 3.637995,1.19062 0,1.0322 -0.484013,1.19063 -3.637418,1.19063 h -3.002415 l 0.07877,1.65364 0.07877,1.65365 3.241146,0.0743 3.241146,0.0743 v 1.05019 1.05019 h -4.630209 -4.630208 z m 15.771017,6.16776 c -0.08833,-0.23018 -0.1606,-1.48348 -0.1606,-2.78511 v -2.3666 l -2.38125,-3.5579 c -1.309687,-1.95684 -2.38125,-3.67784 -2.38125,-3.82443 0,-0.14659 0.297656,-0.34124 0.661458,-0.43255 1.36587,-0.34281 1.939867,0.0731 3.603038,2.61084 0.879486,1.34194 1.700715,2.47698 1.824956,2.52231 0.124243,0.0453 0.799237,-0.83979 1.499992,-1.96693 1.737037,-2.79396 2.234411,-3.27486 3.387042,-3.27486 0.606526,0 1.002311,0.14577 1.102143,0.40592 0.09572,0.24945 -0.774457,1.80844 -2.257264,4.04407 l -2.413031,3.63814 v 2.70281 2.70281 h -1.162318 c -0.815805,0 -1.210196,-0.12477 -1.322916,-0.41852 z m 9.3644,-6.16776 c 0,-5.76175 0.05239,-6.60638 0.418516,-6.74687 0.637691,-0.24471 8.131487,-0.18354 8.530799,0.0696 0.210706,0.13359 0.316169,0.58019 0.264583,1.12043 l -0.08577,0.89829 -3.175,0.1323 -3.175,0.13229 -0.07935,1.52135 -0.07935,1.52136 h 3.002997 c 3.154005,0 3.637994,0.15839 3.637994,1.19062 0,1.0322 -0.484012,1.19063 -3.637417,1.19063 h -3.002415 l 0.07877,1.65364 0.07877,1.65365 3.241146,0.0743 3.241145,0.0743 v 1.05019 1.05019 h -4.630208 -4.630209 z m 21.320168,6.356 c -0.31738,-0.51352 -4.916,-12.3571 -4.916,-12.66096 0,-0.45889 1.26252,-0.72591 2.07733,-0.43935 0.56567,0.19893 0.87236,0.75065 1.8228,3.27915 0.62848,1.67199 1.45093,3.85335 1.82765,4.84747 0.37672,0.99411 0.7842,1.70824 0.90549,1.58694 0.1213,-0.12129 1.00426,-2.29939 1.96213,-4.84022 0.95788,-2.54082 1.88633,-4.71164 2.0632,-4.82404 0.4337,-0.27559 1.82253,-0.2592 2.27414,0.0268 0.29282,0.18546 -0.14298,1.51942 -2.20288,6.74282 l -2.56791,6.51163 h -1.55182 c -0.8535,0 -1.61586,-0.10363 -1.69413,-0.23028 z m 10.16525,-6.356 c 0,-5.76175 0.0524,-6.60638 0.41852,-6.74687 0.63769,-0.24471 8.13148,-0.18354 8.53079,0.0696 0.21071,0.13359 0.31617,0.58019 0.26459,1.12043 l -0.0858,0.89829 -3.175,0.1323 -3.175,0.13229 -0.0794,1.52135 -0.0794,1.52136 h 3.00299 c 3.15401,0 3.638,0.15839 3.638,1.19062 0,1.0322 -0.48402,1.19063 -3.63742,1.19063 h -3.00242 l 0.0788,1.65364 0.0788,1.65365 3.24114,0.0743 3.24115,0.0743 v 1.05019 1.05019 h -4.63021 -4.63021 z m 12.09509,6.42234 c -0.10386,-0.10387 -0.18884,-3.01192 -0.18884,-6.46235 0,-5.24457 0.0649,-6.32735 0.39558,-6.60181 0.28532,-0.23679 1.3363,-0.29847 3.77032,-0.22127 2.74935,0.0872 3.53746,0.20333 4.2529,0.62664 1.34604,0.79643 1.89995,1.89927 1.89995,3.78277 0,1.42238 -0.0958,1.72234 -0.81004,2.5358 -0.44553,0.50742 -1.04084,0.99584 -1.32292,1.08537 -0.28208,0.0895 -0.51287,0.27512 -0.51287,0.41242 0,0.13731 0.59531,1.19955 1.32291,2.36053 0.72761,1.16099 1.32292,2.23747 1.32292,2.39218 0,0.17303 -0.53276,0.25053 -1.3841,0.20134 l -1.38409,-0.08 -1.41892,-2.3151 c -1.38924,-2.26667 -1.44033,-2.3151 -2.44206,-2.3151 h -1.02314 l -0.0764,2.3151 -0.0764,2.3151 -1.06793,0.0786 c -0.58736,0.0432 -1.15291,-0.006 -1.25677,-0.11024 z m 6.93548,-7.62369 c 0.81093,-0.73388 0.73226,-2.08366 -0.16247,-2.78746 -0.58996,-0.46406 -1.00681,-0.5462 -2.4474,-0.48223 l -1.73632,0.0771 -0.0804,1.55787 c -0.11965,2.31721 -0.0849,2.35512 2.04846,2.23457 1.31093,-0.0741 1.98508,-0.24412 2.37817,-0.59986 z m 8.96299,7.72148 c -0.0288,-0.0364 -0.11805,-2.50693 -0.19844,-5.4901 l -0.14616,-5.42396 -1.71293,-0.0803 c -0.95664,-0.0448 -1.80179,-0.22008 -1.91418,-0.39688 -0.32466,-0.51069 -0.24017,-1.17398 0.20643,-1.62058 0.34506,-0.34507 1.17376,-0.41577 4.87315,-0.41577 2.45155,0 4.64571,0.0723 4.87589,0.1606 0.28246,0.10838 0.41851,0.49545 0.41851,1.19062 v 1.03003 h -1.82377 c -1.41897,0 -1.85942,0.0929 -1.98438,0.41851 -0.0883,0.23018 -0.1606,2.7305 -0.1606,5.55625 v 5.13774 h -1.19062 c -0.65484,0 -1.21415,-0.0298 -1.2429,-0.0662 z m 8.78352,-6.68073 v -6.74687 h 1.19063 1.19062 v 6.74687 6.74688 h -1.19062 -1.19063 z m 18.423,6.53803 c -0.18782,-0.30388 4.76268,-12.79541 5.1744,-13.0565 0.43331,-0.27478 2.35561,-0.28926 2.77761,-0.0209 0.3458,0.2199 5.11041,12.25241 5.11041,12.90581 0,0.32546 -0.2771,0.39192 -1.36826,0.32814 -1.25892,-0.0736 -1.38863,-0.14341 -1.62303,-0.87372 -0.46093,-1.43611 -0.56933,-1.47823 -3.59664,-1.39761 l -2.80478,0.0747 -0.52232,1.12448 c -0.50637,1.09016 -0.5604,1.12448 -1.77032,1.12448 -0.6864,0 -1.30608,-0.094 -1.37707,-0.20885 z m 8.41649,-4.7928 c 0.18214,-0.2947 -1.57965,-4.92023 -1.87403,-4.92023 -0.21641,0 -1.90923,4.22781 -1.9334,4.82865 -0.0158,0.39208 3.56843,0.4783 3.80743,0.0916 z m 6.65862,4.58313 c -0.0883,-0.23018 -0.1606,-3.07918 -0.1606,-6.3311 0,-6.28829 0.0892,-6.74413 1.32017,-6.74413 1.33293,0 1.32566,-0.0303 1.32566,5.53164 0,3.69978 0.0921,5.30249 0.3175,5.52794 0.20375,0.20375 1.24648,0.3175 2.91042,0.3175 h 2.59291 v 1.05833 1.05834 h -4.07273 c -3.46973,0 -4.09651,-0.062 -4.23333,-0.41852 z M 89.766375,156.23366 c -0.06819,-0.21828 -0.19195,-0.60523 -0.275013,-0.85989 -0.202248,-0.62008 -0.890202,-10.69881 -0.934599,-13.69219 -0.01942,-1.30969 -0.111101,-2.73844 -0.203721,-3.175 -0.284988,-1.34326 -1.473547,-1.22214 -8.822031,0.89904 -8.877811,2.56263 -25.748225,6.80128 -29.04696,7.29799 -0.363802,0.0548 -1.613958,0.28543 -2.778125,0.51257 -18.184347,3.5479 -31.449862,3.85733 -36.424726,0.84964 -1.8150187,-1.09731 -2.4347504,-2.29994 -2.5599261,-4.96769 -0.2100697,-4.477 2.2236581,-9.1042 7.4475221,-14.15984 4.569133,-4.42199 9.739995,-7.92737 16.720463,-11.33499 5.506686,-2.68816 6.091923,-2.71959 1.190625,-0.0639 -9.172271,4.96976 -15.169713,9.40185 -19.262767,14.2351 -3.382005,3.99362 -4.8714306,7.23589 -4.9157364,10.70087 -0.042612,3.33252 1.0178824,4.62654 4.5993364,5.61214 2.711423,0.74617 13.416804,0.66496 19.446875,-0.14751 4.603086,-0.62021 14.235915,-2.29474 14.948959,-2.59867 0.218281,-0.093 0.612333,-0.14218 0.875673,-0.1092 0.263337,0.033 0.620525,-0.0513 0.79375,-0.18736 0.173223,-0.13604 0.899385,-0.32363 1.613691,-0.41687 2.830489,-0.36949 19.483166,-4.5533 24.468006,-6.14733 0.299736,-0.0958 0.28765,-0.20467 -0.06615,-0.59561 -0.286498,-0.31658 -0.435078,-0.96341 -0.439359,-1.91272 -0.0035,-0.7889 -0.125034,-1.94846 -0.269946,-2.5768 -0.364271,-1.57943 0.06619,-3.10232 1.013743,-3.58645 1.363268,-0.69654 2.706963,0.35136 3.237111,2.52452 0.590881,2.42212 0.524674,2.42234 4.575561,-0.0151 3.45888,-2.08126 4.093859,-2.55505 3.807746,-2.84116 -0.07186,-0.0719 -0.937699,-0.24495 -1.924081,-0.38464 -0.986383,-0.13969 -1.950022,-0.38394 -2.141424,-0.54279 -0.1914,-0.15885 -0.518258,-0.22348 -0.72635,-0.14363 -0.20809,0.0798 -0.441601,-0.0197 -0.518909,-0.22112 -0.216781,-0.56491 -2.191271,-0.98432 -3.709506,-0.78795 -5.02639,0.65014 -10.237878,2.97654 -9.864694,4.40359 0.07033,0.26894 0.0199,0.42225 -0.11204,0.3407 -0.497943,-0.30774 -0.209249,-1.25653 0.619987,-2.03757 1.036839,-0.97657 3.452284,-2.11307 5.764287,-2.71217 1.576068,-0.4084 5.899875,-0.4777 7.134151,-0.11434 0.428427,0.12612 0.455348,-0.3903 0.23831,-4.57133 -0.09845,-1.89653 -0.0588,-2.08968 0.55544,-2.70557 0.363802,-0.36479 1.033267,-0.73751 1.487699,-0.82829 0.674868,-0.1348 0.971294,-0.0269 1.617986,0.58891 0.720005,0.68563 1.921399,3.1387 1.921399,3.92322 0,0.17632 0.224927,0.52414 0.49984,0.77293 0.472271,0.4274 1.417209,0.3926 17.131778,-0.63103 9.14756,-0.59587 17.00356,-1.20187 17.45778,-1.34667 l 0.82584,-0.26328 -0.0321,-2.48024 c -0.0296,-2.28305 0.0189,-2.53475 0.60933,-3.16572 0.84414,-0.90209 2.3361,-0.94524 3.11796,-0.0902 0.66977,0.7325 1.39998,2.1445 1.39998,2.70714 0,0.23008 0.15811,0.47899 0.35136,0.55315 0.76801,0.29471 26.22598,-10.91539 26.76337,-11.78491 0.0927,-0.15003 0.36165,-0.27278 0.59762,-0.27278 0.45923,0 3.21823,-1.37201 9.99078,-4.96827 11.41665,-6.062312 19.79924,-11.734883 24.24549,-16.407131 2.53412,-2.66292 3.52396,-4.372022 3.53105,-6.09682 0.004,-0.959178 -0.1338,-1.269944 -0.84426,-1.904733 -1.46202,-1.306322 -3.08913,-1.640464 -8.66091,-1.778603 -3.57299,-0.08858 -6.40616,0.0073 -9.8679,0.334037 -7.60745,0.717981 -6.20482,0.206449 2.31216,-0.84323 4.78326,-0.589516 11.48929,-0.593572 13.68794,-0.0083 2.87338,0.764906 4.56831,2.345315 4.56831,4.25966 0,0.994256 -0.84493,3.06306 -1.84413,4.515344 -3.75068,5.45143 -15.20799,13.452838 -31.0965,21.716766 -2.47385,1.2867 -4.53785,2.43679 -4.58666,2.55576 -0.0488,0.11896 -0.20285,0.14578 -0.34232,0.0596 -0.13947,-0.0862 -0.41043,-0.0265 -0.60213,0.13256 -0.84526,0.7015 -13.20728,6.38927 -21.57994,9.92894 -2.97837,1.25915 -5.46803,2.34217 -5.53258,2.40673 -0.0645,0.0645 0.0803,0.33583 0.32199,0.60284 1.47778,1.63294 -1.27819,4.00737 -4.65795,4.0131 -1.33503,0.002 -1.92945,0.20428 -4.7625,1.61862 -1.78039,0.88882 -3.44544,1.80024 -3.7001,2.02538 -0.70837,0.62626 -0.57392,1.83779 0.70713,6.37206 1.84535,6.53159 3.32777,12.4394 3.32777,13.26201 0,1.11974 -1.21732,1.98109 -4.10887,2.90733 -4.71742,1.51113 -5.62804,1.57915 -6.13863,0.45853 -0.1505,-0.33031 -1.07635,-3.87013 -2.05744,-7.86627 -0.98109,-3.99614 -1.88984,-7.38059 -2.01943,-7.52101 -0.14953,-0.16202 -1.46678,0.0619 -3.60511,0.61291 -1.85321,0.47752 -4.306693,1.01182 -5.452167,1.18734 l -2.082684,0.31912 0.0468,7.18822 0.0468,7.18821 -0.609951,0.39762 c -0.75297,0.49085 -5.408163,2.2796 -5.932623,2.2796 -0.210365,0 -0.438277,-0.1786 -0.506468,-0.39688 z m 4.955736,-3.92163 c 0.104457,-0.16902 0.142584,-0.54642 0.08472,-0.83867 -0.05786,-0.29225 -0.176599,-2.55543 -0.263858,-5.02928 -0.237832,-6.74266 -0.319342,-7.23288 -1.302293,-7.83227 -0.451093,-0.27507 -1.147593,-0.50057 -1.547775,-0.50112 l -0.727604,-9.9e-4 0.0063,4.43177 c 0.0064,4.51893 0.357905,10.43304 0.648004,10.90244 0.186415,0.30162 2.80759,-0.65464 3.102539,-1.13188 z m 25.090609,-2.99183 c 0.60789,-0.60789 -2.19611,-10.60395 -3.71987,-13.26102 l -0.79659,-1.38906 h -1.72293 c -0.94762,0 -2.12625,0.16851 -2.61919,0.37448 -1.68512,0.70409 -1.68254,0.7584 0.41277,8.69123 1.04686,3.96339 2.01272,7.27784 2.14636,7.36544 0.29927,0.19617 5.90799,-1.3896 6.29945,-1.78107 z M 75.354885,124.95826 c -0.768395,-0.28089 -1.5875,-1.2352 -1.5875,-1.84955 0,-1.51 3.418478,-4.08102 7.232259,-5.43934 7.500583,-2.67141 14.388497,-2.60735 15.368339,0.14294 0.199261,0.55929 0.112964,0.85381 -0.4767,1.62689 -0.395999,0.51919 -1.100799,1.12923 -1.566219,1.35565 l -0.84622,0.41167 0.839288,-0.78668 c 1.341321,-1.25725 1.759281,-2.0298 1.430507,-2.64412 -0.488543,-0.91285 -1.940418,-1.18436 -5.426808,-1.01484 -5.672842,0.27582 -11.936495,2.34505 -14.725294,4.86456 -1.439796,1.30077 -1.360471,2.10456 0.287515,2.91346 0.968915,0.47558 1.067454,0.58255 0.529167,0.57443 -0.363802,-0.006 -0.840052,-0.0753 -1.058334,-0.15507 z m 41.148755,-4.98964 c -0.43325,-0.2259 -0.87791,-0.55259 -0.98814,-0.72597 -1.21583,-1.91229 2.0974,-4.75489 7.74428,-6.64426 6.1495,-2.05754 12.11221,-2.26546 14.07327,-0.49072 0.83559,0.7562 0.5934,2.01061 -0.59559,3.08479 -1.40826,1.27228 -1.58061,1.2106 -0.41673,-0.14913 0.52066,-0.60828 0.94666,-1.3042 0.94666,-1.54649 0,-2.60048 -9.32966,-2.01309 -16.39302,1.03209 -3.51274,1.51442 -5.29394,3.04371 -4.91944,4.22366 0.0895,0.28191 0.72443,0.75435 1.41101,1.04988 1.00175,0.43119 1.11767,0.54123 0.58686,0.55711 -0.3638,0.0109 -1.01593,-0.16505 -1.44916,-0.39096 z"
           id="path535" />
        <path
           style="fill:#171616;stroke-width:0.264583"
           d="m 56.966343,228.86179 c -0.08994,-0.14553 -0.03743,-0.26459 0.116676,-0.26459 0.154109,0 0.280199,0.11906 0.280199,0.26459 0,0.14552 -0.0525,0.26458 -0.116676,0.26458 -0.06417,0 -0.190262,-0.11906 -0.280199,-0.26458 z m 60.325007,0 c -0.0899,-0.14553 -0.0374,-0.26459 0.11667,-0.26459 0.15411,0 0.2802,0.11906 0.2802,0.26459 0,0.14552 -0.0525,0.26458 -0.11668,0.26458 -0.0642,0 -0.19026,-0.11906 -0.28019,-0.26458 z m 27.56076,0.0882 c -0.33371,-0.33371 -0.17544,-0.61736 0.34447,-0.61736 0.35429,0 0.47216,0.12692 0.36857,0.39687 -0.16288,0.42447 -0.4273,0.50623 -0.71304,0.22049 z m 4.98299,-0.0882 c -0.0899,-0.14553 -0.0374,-0.26459 0.11667,-0.26459 0.15411,0 0.2802,0.11906 0.2802,0.26459 0,0.14552 -0.0525,0.26458 -0.11667,0.26458 -0.0642,0 -0.19027,-0.11906 -0.2802,-0.26458 z m -69.188548,-3.04271 c 0,-1.85209 0.103532,-3.04271 0.264584,-3.04271 0.161051,0 0.264583,1.19062 0.264583,3.04271 0,1.85208 -0.103532,3.04271 -0.264583,3.04271 -0.161052,0 -0.264584,-1.19063 -0.264584,-3.04271 z m 56.648698,2.5656 c -0.19479,-0.36396 -0.13425,-0.55274 0.25527,-0.796 0.46195,-0.28848 0.51062,-0.24301 0.51062,0.47711 0,0.88894 -0.37684,1.04584 -0.76589,0.31889 z m 2.88255,-2.5656 c 0,-1.85209 0.10354,-3.04271 0.26459,-3.04271 0.16105,0 0.26458,1.19062 0.26458,3.04271 0,1.85208 -0.10353,3.04271 -0.26458,3.04271 -0.16105,0 -0.26459,-1.19063 -0.26459,-3.04271 z m 27.51667,0 c 0,-1.85209 0.10353,-3.04271 0.26458,-3.04271 0.16106,0 0.26459,1.19062 0.26459,3.04271 0,1.85208 -0.10353,3.04271 -0.26459,3.04271 -0.16105,0 -0.26458,-1.19063 -0.26458,-3.04271 z m -58.46023,1.86737 c -0.18001,-0.2169 -0.27646,-0.54689 -0.21433,-0.73329 0.0715,-0.21445 0.2343,-0.11223 0.44333,0.27834 0.38896,0.72678 0.24083,1.02106 -0.229,0.45495 z M 28.98071,227.2568 c 0.09326,-0.3566 0.233005,-0.4566 0.401968,-0.28764 0.27387,0.27387 0.05843,0.83429 -0.320723,0.83429 -0.123309,0 -0.159869,-0.24599 -0.08125,-0.54665 z m 3.848708,0.32684 c -0.17885,-0.11053 -0.219009,-0.3368 -0.0953,-0.53696 0.165952,-0.26851 0.253037,-0.24367 0.389138,0.111 0.211331,0.55072 0.120674,0.68214 -0.293833,0.42596 z m 72.423382,-0.14583 c 0,-0.21829 0.11907,-0.47046 0.26459,-0.5604 0.14552,-0.0899 0.26458,0.0151 0.26458,0.23335 0,0.21829 -0.11906,0.47046 -0.26458,0.5604 -0.14552,0.0899 -0.26459,-0.0151 -0.26459,-0.23335 z m -7.910936,-0.77087 c -0.334677,-0.55729 -0.329038,-0.56293 0.126558,-0.12656 0.262263,0.2512 0.419889,0.51367 0.350282,0.58328 -0.06961,0.0696 -0.284183,-0.13592 -0.47684,-0.45672 z m 60.717266,0.11369 c -0.11398,-0.18442 -0.13578,-0.40675 -0.0485,-0.49409 0.2368,-0.23679 0.49498,0.11147 0.36708,0.49516 -0.0896,0.26886 -0.15194,0.26865 -0.31863,-0.001 z m 7.24906,-0.17386 c -0.2796,-0.33691 -0.26323,-0.37562 0.0999,-0.23627 0.23886,0.0917 0.4343,0.27297 0.4343,0.40293 0,0.34024 -0.15316,0.29246 -0.5342,-0.16666 z m -9.78455,-0.25853 c 0,-0.24253 0.12799,-0.39831 0.28442,-0.34616 0.15644,0.0521 0.28443,0.20792 0.28443,0.34616 0,0.13825 -0.12799,0.29402 -0.28443,0.34617 -0.15643,0.0521 -0.28442,-0.10363 -0.28442,-0.34617 z M 54.041679,226.1929 c -0.09777,-0.1582 -0.04527,-0.42014 0.116675,-0.58208 0.216207,-0.21621 0.294447,-0.13978 0.294447,0.28763 0,0.63884 -0.13744,0.73728 -0.411122,0.29445 z m 19.461123,-0.24153 c 0,-0.49389 0.07056,-0.56444 0.3175,-0.3175 0.246944,0.24694 0.246944,0.38806 0,0.635 -0.246944,0.24694 -0.3175,0.17639 -0.3175,-0.3175 z m 104.775008,0.13229 c 0,-0.21828 0.11906,-0.39687 0.26458,-0.39687 0.14552,0 0.26458,0.17859 0.26458,0.39687 0,0.21828 -0.11906,0.39688 -0.26458,0.39688 -0.14552,0 -0.26458,-0.1786 -0.26458,-0.39688 z M 49.425718,225.81908 c 0,-0.24254 0.127992,-0.39831 0.284427,-0.34617 0.156435,0.0521 0.284427,0.20792 0.284427,0.34617 0,0.13824 -0.127992,0.29402 -0.284427,0.34616 -0.156435,0.0521 -0.284427,-0.10363 -0.284427,-0.34616 z m 7.408333,0 c 0,-0.24254 0.127993,-0.39831 0.284428,-0.34617 0.156434,0.0521 0.284427,0.20792 0.284427,0.34617 0,0.13824 -0.127993,0.29402 -0.284427,0.34616 -0.156435,0.0521 -0.284428,-0.10363 -0.284428,-0.34616 z m 21.085666,0.22768 c -0.211384,-0.21139 0.02757,-0.62456 0.361201,-0.62456 0.136932,0 0.248967,0.1786 0.248967,0.39688 0,0.40915 -0.312197,0.52564 -0.610168,0.22768 z m 39.239333,-0.22768 c 0,-0.24254 0.128,-0.39831 0.28443,-0.34617 0.15644,0.0521 0.28443,0.20792 0.28443,0.34617 0,0.13824 -0.12799,0.29402 -0.28443,0.34616 -0.15643,0.0521 -0.28443,-0.10363 -0.28443,-0.34616 z m 32.54375,0 c 0,-0.24254 0.128,-0.39831 0.28443,-0.34617 0.15644,0.0521 0.28443,0.20792 0.28443,0.34617 0,0.13824 -0.12799,0.29402 -0.28443,0.34616 -0.15643,0.0521 -0.28443,-0.10363 -0.28443,-0.34616 z m -55.735778,-0.80516 c -0.238128,-0.62055 0.01892,-0.69341 0.383976,-0.10885 0.204407,0.32731 0.221965,0.51713 0.04783,0.51713 -0.15132,0 -0.345633,-0.18373 -0.431802,-0.40828 z m 68.165888,0.005 c -0.18407,-0.22179 -0.28344,-0.4545 -0.22081,-0.51713 0.0626,-0.0626 0.25919,0.11884 0.43682,0.40327 0.38412,0.61508 0.25602,0.68261 -0.21601,0.11386 z m -29.09886,-1.44882 c 0,-0.62791 0.66767,-0.71021 0.89774,-0.11065 0.23295,0.60705 0.21408,0.63982 -0.36857,0.63982 -0.35278,0 -0.52917,-0.17639 -0.52917,-0.52917 z m -96.448837,-0.27787 c -0.25141,-0.40679 0.09296,-0.66926 0.432552,-0.32967 0.190018,0.19002 0.194582,0.33801 0.01386,0.4497 -0.148146,0.0916 -0.349036,0.0375 -0.446424,-0.12003 z m 8.500428,0.0546 c -0.09156,-0.14814 -0.03754,-0.34903 0.120031,-0.44642 0.406791,-0.25141 0.669255,0.093 0.329665,0.43255 -0.190018,0.19002 -0.33801,0.19458 -0.449696,0.0139 z m 56.356249,0 c -0.0916,-0.14814 -0.0375,-0.34903 0.12003,-0.44642 0.4068,-0.25141 0.66926,0.093 0.32967,0.43255 -0.19002,0.19002 -0.33801,0.19458 -0.4497,0.0139 z m 11.38844,0.0397 c -0.29797,-0.29797 -0.18147,-0.61017 0.22768,-0.61017 0.21828,0 0.39688,0.11203 0.39688,0.24897 0,0.33363 -0.41317,0.57258 -0.62456,0.3612 z m 59.26667,0 c -0.29797,-0.29797 -0.18147,-0.61017 0.22768,-0.61017 0.21828,0 0.39688,0.11203 0.39688,0.24897 0,0.33363 -0.41318,0.57258 -0.62456,0.3612 z m -141.321741,-0.3499 c 0.0914,-0.1479 0.277024,-0.2004 0.412491,-0.11668 0.366988,0.22681 0.298558,0.38558 -0.16619,0.38558 -0.22687,0 -0.337704,-0.12101 -0.246301,-0.2689 z m 26.191084,0.004 c 0.08994,-0.14552 0.216027,-0.26458 0.280199,-0.26458 0.06417,0 0.116676,0.11906 0.116676,0.26458 0,0.14552 -0.12609,0.26459 -0.280199,0.26459 -0.154109,0 -0.206613,-0.11907 -0.116676,-0.26459 z m 50.273507,-0.004 c 0.0914,-0.14789 0.27702,-0.2004 0.41249,-0.11668 0.36698,0.22681 0.29855,0.38558 -0.16619,0.38558 -0.22687,0 -0.33771,-0.12101 -0.2463,-0.2689 z m 10.0515,0.004 c 0.0899,-0.14552 0.21602,-0.26458 0.28019,-0.26458 0.0642,0 0.11668,0.11906 0.11668,0.26458 0,0.14552 -0.12609,0.26459 -0.2802,0.26459 -0.15411,0 -0.20661,-0.11907 -0.11667,-0.26459 z m 32.54375,0 c 0.0899,-0.14552 0.21602,-0.26458 0.2802,-0.26458 0.0642,0 0.11667,0.11906 0.11667,0.26458 0,0.14552 -0.12609,0.26459 -0.2802,0.26459 -0.15411,0 -0.20661,-0.11907 -0.11667,-0.26459 z m 5.82083,0 c 0.0899,-0.14552 0.21603,-0.26458 0.2802,-0.26458 0.0642,0 0.11667,0.11906 0.11667,0.26458 0,0.14552 -0.12609,0.26459 -0.28019,0.26459 -0.15411,0 -0.20662,-0.11907 -0.11668,-0.26459 z M 43.314626,216.66392 c -1.527911,-0.22876 -2.52009,-0.74392 -3.598937,-1.86862 -1.837052,-1.91515 -2.236621,-5.05956 -0.96675,-7.60786 1.672497,-3.35627 6.589763,-4.45665 9.435002,-2.11136 1.125421,0.92766 1.188985,1.16416 0.423063,1.57406 -0.450567,0.24114 -0.660725,0.19961 -1.124479,-0.22221 -0.921948,-0.83857 -1.649627,-1.11406 -2.942704,-1.11406 -2.338162,0 -4.063373,1.30148 -4.659418,3.51502 -1.31939,4.89985 4.019688,8.55062 7.740417,5.29277 0.498642,-0.43661 1.540315,-0.23911 1.540315,0.29204 0,0.38603 -0.926069,1.281 -1.782155,1.72231 -0.950904,0.49019 -2.752976,0.72425 -4.064354,0.52791 z m 125.941674,0.01 c -1.64651,-0.25949 -2.65863,-0.8249 -3.74175,-2.09027 -2.49305,-2.91257 -1.90924,-7.60756 1.19639,-9.62128 2.3997,-1.55599 5.62115,-1.49682 7.48247,0.13744 1.03367,0.90758 1.14996,1.42538 0.37532,1.67124 -0.36324,0.11529 -0.79293,-0.0483 -1.34331,-0.51141 -1.00802,-0.8482 -1.76431,-1.0441 -3.41748,-0.88526 -2.30904,0.22187 -3.92298,2.04554 -4.16163,4.70241 -0.15934,1.77405 0.98947,3.87235 2.57733,4.70744 1.60308,0.8431 3.52622,0.71998 4.87975,-0.31241 1.50448,-1.14752 2.7563,-0.41685 1.4041,0.81956 -1.35934,1.24295 -3.1483,1.71395 -5.25119,1.38254 z M 10.395873,216.37958 c -0.07641,-0.19914 -0.106819,-3.03827 -0.06757,-6.3092 l 0.07137,-5.94714 3.439583,-0.0697 c 4.032476,-0.0817 4.978117,0.22181 5.775727,1.8541 0.406755,0.83241 0.435387,1.13809 0.179283,1.91409 -0.167626,0.50791 -0.593812,1.15084 -0.94708,1.42871 -0.816386,0.64217 -0.815824,1.17284 0.0017,1.61037 0.780044,0.41747 1.304036,1.58949 1.258009,2.81382 -0.08689,2.31121 -1.146321,2.84126 -5.935496,2.96959 -2.900532,0.0777 -3.664721,0.0241 -3.775535,-0.26461 z m 7.424162,-1.92556 c 1.05716,-1.05716 0.789925,-2.54118 -0.589945,-3.2761 -0.771457,-0.41088 -4.644554,-0.40345 -5.057707,0.01 -0.329308,0.32931 -0.438512,2.76345 -0.1569,3.49732 0.130748,0.34072 0.62476,0.41851 2.657859,0.41851 2.298635,0 2.548916,-0.0517 3.146693,-0.64943 z m -0.664179,-5.30851 c 1.466089,-0.75814 1.381152,-2.81557 -0.142516,-3.4522 -1.258124,-0.52568 -4.203234,-0.50312 -4.742683,0.0363 -0.501941,0.50194 -0.572798,3.02554 -0.09827,3.50006 0.468308,0.46831 4.031467,0.40812 4.983473,-0.0842 z m 8.976445,6.95013 c -0.865175,-0.43628 -1.341048,-0.91337 -1.781375,-1.78594 -0.564742,-1.1191 -0.596528,-1.4608 -0.529167,-5.68854 l 0.07167,-4.49792 h 0.661459 0.661458 l 0.132292,4.49792 c 0.120816,4.10772 0.18334,4.56948 0.720738,5.32287 0.782,1.0963 1.885215,1.52059 3.540239,1.36156 1.057508,-0.10161 1.522706,-0.3073 2.179749,-0.96377 l 0.835316,-0.83459 0.132291,-4.69199 0.132292,-4.692 h 0.79375 0.79375 l 0.07396,3.69076 c 0.0856,4.27167 -0.22562,6.16369 -1.205388,7.32807 -0.950402,1.12949 -2.095212,1.54888 -4.227965,1.54888 -1.345174,0 -2.105031,-0.15154 -2.985061,-0.59531 z m 26.594303,0.27715 c -0.07498,-0.1954 -0.104214,-3.03148 -0.06496,-6.30241 l 0.07137,-5.94714 h 0.661458 c 0.659879,0 0.661638,0.007 0.736555,2.84427 0.09705,3.67572 0.311608,3.69541 3.113847,0.2858 1.156499,-1.40716 2.260055,-2.71685 2.452352,-2.91042 0.377899,-0.3804 1.89933,-0.48985 1.89933,-0.13664 0,0.11841 -1.012032,1.38728 -2.248959,2.8197 -1.236927,1.43242 -2.248945,2.73451 -2.248929,2.89355 1.6e-5,0.15904 1.122386,1.6541 2.494158,3.32235 1.371772,1.66826 2.436294,3.12677 2.365606,3.24115 -0.216387,0.35012 -1.359194,0.23117 -1.775132,-0.18477 -0.215998,-0.216 -1.196221,-1.40662 -2.178275,-2.64583 -0.982054,-1.23922 -1.986008,-2.25311 -2.231004,-2.25311 -0.932987,0 -1.447324,1.01695 -1.585799,3.13545 -0.121031,1.85165 -0.183063,2.03113 -0.728787,2.10862 -0.328073,0.0466 -0.657844,-0.0752 -0.732827,-0.27057 z m 13.021869,0.14856 c -0.100746,-0.10075 -0.183171,-2.9613 -0.183171,-6.35679 v -6.17361 h 4.101041 4.101042 v 0.66146 0.66146 l -2.976562,0.004 c -1.63711,0.002 -3.131267,0.10218 -3.320349,0.22212 -0.241393,0.15312 -0.320196,0.76264 -0.264584,2.04647 l 0.0792,1.8284 3.175001,0.13229 c 2.954514,0.12311 3.175,0.16904 3.175,0.66146 0,0.49242 -0.220486,0.53835 -3.175,0.66146 l -3.175001,0.13229 v 1.98438 1.98437 l 3.175001,0.13229 3.175,0.13229 v 0.66146 0.66146 l -3.851725,0.0729 c -2.11845,0.0401 -3.934153,-0.01 -4.034896,-0.11024 z m 15.614796,0.004 c -0.103153,-0.10317 -0.18755,-1.32929 -0.18755,-2.72473 v -2.53716 l -2.248959,-3.36729 c -1.236927,-1.85201 -2.248958,-3.48842 -2.248958,-3.63645 0,-0.39716 1.227132,-0.32715 1.648317,0.094 0.199758,0.19976 1.011934,1.39442 1.804837,2.6548 1.038188,1.65029 1.573469,2.27058 1.91271,2.21649 0.259413,-0.0414 1.210469,-1.20449 2.116667,-2.58865 1.462794,-2.23433 1.741117,-2.52276 2.50549,-2.59646 0.472943,-0.0456 0.859896,-0.0151 0.859896,0.0678 0,0.0829 -1.041797,1.71372 -2.315104,3.62402 l -2.315104,3.47329 -0.132292,2.6766 c -0.120684,2.44176 -0.179673,2.68337 -0.672346,2.7539 -0.297029,0.0425 -0.624451,-0.007 -0.727604,-0.11024 z m 9.520621,-0.004 c -0.100745,-0.10075 -0.183171,-2.9613 -0.183171,-6.35679 v -6.17361 h 4.101042 4.101042 v 0.66146 0.66146 l -2.976563,0.004 c -1.637109,0.002 -3.131267,0.10218 -3.320349,0.22212 -0.241392,0.15312 -0.320196,0.76264 -0.264583,2.04647 l 0.0792,1.8284 3.175,0.13229 c 2.954515,0.12311 3.175,0.16904 3.175,0.66146 0,0.49242 -0.220485,0.53835 -3.175,0.66146 l -3.175,0.13229 v 1.98438 1.98437 l 3.175,0.13229 3.175,0.13229 v 0.66146 0.66146 l -3.851725,0.0729 c -2.11845,0.0401 -3.934153,-0.01 -4.034896,-0.11024 z m 21.06404,-0.14803 c -0.27459,-0.34892 -4.84304,-11.85334 -4.84304,-12.19589 0,-0.32422 1.51129,-0.20143 1.77531,0.14425 0.13894,0.1819 1.00091,2.35479 1.9155,4.82865 1.6778,4.53827 2.17731,5.48816 2.63754,5.01574 0.13569,-0.13928 1.07008,-2.4559 2.07642,-5.14803 1.56494,-4.18648 1.91517,-4.9074 2.42025,-4.98187 1.41912,-0.20923 1.38716,-0.0295 -1.12984,6.35426 l -2.43204,6.16823 -1.07476,0.0793 c -0.6524,0.0481 -1.1811,-0.0559 -1.34534,-0.26459 z m 10.42138,0.14803 c -0.10075,-0.10075 -0.18317,-2.9613 -0.18317,-6.35679 v -6.17361 h 4.10104 4.10104 v 0.66146 0.66146 l -2.97656,0.004 c -1.63711,0.002 -3.13127,0.10218 -3.32035,0.22212 -0.24139,0.15312 -0.3202,0.76264 -0.26458,2.04647 l 0.0792,1.8284 3.175,0.13229 c 2.95451,0.12311 3.175,0.16904 3.175,0.66146 0,0.49242 -0.22049,0.53835 -3.175,0.66146 l -3.175,0.13229 v 1.98438 1.98437 l 3.175,0.13229 3.175,0.13229 v 0.66146 0.66146 l -3.85173,0.0729 c -2.11845,0.0401 -3.93415,-0.01 -4.03489,-0.11024 z m 11.84896,-0.14856 c -0.075,-0.1954 -0.10421,-3.03148 -0.065,-6.30241 l 0.0714,-5.94714 h 3.45203 c 2.85273,0 3.57554,0.081 4.1635,0.46671 1.13953,0.7475 1.62599,1.71607 1.62599,3.23746 0,1.64501 -0.55608,2.61928 -1.84614,3.23446 -0.5022,0.23948 -0.91309,0.61174 -0.91309,0.82723 0,0.2155 0.53578,1.25144 1.19063,2.30209 1.35265,2.17025 1.43164,2.5014 0.59531,2.49571 -0.87198,-0.006 -1.02406,-0.16781 -2.55644,-2.72087 l -1.39732,-2.32804 -1.36348,0.0791 -1.36349,0.0791 -0.13229,2.38125 c -0.12349,2.22278 -0.17199,2.38689 -0.72879,2.46595 -0.32807,0.0466 -0.65784,-0.0752 -0.73283,-0.27057 z m 6.07903,-6.40631 c 1.00049,-0.41804 1.468,-1.09926 1.468,-2.13907 0,-1.03981 -0.46751,-1.72103 -1.468,-2.13907 -1.09314,-0.45674 -3.86344,-0.49345 -4.29991,-0.057 -0.18856,0.18855 -0.3175,1.09657 -0.3175,2.23581 0,1.54784 0.0894,1.97039 0.46302,2.188 0.67905,0.39551 3.12025,0.34339 4.15439,-0.0887 z m 9.85862,6.56023 c -0.10369,-0.10369 -0.18853,-2.59674 -0.18853,-5.54009 0,-6.08666 0.17667,-5.67275 -2.42129,-5.67275 -1.49161,0 -1.57932,-0.0348 -1.49972,-0.59531 0.0841,-0.59218 0.1096,-0.59532 4.84705,-0.59532 4.58611,0 4.7625,0.0196 4.7625,0.52917 0,0.44939 -0.19944,0.53959 -1.32292,0.59831 -2.7406,0.14323 -2.49303,-0.41663 -2.57433,5.82153 l -0.0715,5.48641 -0.67136,0.0783 c -0.36925,0.0431 -0.7562,-0.007 -0.8599,-0.11024 z m 8.66838,-0.15449 c -0.0747,-0.1948 -0.10384,-3.09004 -0.0646,-6.43387 l 0.0713,-6.07969 h 0.79375 0.79375 v 6.35 6.35 l -0.72911,0.0839 c -0.43062,0.0495 -0.78475,-0.0611 -0.86502,-0.27031 z m 18.67552,-0.14429 c 0.009,-0.25466 1.05424,-3.08239 2.3235,-6.28385 l 2.30774,-5.82084 h 1.27943 1.27944 l 2.22666,5.68855 c 2.82666,7.22137 2.74141,6.87916 1.71375,6.87916 -0.7144,0 -0.89294,-0.15826 -1.41774,-1.25677 l -0.60042,-1.25677 h -3.175 -3.175 l -0.60042,1.25677 c -0.51784,1.08393 -0.70887,1.25677 -1.38906,1.25677 -0.58071,0 -0.78449,-0.12208 -0.77288,-0.46302 z m 8.39169,-4.05175 c 0.0435,-0.22756 -0.41635,-1.69198 -1.02182,-3.25427 -0.8019,-2.06917 -1.21153,-2.81901 -1.50845,-2.76127 -0.5029,0.0978 -2.57821,5.54893 -2.34445,6.15809 0.23561,0.61401 4.75545,0.48184 4.87472,-0.14255 z m 6.53086,4.18556 c -0.0727,-0.18932 -0.1,-3.02043 -0.0607,-6.29136 l 0.0714,-5.94714 h 0.79375 0.79375 l 0.1323,5.42396 0.13229,5.42396 2.77812,0.13229 c 2.75167,0.13103 2.77813,0.13859 2.77813,0.79375 v 0.66146 l -3.64345,0.0736 c -2.80053,0.0566 -3.674,-0.006 -3.77553,-0.27057 z M 90.050342,155.85471 c -0.246105,-0.3982 -0.620549,-4.98915 -0.950976,-11.65959 -0.343406,-6.93252 -0.405086,-7.14375 -2.085936,-7.14375 -0.527693,0 -2.979785,0.60132 -5.449096,1.33626 -8.437979,2.51141 -20.095206,5.50744 -28.302158,7.27396 -1.164166,0.25058 -2.414323,0.60211 -2.778125,0.78118 -0.363802,0.17907 -0.812485,0.27173 -0.997072,0.20591 -0.184589,-0.0658 -2.327714,0.2462 -4.7625,0.69337 -14.804845,2.71904 -27.121709,3.10145 -32.141568,0.99793 -1.232139,-0.51631 -2.5975767,-1.74012 -2.9871511,-2.6773 -0.1842979,-0.44336 -0.4037547,-1.52048 -0.4876821,-2.3936 l -0.1525956,-1.5875 0.3861634,1.84816 c 0.2123895,1.01649 0.6078117,2.14758 0.8787154,2.51354 2.535792,3.42556 11.060187,4.07174 25.97619,1.96911 5.701829,-0.80376 13.009563,-2.17892 13.348229,-2.51184 0.138245,-0.13591 0.646282,-0.2471 1.128972,-0.2471 2.260264,0 25.76566,-5.87352 26.746696,-6.68346 0.275913,-0.22779 0.20684,-0.41429 -0.341879,-0.92309 -0.488638,-0.45309 -0.638156,-0.79356 -0.516639,-1.17643 0.09406,-0.29635 0.02503,-1.47731 -0.153418,-2.62436 -0.379505,-2.43957 -0.09059,-3.5735 0.978889,-3.84192 0.974265,-0.24453 1.814756,0.73151 2.460419,2.85721 0.306403,1.00878 0.715494,1.89492 0.909087,1.96921 0.479671,0.18406 8.356312,-4.62196 8.356312,-5.0987 0,-0.51152 -1.591765,-1.14721 -2.872608,-1.14721 -1.565203,0 -2.281687,-0.71174 -2.308257,-2.29297 -0.01183,-0.7034 -0.118858,-2.20484 -0.237863,-3.33655 -0.204097,-1.94088 -0.181491,-2.09478 0.398339,-2.71198 0.843735,-0.89811 2.152083,-0.88833 2.86771,0.0214 0.292359,0.37168 0.779076,1.41348 1.081593,2.31511 0.945367,2.81761 0.971089,2.82955 5.436711,2.52317 1.891771,-0.12979 9.454896,-0.63256 16.806936,-1.11727 14.9702,-0.98696 15.28365,-1.0421 14.96477,-2.63249 -0.44233,-2.2061 -0.45147,-2.7609 -0.0609,-3.69568 0.50712,-1.21372 1.47197,-1.7239 2.43253,-1.28623 0.63218,0.28803 1.96343,2.60246 1.9697,3.42437 0.005,0.68228 0.77293,0.59425 3.07434,-0.35251 10.64856,-4.38066 23.88931,-10.41889 25.00777,-11.40438 0.23681,-0.20866 0.7373,-0.435 1.1122,-0.50298 0.84179,-0.15265 10.42413,-5.12591 15.25827,-7.919085 9.53942,-5.511898 16.64478,-10.849147 20.08243,-15.085081 l 0.85888,-1.058333 -0.78605,1.190625 c -1.00841,1.527442 -4.57488,4.966798 -7.45526,7.189541 -5.36001,4.136244 -12.86419,8.751743 -22.66041,13.937443 -3.07714,1.6289 -5.74086,3.13764 -5.91938,3.35274 -0.17852,0.21511 -0.58933,0.39111 -0.91289,0.39111 -0.32357,0 -2.54142,0.93846 -4.92854,2.08547 -5.08686,2.44422 -11.81521,5.44166 -17.34045,7.72506 -4.5347,1.87405 -4.89742,2.11629 -4.24617,2.83592 1.451,1.60334 -0.67882,3.49314 -3.93679,3.49314 -1.28993,0 -1.95777,0.22714 -5.00169,1.70111 -3.5519,1.71997 -4.6391,2.58934 -4.6391,3.70963 0,0.31728 0.66287,2.95037 1.47304,5.8513 0.81017,2.90093 1.89189,6.98022 2.40383,9.0651 1.06737,4.34695 1.07329,4.32092 -1.20577,5.30134 -1.75328,0.75424 -5.75221,1.88818 -6.65883,1.88818 -0.90237,0 -0.69075,0.61752 -3.12819,-9.12812 l -1.78669,-7.14375 -0.77421,0.023 c -0.42582,0.0127 -2.2625,0.41331 -4.08151,0.89032 -1.81901,0.47701 -4.14073,0.94289 -5.159376,1.0353 l -1.852083,0.16801 v 7.32723 c 0,4.53773 -0.100727,7.42471 -0.264583,7.58328 -0.32625,0.31573 -5.077852,2.15513 -5.567188,2.15513 -0.195088,0 -0.423307,-0.111 -0.507148,-0.24666 z m 3.36441,-2.34852 c 0.692351,-0.26295 1.396582,-0.61585 1.564954,-0.78422 0.386604,-0.38661 -0.178665,-12.7111 -0.628255,-13.69785 -0.375852,-0.82489 -2.936486,-1.7345 -3.446651,-1.22433 -0.483341,0.48334 -0.572915,5.06009 -0.210328,10.74656 0.176803,2.77281 0.376627,5.13078 0.444051,5.23992 0.198151,0.32074 0.931981,0.23045 2.276229,-0.28008 z m 23.744298,-2.77438 c 2.98989,-0.84245 3.0441,-0.87148 3.12263,-1.6725 0.0944,-0.96305 -1.45488,-7.32472 -2.47332,-10.15586 -0.86482,-2.40411 -1.84834,-4.14841 -2.55116,-4.52455 -0.32794,-0.17551 -1.25744,-0.21019 -2.50359,-0.0934 -2.32569,0.21793 -3.53206,0.97669 -3.53206,2.22153 0,0.73102 3.50387,14.2937 3.82837,14.81876 0.25833,0.41798 0.79081,0.34101 4.10913,-0.59397 z M 9.2606302,140.88783 c 0.00539,-0.43656 0.06469,-0.58313 0.1317736,-0.3257 0.067083,0.25744 0.062672,0.61462 -0.0098,0.79375 -0.072476,0.17914 -0.127363,-0.0315 -0.1219708,-0.46805 z m 0.2253787,-1.11913 c -0.015473,-0.40683 0.8141351,-2.50818 0.9403851,-2.38193 0.05102,0.051 -0.136906,0.68104 -0.41762,1.40004 -0.280714,0.719 -0.5159585,1.16085 -0.5227651,0.98189 z"
           id="path533" />
      </g>
    </g>
  </g>
</svg>
